<svg width="567" height="326" viewBox="0 0 567 326" fill="none" xmlns="http://www.w3.org/2000/svg">
<path d="M559.552 0.143494H7.74831C3.63488 0.143494 0.300293 3.52823 0.300293 7.70352V318.428C0.300293 322.603 3.63488 325.988 7.74831 325.988H559.552C563.665 325.988 567 322.603 567 318.428V7.70352C567 3.52823 563.665 0.143494 559.552 0.143494Z" fill="url(#paint0_linear)"/>
<path d="M558.717 4.72552H8.64871C4.53528 4.72552 1.20068 8.11027 1.20068 12.2856V317.344C1.20068 321.519 4.53528 324.904 8.64871 324.904H558.717C562.831 324.904 566.165 321.519 566.165 317.344V12.2856C566.165 8.11027 562.831 4.72552 558.717 4.72552Z" fill="white"/>
<path d="M558.717 4.72552H8.64871C4.53528 4.72552 1.20068 8.11027 1.20068 12.2856V317.344C1.20068 321.519 4.53528 324.904 8.64871 324.904H558.717C562.831 324.904 566.165 321.519 566.165 317.344V12.2856C566.165 8.11027 562.831 4.72552 558.717 4.72552Z" fill="white"/>
<path opacity="0.04" d="M558.717 4.72552H8.64871C4.53528 4.72552 1.20068 8.11027 1.20068 12.2856V317.344C1.20068 321.519 4.53528 324.904 8.64871 324.904H558.717C562.831 324.904 566.165 321.519 566.165 317.344V12.2856C566.165 8.11027 562.831 4.72552 558.717 4.72552Z" fill="#5A5773"/>
<path d="M563.303 1.05145H4.07497C3.31425 1.05145 2.58469 1.35819 2.04678 1.90419C1.50887 2.45019 1.20667 3.19072 1.20667 3.96288V16.2865H566.171V3.96288C566.171 3.19072 565.869 2.45019 565.331 1.90419C564.793 1.35819 564.064 1.05145 563.303 1.05145V1.05145Z" fill="#5A5773"/>
<path d="M12.4831 12.5942C14.6238 12.5942 16.3592 10.8328 16.3592 8.65989C16.3592 6.487 14.6238 4.72552 12.4831 4.72552C10.3424 4.72552 8.60706 6.487 8.60706 8.65989C8.60706 10.8328 10.3424 12.5942 12.4831 12.5942Z" fill="white"/>
<path d="M22.9187 12.5942C25.0594 12.5942 26.7948 10.8328 26.7948 8.65989C26.7948 6.487 25.0594 4.72552 22.9187 4.72552C20.778 4.72552 19.0426 6.487 19.0426 8.65989C19.0426 10.8328 20.778 12.5942 22.9187 12.5942Z" fill="white"/>
<path d="M33.3543 12.5942C35.495 12.5942 37.2304 10.8328 37.2304 8.65989C37.2304 6.487 35.495 4.72552 33.3543 4.72552C31.2136 4.72552 29.4783 6.487 29.4783 8.65989C29.4783 10.8328 31.2136 12.5942 33.3543 12.5942Z" fill="white"/>
<path opacity="0.1" d="M504.035 87.1596H45.0958C41.7398 87.1596 39.0193 89.9211 39.0193 93.3275V264.999C39.0193 268.405 41.7398 271.167 45.0958 271.167H504.035C507.391 271.167 510.111 268.405 510.111 264.999V93.3275C510.111 89.9211 507.391 87.1596 504.035 87.1596Z" fill="#6C63FF"/>
<path d="M513.096 78.3089L54.1522 78.1616C50.7962 78.1605 48.0769 80.9211 48.0784 84.3275L48.1539 255.997C48.1553 259.404 50.8771 262.166 54.2331 262.167L513.177 262.314C516.533 262.315 519.252 259.555 519.25 256.149L519.175 84.4787C519.173 81.0723 516.452 78.31 513.096 78.3089Z" fill="white"/>
<path opacity="0.2" d="M119.517 112.392L447.793 112.476" stroke="#5A5773" stroke-miterlimit="10"/>
<path opacity="0.2" d="M119.532 138.422L447.807 138.505" stroke="#5A5773" stroke-miterlimit="10"/>
<path opacity="0.2" d="M119.547 164.445L447.822 164.528" stroke="#5A5773" stroke-miterlimit="10"/>
<path opacity="0.2" d="M119.555 190.474L447.837 190.558" stroke="#5A5773" stroke-miterlimit="10"/>
<path opacity="0.2" d="M149.213 183.42L149.229 216.509" stroke="#5A5773" stroke-miterlimit="10" stroke-dasharray="12 12"/>
<path opacity="0.2" d="M119.57 216.504L447.846 216.581" stroke="#5A5773" stroke-miterlimit="10"/>
<path opacity="0.2" d="M186.356 216.517L186.331 167.189" stroke="#5A5773" stroke-miterlimit="10" stroke-dasharray="12 12"/>
<path opacity="0.2" d="M402.016 157.779C396.181 158.443 390.385 155.261 386.797 151.853C383.08 148.315 380.337 143.916 377.686 139.637C376.846 138.284 375.975 136.889 375.1 135.543C370.489 128.528 365.943 123.849 360.801 120.814C358.917 119.702 356.905 118.83 354.811 118.218C354.624 118.703 354.351 119.15 354.004 119.534C353.259 120.363 352.221 120.858 351.116 120.91L350.919 120.915C349.927 120.913 348.968 120.553 348.214 119.899C347.459 119.244 346.959 118.339 346.802 117.345C344.927 117.483 343.084 117.916 341.341 118.629C336.187 120.752 332.344 125.131 328.857 129.441C324.636 134.647 320.576 140.097 316.804 145.649C316.038 146.77 315.271 147.898 314.505 149.031C310.414 155.154 306.185 161.481 300.634 166.485C293.184 173.238 284.093 176.298 276.315 174.675C266.984 172.727 260.136 164.577 255.218 157.691C254.599 156.798 253.979 155.906 253.312 154.997C248.718 148.454 243.97 141.691 237.12 137.851C228.096 132.784 215.845 134.011 207.965 140.758C204.124 144.047 201.29 148.455 198.541 152.715C197.6 154.18 196.625 155.694 195.618 157.149C190.44 164.601 185.135 168.709 179.327 169.717C177.021 170.036 174.688 170.096 172.37 169.895C170.829 169.825 169.234 169.745 167.679 169.827C163.802 170.094 160.059 171.375 156.815 173.545C153.571 175.715 150.935 178.7 149.164 182.21L149.231 217.06L407.112 217.132L407.082 159.472C406.647 159.727 406.163 159.886 405.663 159.939C405.162 159.991 404.657 159.936 404.179 159.777C403.701 159.618 403.261 159.358 402.888 159.015C402.516 158.672 402.219 158.253 402.016 157.785L402.016 157.779Z" fill="#6C63FF"/>
<path opacity="0.2" d="M224.436 134.73L224.48 216.53" stroke="#5A5773" stroke-miterlimit="10" stroke-dasharray="12 12"/>
<path opacity="0.2" d="M261.175 165.089L261.201 216.536" stroke="#5A5773" stroke-miterlimit="10" stroke-dasharray="12 12"/>
<path opacity="0.2" d="M297.073 170.209L297.1 216.546" stroke="#5A5773" stroke-miterlimit="10" stroke-dasharray="12 12"/>
<path opacity="0.2" d="M330.703 127.88L330.749 216.552" stroke="#5A5773" stroke-miterlimit="10" stroke-dasharray="12 12"/>
<path opacity="0.2" d="M365.926 123.886L365.974 216.566" stroke="#5A5773" stroke-miterlimit="10" stroke-dasharray="12 12"/>
<path opacity="0.2" d="M405.916 157.71L405.94 216.574" stroke="#5A5773" stroke-miterlimit="10" stroke-dasharray="12 12"/>
<path d="M354.35 114.143C353.944 113.767 353.469 113.476 352.952 113.286C352.436 113.097 351.887 113.013 351.339 113.039C350.356 113.082 349.42 113.476 348.697 114.152C347.973 114.827 347.508 115.74 347.383 116.73C347.352 116.971 347.342 117.215 347.354 117.458C347.358 117.621 347.362 117.784 347.402 117.941C347.553 118.886 348.014 119.751 348.711 120.396C349.47 121.125 350.475 121.533 351.52 121.535L351.717 121.53C352.822 121.481 353.863 120.988 354.611 120.16C354.956 119.774 355.229 119.329 355.418 118.844C355.564 118.464 355.654 118.064 355.686 117.657C355.696 117.473 355.692 117.289 355.672 117.106C355.655 116.548 355.529 115.999 355.302 115.491C355.075 114.982 354.751 114.524 354.35 114.143ZM354.252 118.505C354.126 118.803 353.95 119.076 353.73 119.311C353.359 119.72 352.884 120.017 352.358 120.17C351.831 120.323 351.273 120.326 350.744 120.178C350.216 120.03 349.738 119.737 349.363 119.332C348.987 118.926 348.729 118.424 348.617 117.88C348.58 117.723 348.558 117.564 348.551 117.403C348.539 117.159 348.556 116.914 348.604 116.675C348.734 116.011 349.079 115.411 349.585 114.97C350.09 114.529 350.727 114.273 351.393 114.242L351.53 114.239C352.297 114.239 353.034 114.539 353.588 115.076C354.143 115.613 354.473 116.347 354.509 117.123C354.511 117.184 354.512 117.251 354.514 117.311C354.514 117.724 354.425 118.131 354.252 118.505V118.505Z" fill="#6C63FF"/>
<path d="M406.024 160.547C407.999 160.496 409.559 158.83 409.508 156.825C409.457 154.82 407.814 153.235 405.839 153.286C403.863 153.336 402.303 155.002 402.355 157.007C402.406 159.013 404.049 160.597 406.024 160.547Z" fill="#6C63FF"/>
<path d="M348.551 117.403C348.558 117.563 348.58 117.723 348.617 117.879C348.212 117.89 347.806 117.9 347.425 117.94C345.548 118.079 343.704 118.512 341.958 119.224C336.805 121.348 332.962 125.727 329.469 130.036C325.248 135.236 321.187 140.693 317.41 146.238C316.645 147.36 315.893 148.493 315.111 149.627C311.014 155.751 306.785 162.071 301.24 167.081C293.783 173.829 284.687 176.889 276.903 175.265C267.583 173.323 260.736 165.167 255.788 158.282C255.169 157.395 254.513 156.498 253.882 155.588C249.282 149.045 244.528 142.282 237.678 138.443C228.654 133.375 216.391 134.603 208.523 141.349C204.735 144.631 201.865 149.039 199.117 153.299C198.17 154.765 197.195 156.285 196.188 157.734C191.01 165.186 185.698 169.294 179.89 170.302C177.585 170.618 175.252 170.678 172.933 170.48C171.37 170.376 169.803 170.353 168.237 170.412C164.082 170.694 160.087 172.141 156.696 174.593C153.305 177.044 150.652 180.403 149.032 184.296L147.923 183.84C149.633 179.737 152.43 176.197 156.005 173.613C159.579 171.029 163.791 169.502 168.171 169.203C169.778 169.138 171.387 169.161 172.992 169.274C175.223 169.462 177.468 169.404 179.687 169.102C185.168 168.157 190.245 164.207 195.21 157.032C196.205 155.596 197.175 154.088 198.116 152.629C200.91 148.319 203.802 143.819 207.771 140.412C211.982 136.89 217.13 134.72 222.562 134.179C227.993 133.638 233.462 134.75 238.271 137.374C245.364 141.352 250.198 148.228 254.878 154.884C255.497 155.776 256.116 156.669 256.778 157.566C261.572 164.274 268.217 172.211 277.159 174.072C284.571 175.62 293.282 172.667 300.459 166.168C305.876 161.265 310.077 155.024 314.127 148.938C314.879 147.805 315.644 146.671 316.426 145.543C320.227 139.997 324.304 134.492 328.537 129.255C332.128 124.828 336.063 120.325 341.5 118.098C343.383 117.336 345.372 116.877 347.395 116.736C347.794 116.726 348.204 116.679 348.587 116.706C348.547 116.936 348.535 117.17 348.551 117.403V117.403Z" fill="#6C63FF"/>
<path d="M406.154 157.479C399.229 160.308 391.736 156.54 387.42 152.448C383.703 148.91 380.96 144.506 378.31 140.226C377.47 138.879 376.599 137.479 375.718 136.139C371.106 129.118 366.561 124.439 361.413 121.403C359.528 120.295 357.516 119.425 355.423 118.814C355.038 118.696 354.648 118.597 354.222 118.505C354.394 118.134 354.483 117.728 354.484 117.318C354.88 117.411 355.271 117.516 355.685 117.626C357.894 118.267 360.015 119.185 362 120.359C367.318 123.487 371.986 128.284 376.703 135.466C377.59 136.824 378.461 138.224 379.313 139.589C381.926 143.797 384.626 148.154 388.227 151.562C392.28 155.406 399.297 158.975 405.702 156.359L406.154 157.479Z" fill="#6C63FF"/>
<path opacity="0.5" d="M131.134 106.967L120.042 106.963C119.746 106.963 119.506 107.207 119.506 107.508L119.508 111.866C119.508 112.167 119.748 112.411 120.045 112.411L131.136 112.415C131.433 112.415 131.673 112.171 131.673 111.87L131.671 107.512C131.671 107.211 131.43 106.967 131.134 106.967Z" fill="#6C63FF"/>
<path d="M131.14 132.989L120.048 132.986C119.752 132.986 119.512 133.23 119.512 133.53L119.514 137.888C119.514 138.189 119.754 138.433 120.051 138.433L131.142 138.437C131.439 138.437 131.679 138.193 131.679 137.892L131.677 133.534C131.677 133.234 131.436 132.99 131.14 132.989Z" fill="#6C63FF"/>
<path opacity="0.5" d="M131.152 159.024L120.06 159.02C119.764 159.02 119.523 159.264 119.524 159.565L119.525 163.923C119.526 164.224 119.766 164.468 120.062 164.468L131.154 164.471C131.45 164.471 131.691 164.228 131.69 163.927L131.689 159.569C131.688 159.268 131.448 159.024 131.152 159.024Z" fill="#6C63FF"/>
<path opacity="0.5" d="M131.164 185.046L120.072 185.043C119.776 185.043 119.535 185.286 119.536 185.587L119.537 189.945C119.538 190.246 119.778 190.49 120.074 190.49L131.166 190.494C131.462 190.494 131.703 190.25 131.702 189.949L131.701 185.591C131.7 185.29 131.46 185.046 131.164 185.046Z" fill="#6C63FF"/>
<path opacity="0.5" d="M131.175 211.075L120.084 211.071C119.787 211.071 119.547 211.315 119.547 211.616L119.549 215.974C119.549 216.275 119.79 216.519 120.086 216.519L131.178 216.522C131.474 216.522 131.714 216.278 131.714 215.978L131.712 211.62C131.712 211.319 131.472 211.075 131.175 211.075Z" fill="#6C63FF"/>
<path opacity="0.5" d="M154.023 221.976L142.931 221.972C142.635 221.972 142.395 222.216 142.395 222.517L142.397 226.875C142.397 227.176 142.637 227.42 142.933 227.42L154.025 227.423C154.322 227.423 154.562 227.179 154.562 226.879L154.56 222.521C154.56 222.22 154.319 221.976 154.023 221.976Z" fill="#6C63FF"/>
<path opacity="0.5" d="M191.889 221.987L180.797 221.984C180.501 221.983 180.26 222.227 180.26 222.528L180.262 226.886C180.263 227.187 180.503 227.431 180.799 227.431L191.891 227.435C192.187 227.435 192.428 227.191 192.427 226.89L192.426 222.532C192.425 222.231 192.185 221.987 191.889 221.987Z" fill="#6C63FF"/>
<path d="M228.708 223.712L217.612 223.657C217.315 223.656 217.074 223.899 217.073 224.2L217.055 228.56C217.054 228.861 217.294 229.106 217.59 229.107L228.687 229.162C228.983 229.163 229.224 228.92 229.226 228.619L229.243 224.259C229.244 223.958 229.005 223.713 228.708 223.712Z" fill="#6C63FF"/>
<path opacity="0.5" d="M266.733 222.01L255.641 222.006C255.345 222.006 255.104 222.25 255.105 222.551L255.107 226.909C255.107 227.21 255.347 227.454 255.643 227.454L266.735 227.457C267.032 227.458 267.272 227.214 267.272 226.913L267.27 222.555C267.27 222.254 267.029 222.01 266.733 222.01Z" fill="#6C63FF"/>
<path opacity="0.5" d="M302.626 222.027L291.535 222.023C291.238 222.023 290.998 222.267 290.998 222.568L291 226.926C291 227.227 291.24 227.471 291.537 227.471L302.629 227.474C302.925 227.475 303.165 227.231 303.165 226.93L303.163 222.572C303.163 222.271 302.923 222.027 302.626 222.027Z" fill="#6C63FF"/>
<path d="M336.273 222.031L325.181 222.028C324.885 222.028 324.645 222.271 324.645 222.572L324.647 226.93C324.647 227.231 324.887 227.475 325.184 227.475L336.275 227.479C336.572 227.479 336.812 227.235 336.812 226.934L336.81 222.576C336.81 222.275 336.569 222.031 336.273 222.031Z" fill="#6C63FF"/>
<path d="M371.749 222.042L360.657 222.038C360.361 222.038 360.121 222.282 360.121 222.583L360.123 226.941C360.123 227.242 360.363 227.486 360.66 227.486L371.751 227.489C372.048 227.49 372.288 227.246 372.288 226.945L372.286 222.587C372.286 222.286 372.045 222.042 371.749 222.042Z" fill="#6C63FF"/>
<path d="M409.945 224.604L399.433 224.553C398.975 224.55 398.602 224.925 398.6 225.39L398.585 229.157C398.583 229.622 398.953 230 399.411 230.003L409.923 230.054C410.381 230.056 410.754 229.681 410.756 229.216L410.771 225.45C410.772 224.985 410.403 224.606 409.945 224.604Z" fill="#6C63FF"/>
<path d="M504.911 284.495C506.277 284.495 507.601 284.976 508.657 285.855C509.712 286.735 510.435 287.958 510.702 289.318C510.968 290.678 510.762 292.089 510.118 293.312C509.475 294.535 508.433 295.493 507.171 296.024C505.909 296.554 504.505 296.624 503.198 296.222C501.891 295.82 500.762 294.97 500.003 293.817C499.244 292.664 498.903 291.28 499.037 289.901C499.17 288.521 499.771 287.231 500.737 286.251C501.284 285.693 501.935 285.251 502.651 284.949C503.368 284.648 504.136 284.494 504.911 284.495V284.495ZM504.911 283.563C503.56 283.563 502.24 283.97 501.117 284.732C499.994 285.494 499.119 286.577 498.602 287.844C498.086 289.111 497.951 290.506 498.216 291.85C498.48 293.195 499.131 294.43 500.088 295.399C501.044 296.367 502.261 297.027 503.587 297.293C504.912 297.559 506.285 297.42 507.533 296.893C508.78 296.367 509.845 295.477 510.594 294.335C511.343 293.194 511.742 291.853 511.739 290.482C511.738 289.572 511.561 288.672 511.218 287.832C510.874 286.992 510.371 286.229 509.737 285.587C509.103 284.945 508.35 284.435 507.522 284.088C506.694 283.741 505.807 283.562 504.911 283.563V283.563Z" fill="#6C63FF"/>
<path d="M503.081 292.527L503.438 292.043C503.787 292.391 504.255 292.588 504.744 292.594C505.341 292.594 505.812 292.285 505.812 291.795C505.812 291.305 505.376 290.911 504.172 290.911V290.354C505.245 290.354 505.651 289.991 505.651 289.519C505.651 289.047 505.287 288.823 504.756 288.823C504.338 288.836 503.938 289.002 503.629 289.289L503.247 288.823C503.673 288.442 504.219 288.227 504.786 288.218C505.71 288.218 506.396 288.672 506.396 289.465C506.396 290.022 505.997 290.391 505.412 290.591V290.621C505.713 290.653 505.993 290.792 506.202 291.014C506.412 291.235 506.538 291.525 506.557 291.831C506.557 292.691 505.758 293.211 504.804 293.211C504.486 293.224 504.168 293.17 503.872 293.052C503.575 292.935 503.306 292.756 503.081 292.527V292.527Z" fill="#6C63FF"/>
<path d="M533.111 284.901C534.477 284.901 535.801 285.381 536.856 286.261C537.912 287.14 538.635 288.364 538.902 289.724C539.168 291.084 538.962 292.495 538.318 293.718C537.675 294.94 536.633 295.899 535.371 296.429C534.109 296.96 532.705 297.03 531.398 296.628C530.091 296.225 528.962 295.375 528.203 294.223C527.444 293.07 527.103 291.686 527.236 290.306C527.37 288.927 527.971 287.637 528.937 286.656C529.484 286.098 530.134 285.656 530.851 285.354C531.567 285.053 532.336 284.899 533.111 284.901V284.901ZM533.111 283.969C531.761 283.969 530.441 284.375 529.318 285.137C528.195 285.898 527.32 286.981 526.803 288.247C526.286 289.514 526.151 290.907 526.415 292.251C526.678 293.596 527.328 294.831 528.283 295.8C529.238 296.769 530.455 297.429 531.779 297.697C533.104 297.964 534.476 297.827 535.724 297.302C536.972 296.778 538.038 295.889 538.788 294.75C539.539 293.61 539.939 292.27 539.939 290.899C539.94 289.989 539.764 289.087 539.421 288.246C539.078 287.405 538.575 286.641 537.941 285.997C537.307 285.353 536.554 284.843 535.725 284.495C534.896 284.147 534.008 283.968 533.111 283.969V283.969Z" fill="#5A5773"/>
<path d="M533.201 290.173C533.201 289.876 533.201 289.501 533.242 289.205H533.201C533.034 289.465 532.843 289.725 532.676 289.985L531.483 291.565H534.709V292.201H530.648V291.692L533.069 288.46H533.958V293.605H533.219L533.201 290.173Z" fill="#5A5773"/>
<path d="M517.553 286.941C517.67 286.824 517.828 286.759 517.991 286.759C518.155 286.759 518.313 286.824 518.43 286.941L521.507 290.076C521.564 290.133 521.61 290.2 521.642 290.275C521.673 290.35 521.689 290.431 521.689 290.512C521.689 290.593 521.673 290.674 521.642 290.749C521.61 290.824 521.564 290.891 521.507 290.948L518.477 294.035C518.422 294.097 518.353 294.147 518.277 294.181C518.201 294.215 518.119 294.233 518.036 294.233C517.953 294.233 517.871 294.215 517.795 294.181C517.719 294.147 517.651 294.097 517.595 294.035C517.534 293.978 517.486 293.909 517.453 293.833C517.42 293.756 517.403 293.673 517.403 293.59C517.403 293.506 517.42 293.424 517.453 293.347C517.486 293.27 517.534 293.202 517.595 293.145L520.195 290.482L517.553 287.831C517.492 287.774 517.443 287.705 517.409 287.628C517.375 287.55 517.358 287.467 517.358 287.383C517.358 287.298 517.375 287.215 517.409 287.138C517.443 287.061 517.492 286.991 517.553 286.935V286.941Z" fill="#5A5773"/>
<path d="M512.306 290.482C512.303 291.829 512.695 293.148 513.431 294.269C514.168 295.391 515.215 296.266 516.441 296.783C517.668 297.299 519.018 297.435 520.32 297.173C521.623 296.911 522.819 296.262 523.758 295.309C524.697 294.356 525.336 293.141 525.595 291.819C525.853 290.497 525.719 289.127 525.21 287.882C524.701 286.638 523.839 285.574 522.734 284.827C521.629 284.08 520.33 283.682 519.002 283.684C517.227 283.686 515.524 284.403 514.269 285.677C513.013 286.951 512.307 288.679 512.306 290.482V290.482ZM513.337 290.482C513.335 289.147 513.789 287.852 514.622 286.819C515.454 285.785 516.614 285.077 517.904 284.815C519.194 284.553 520.533 284.753 521.694 285.381C522.854 286.009 523.764 287.026 524.269 288.259C524.773 289.492 524.84 290.865 524.459 292.142C524.078 293.42 523.272 294.524 522.179 295.266C521.086 296.008 519.773 296.342 518.464 296.212C517.155 296.081 515.931 295.493 515.001 294.549C514.472 294.017 514.052 293.383 513.767 292.685C513.481 291.987 513.335 291.238 513.337 290.482V290.482Z" fill="#5A5773"/>
<path opacity="0.2" d="M152.248 33.4296H21.3444C20.0731 33.4296 19.0426 34.4756 19.0426 35.766V45.5293C19.0426 46.8196 20.0731 47.8657 21.3444 47.8657H152.248C153.52 47.8657 154.55 46.8196 154.55 45.5293V35.766C154.55 34.4756 153.52 33.4296 152.248 33.4296Z" fill="#5A5773"/>
<defs>
<linearGradient id="paint0_linear" x1="283.647" y1="325.988" x2="283.647" y2="0.143494" gradientUnits="userSpaceOnUse">
<stop stop-color="#808080" stop-opacity="0.25"/>
<stop offset="0.54" stop-color="#808080" stop-opacity="0.12"/>
<stop offset="1" stop-color="#808080" stop-opacity="0.1"/>
</linearGradient>
</defs>
</svg>
