<svg width="434" height="386" viewBox="0 0 434 386" fill="none" xmlns="http://www.w3.org/2000/svg">
<path d="M57.727 143C57.004 143.001 56.3108 143.288 55.7996 143.8C55.2884 144.311 55.0008 145.004 55 145.727V238.739C55.0008 239.462 55.2884 240.155 55.7996 240.666C56.3108 241.178 57.004 241.465 57.727 241.466H374.884C375.607 241.465 376.3 241.178 376.811 240.666C377.323 240.155 377.61 239.462 377.611 238.739V145.727C377.61 145.004 377.323 144.311 376.811 143.8C376.3 143.288 375.607 143.001 374.884 143H57.727Z" fill="#E6E6E6"/>
<path d="M61.834 234.633H370.777V149.833H61.834V234.633Z" fill="white"/>
<path d="M331.78 217.042C330.582 217.042 329.433 217.518 328.586 218.365C327.738 219.212 327.262 220.361 327.262 221.559C327.262 222.758 327.738 223.907 328.586 224.754C329.433 225.601 330.582 226.077 331.78 226.077H349.847C351.045 226.077 352.194 225.601 353.041 224.754C353.889 223.907 354.365 222.758 354.365 221.559C354.365 220.361 353.889 219.212 353.041 218.365C352.194 217.518 351.045 217.042 349.847 217.042H331.778H331.78Z" fill="#6C63FF"/>
<path d="M354.367 208.279H145.779V209.468H354.367V208.279Z" fill="#E6E6E6"/>
<path d="M102.177 218.545C116.708 218.545 128.488 206.765 128.488 192.234C128.488 177.703 116.708 165.923 102.177 165.923C87.6458 165.923 75.866 177.703 75.866 192.234C75.866 206.765 87.6458 218.545 102.177 218.545Z" fill="#6C63FF"/>
<path d="M146.109 201.642L145.449 200.653L167.124 186.203L181.988 193.338L203.367 179.679L203.656 179.802L245.895 197.821L279.763 181.184L312.65 194.516L353.973 157.916L354.761 158.806L312.886 195.892L279.809 182.482L245.93 199.124L203.478 181.015L182.07 194.692L167.224 187.567L146.109 201.642Z" fill="#3F3D56"/>
<path d="M149.642 217.663C149.135 217.655 148.631 217.747 148.159 217.933C147.687 218.12 147.257 218.397 146.892 218.75C146.528 219.103 146.236 219.524 146.035 219.989C145.833 220.455 145.725 220.956 145.717 221.463C145.708 221.97 145.8 222.474 145.987 222.946C146.173 223.417 146.451 223.848 146.803 224.212C147.156 224.577 147.577 224.868 148.043 225.07C148.508 225.272 149.009 225.38 149.516 225.388C149.558 225.389 149.6 225.389 149.642 225.388H190.052C191.066 225.372 192.032 224.958 192.743 224.235C193.454 223.513 193.853 222.539 193.853 221.526C193.853 220.512 193.454 219.539 192.743 218.816C192.032 218.094 191.066 217.679 190.052 217.663H149.642Z" fill="#E6E6E6"/>
<path d="M91.5935 192.561C91.74 192.707 91.914 192.824 92.1054 192.903C92.2969 192.982 92.5021 193.023 92.7093 193.023C92.9165 193.023 93.1217 192.982 93.3131 192.903C93.5046 192.824 93.6786 192.707 93.8251 192.561L100.599 185.787V202.491C100.599 202.909 100.765 203.31 101.061 203.606C101.357 203.902 101.758 204.069 102.177 204.069C102.595 204.069 102.997 203.902 103.293 203.606C103.589 203.31 103.755 202.909 103.755 202.491V185.787L110.529 192.561C110.675 192.707 110.849 192.824 111.041 192.903C111.232 192.982 111.437 193.023 111.644 193.023C111.852 193.023 112.057 192.982 112.248 192.903C112.44 192.824 112.614 192.708 112.76 192.561C112.907 192.414 113.023 192.241 113.102 192.049C113.182 191.858 113.222 191.652 113.222 191.445C113.222 191.238 113.182 191.033 113.102 190.841C113.023 190.65 112.907 190.476 112.76 190.329L103.293 180.862C102.997 180.566 102.595 180.4 102.177 180.4C101.758 180.4 101.357 180.566 101.061 180.862L91.5935 190.329C91.2976 190.625 91.1313 191.027 91.1313 191.445C91.1313 191.864 91.2976 192.265 91.5935 192.561Z" fill="white"/>
<path d="M2.72699 287C2.00399 287.001 1.31083 287.288 0.799591 287.8C0.288351 288.311 0.000794072 289.004 0 289.727V382.739C0.000794072 383.462 0.288351 384.155 0.799591 384.666C1.31083 385.178 2.00399 385.465 2.72699 385.466H319.883C320.606 385.465 321.299 385.178 321.81 384.666C322.322 384.155 322.609 383.462 322.61 382.739V289.727C322.609 289.004 322.322 288.311 321.81 287.8C321.299 287.288 320.606 287.001 319.883 287H2.72699Z" fill="#E6E6E6"/>
<path d="M6.83398 378.633H315.777V293.833H6.83398V378.633Z" fill="white"/>
<path d="M276.779 361.041C275.581 361.041 274.432 361.517 273.585 362.364C272.737 363.211 272.261 364.36 272.261 365.559C272.261 366.757 272.737 367.906 273.585 368.753C274.432 369.6 275.581 370.076 276.779 370.076H294.848C296.046 370.076 297.195 369.6 298.042 368.753C298.89 367.906 299.365 366.757 299.365 365.559C299.365 364.36 298.89 363.211 298.042 362.364C297.195 361.517 296.046 361.041 294.848 361.041H276.779Z" fill="#6C63FF"/>
<path d="M299.366 352.279H90.7781V353.468H299.366V352.279Z" fill="#E6E6E6"/>
<path d="M47.177 362.544C61.7081 362.544 73.488 350.764 73.488 336.233C73.488 321.702 61.7081 309.922 47.177 309.922C32.6458 309.922 20.866 321.702 20.866 336.233C20.866 350.764 32.6458 362.544 47.177 362.544Z" fill="#6C63FF"/>
<path d="M91.108 345.642L90.449 344.653L112.124 330.202L126.987 337.337L148.367 323.674L190.895 341.815L224.762 325.178L257.645 338.515L298.968 321.915L299.756 322.805L257.886 339.894L224.809 326.484L190.93 343.126L148.478 325.017L127.071 338.695L112.221 331.567L91.108 345.642Z" fill="#3F3D56"/>
<path d="M94.6409 361.662C93.6273 361.678 92.6607 362.092 91.9496 362.815C91.2386 363.538 90.8401 364.511 90.8401 365.524C90.8401 366.538 91.2386 367.511 91.9496 368.234C92.6607 368.957 93.6273 369.371 94.6409 369.387H135.051C136.075 369.404 137.064 369.013 137.801 368.3C138.537 367.588 138.96 366.612 138.976 365.587C138.993 364.563 138.602 363.574 137.889 362.838C137.177 362.102 136.201 361.679 135.177 361.662C135.135 361.661 135.093 361.661 135.051 361.662H94.6409Z" fill="#E6E6E6"/>
<path d="M36.5935 336.56C36.74 336.706 36.914 336.823 37.1054 336.902C37.2969 336.981 37.5021 337.022 37.7093 337.022C37.9165 337.022 38.1217 336.981 38.3131 336.902C38.5046 336.823 38.6786 336.706 38.8251 336.56L45.5989 329.786V346.49C45.5984 346.697 45.6388 346.903 45.7179 347.095C45.797 347.287 45.9131 347.461 46.0597 347.608C46.2063 347.755 46.3804 347.871 46.5721 347.951C46.7638 348.031 46.9693 348.071 47.1769 348.071C47.3844 348.071 47.5899 348.031 47.7816 347.951C47.9734 347.871 48.1475 347.755 48.2941 347.608C48.4406 347.461 48.5568 347.287 48.6359 347.095C48.7149 346.903 48.7553 346.697 48.7548 346.49V329.786L55.5287 336.56C55.6751 336.707 55.8491 336.823 56.0406 336.903C56.2322 336.983 56.4376 337.024 56.6451 337.024C56.8526 337.024 57.058 336.984 57.2498 336.904C57.4415 336.825 57.6157 336.709 57.7624 336.562C57.9091 336.415 58.0254 336.241 58.1047 336.049C58.184 335.858 58.2247 335.652 58.2245 335.445C58.2244 335.237 58.1832 335.032 58.1036 334.84C58.0239 334.649 57.9072 334.475 57.7603 334.328L48.2927 324.861C47.9967 324.565 47.5954 324.399 47.1769 324.399C46.7584 324.399 46.357 324.565 46.0611 324.861L36.5935 334.328C36.2976 334.624 36.1313 335.026 36.1313 335.444C36.1313 335.863 36.2976 336.264 36.5935 336.56Z" fill="white"/>
<path d="M113.727 6.10352e-05C113.004 0.000855107 112.311 0.28842 111.8 0.79966C111.288 1.3109 111.001 2.00406 111 2.72706V95.7391C111.001 96.4621 111.288 97.1552 111.8 97.6665C112.311 98.1777 113.004 98.4653 113.727 98.4661H430.883C431.606 98.4653 432.299 98.1777 432.81 97.6665C433.322 97.1552 433.609 96.4621 433.61 95.7391V2.72706C433.609 2.00406 433.322 1.3109 432.81 0.79966C432.299 0.28842 431.606 0.000855107 430.883 6.10352e-05H113.727Z" fill="#E6E6E6"/>
<path d="M117.833 91.6331H426.775V6.83307H117.833V91.6331Z" fill="white"/>
<path d="M387.779 74.04C386.581 74.04 385.432 74.516 384.585 75.3632C383.737 76.2104 383.261 77.3594 383.261 78.5575C383.261 79.7556 383.737 80.9047 384.585 81.7519C385.432 82.5991 386.581 83.075 387.779 83.075H405.848C407.046 83.075 408.195 82.5991 409.042 81.7519C409.889 80.9047 410.365 79.7556 410.365 78.5575C410.365 77.3594 409.889 76.2104 409.042 75.3632C408.195 74.516 407.046 74.04 405.848 74.04H387.779Z" fill="#6C63FF"/>
<path d="M410.366 65.2781H201.778V66.4671H410.366V65.2781Z" fill="#E6E6E6"/>
<path d="M158.177 75.5441C172.708 75.5441 184.488 63.7642 184.488 49.2331C184.488 34.7019 172.708 22.9221 158.177 22.9221C143.646 22.9221 131.866 34.7019 131.866 49.2331C131.866 63.7642 143.646 75.5441 158.177 75.5441Z" fill="#E6E6E6"/>
<path d="M202.11 58.6411L201.451 57.6521L223.126 43.2021L237.989 50.3371L259.368 36.6781L259.657 36.8011L301.897 54.8201L335.764 38.1831L368.651 51.5161L409.974 59.9161L410.762 60.8061L368.887 52.8951L335.81 39.4841L301.93 56.1261L259.478 38.0171L238.07 51.6941L223.22 44.5661L202.11 58.6411Z" fill="#3F3D56"/>
<path d="M205.641 74.6631C204.627 74.6794 203.661 75.0935 202.95 75.8161C202.239 76.5387 201.84 77.5118 201.84 78.5256C201.84 79.5394 202.239 80.5125 202.95 81.2351C203.661 81.9577 204.627 82.3718 205.641 82.3881H246.051C247.074 82.4032 248.062 82.0114 248.797 81.2988C249.532 80.5862 249.954 79.611 249.97 78.5875C249.987 77.5639 249.596 76.5757 248.885 75.8399C248.173 75.1041 247.198 74.6808 246.175 74.6631C246.134 74.6624 246.092 74.6624 246.051 74.6631H205.641Z" fill="#E6E6E6"/>
<path d="M168.76 48.9063C168.614 48.7598 168.44 48.6435 168.248 48.5642C168.057 48.4849 167.852 48.4441 167.644 48.4441C167.437 48.4441 167.232 48.4849 167.041 48.5642C166.849 48.6435 166.675 48.7598 166.529 48.9063L159.755 55.6801V38.9766C159.754 38.5588 159.587 38.1584 159.291 37.8634C158.995 37.5683 158.595 37.4026 158.177 37.4026C157.759 37.4026 157.358 37.5683 157.062 37.8634C156.767 38.1584 156.6 38.5588 156.599 38.9766V55.6801L149.825 48.9063C149.679 48.7593 149.505 48.6426 149.313 48.563C149.121 48.4833 148.916 48.4422 148.709 48.442C148.501 48.4418 148.296 48.4825 148.104 48.5618C147.912 48.6411 147.738 48.7574 147.591 48.9041C147.445 49.0508 147.328 49.225 147.249 49.4167C147.17 49.6085 147.129 49.8139 147.129 50.0214C147.129 50.2289 147.17 50.4343 147.25 50.6259C147.33 50.8174 147.446 50.9914 147.593 51.1378L157.061 60.6054C157.357 60.9013 157.758 61.0676 158.177 61.0676C158.595 61.0676 158.997 60.9013 159.293 60.6054L168.76 51.1378C169.056 50.8419 169.222 50.4406 169.222 50.0221C169.222 49.6036 169.056 49.2022 168.76 48.9063Z" fill="white"/>
</svg>
