<svg width="335" height="103" viewBox="0 0 335 103" fill="none" xmlns="http://www.w3.org/2000/svg">
<path d="M2.83171 0C2.08095 0.000824566 1.36117 0.299425 0.830297 0.830297C0.299425 1.36117 0.000824566 2.08096 0 2.83173V99.4156C0.000824566 100.166 0.299425 100.886 0.830297 101.417C1.36117 101.948 2.08095 102.247 2.83171 102.247H332.168C332.919 102.247 333.639 101.948 334.17 101.417C334.701 100.886 334.999 100.166 335 99.4156V2.83173C334.999 2.08096 334.701 1.36117 334.17 0.830297C333.639 0.299425 332.919 0.000824566 332.168 0H2.83171Z" fill="#E6E6E6"/>
<path d="M7.09644 95.1518H327.904V7.09534H7.09644V95.1518Z" fill="white"/>
<path d="M287.409 76.8852C286.165 76.8852 284.972 77.3794 284.092 78.2592C283.212 79.1389 282.718 80.332 282.718 81.5762C282.718 82.8203 283.212 84.0135 284.092 84.8932C284.972 85.7729 286.165 86.2672 287.409 86.2672H306.17C307.414 86.2672 308.607 85.7729 309.487 84.8932C310.367 84.0135 310.861 82.8203 310.861 81.5762C310.861 80.332 310.367 79.1389 309.487 78.2592C308.607 77.3794 307.414 76.8852 306.17 76.8852H287.407H287.409Z" fill="#6C63FF"/>
<path d="M310.863 67.7859H94.2649V69.0205H310.863V67.7859Z" fill="#E6E6E6"/>
<path d="M48.9886 78.446C64.0778 78.446 76.3101 66.2138 76.3101 51.1246C76.3101 36.0354 64.0778 23.8032 48.9886 23.8032C33.8995 23.8032 21.6672 36.0354 21.6672 51.1246C21.6672 66.2138 33.8995 78.446 48.9886 78.446Z" fill="#6C63FF"/>
<path d="M94.6077 60.8939L93.9224 59.867L116.43 44.862L131.865 52.2711L154.065 38.0875L154.365 38.2152L198.226 56.9262L233.394 39.6503L267.544 53.4943L310.454 15.4888L311.272 16.4129L267.789 54.9231L233.442 40.9982L198.262 58.2793L154.18 39.4748L131.95 53.6771L116.534 46.2784L94.6077 60.8939Z" fill="#3F3D56"/>
<path d="M98.2764 77.5303C97.7497 77.5217 97.2264 77.6169 96.7365 77.8106C96.2466 78.0042 95.7997 78.2924 95.4212 78.6588C95.0427 79.0252 94.74 79.4626 94.5305 79.9459C94.3211 80.4292 94.2088 80.9491 94.2002 81.4758C94.1917 82.0025 94.2869 82.5257 94.4806 83.0156C94.6742 83.5055 94.9624 83.9525 95.3288 84.331C95.6952 84.7095 96.1325 85.0121 96.6159 85.2216C97.0992 85.4311 97.6191 85.5433 98.1458 85.5519C98.1893 85.5526 98.2328 85.5526 98.2764 85.5519H140.238C141.291 85.535 142.295 85.105 143.033 84.3546C143.771 83.6043 144.185 82.5938 144.185 81.5411C144.185 80.4884 143.771 79.4779 143.033 78.7275C142.295 77.9772 141.291 77.5472 140.238 77.5303H98.2764Z" fill="#E6E6E6"/>
<path d="M37.9989 51.4639C38.1511 51.6161 38.3317 51.7368 38.5305 51.8191C38.7293 51.9015 38.9424 51.9438 39.1576 51.9438C39.3728 51.9438 39.5858 51.9015 39.7846 51.8191C39.9834 51.7368 40.1641 51.6161 40.3162 51.4639L47.3502 44.43V61.775C47.3502 62.2095 47.5228 62.6263 47.8301 62.9336C48.1374 63.2409 48.5542 63.4135 48.9887 63.4135C49.4233 63.4135 49.8401 63.2409 50.1474 62.9336C50.4547 62.6263 50.6273 62.2095 50.6273 61.775V44.43L57.6613 51.4639C57.8134 51.6161 57.9941 51.7368 58.1929 51.8191C58.3917 51.9015 58.6047 51.9439 58.8199 51.9439C59.0351 51.9439 59.2482 51.9016 59.447 51.8192C59.6458 51.7369 59.8265 51.6162 59.9786 51.464C60.1308 51.3118 60.2515 51.1312 60.3338 50.9324C60.4162 50.7336 60.4585 50.5205 60.4585 50.3053C60.4585 50.0902 60.4161 49.8771 60.3338 49.6783C60.2514 49.4795 60.1307 49.2989 59.9785 49.1467L50.1474 39.3155C49.8401 39.0083 49.4233 38.8356 48.9887 38.8356C48.5542 38.8356 48.1374 39.0083 47.8301 39.3155L37.9989 49.1467C37.6917 49.454 37.519 49.8707 37.519 50.3053C37.519 50.7399 37.6917 51.1566 37.9989 51.4639V51.4639Z" fill="white"/>
</svg>
