<svg width="224" height="201" viewBox="0 0 224 201" fill="none" xmlns="http://www.w3.org/2000/svg">
<g clip-path="url(#clip0)">
<path d="M221.942 76.8648C221.862 76.8648 221.784 76.8402 221.718 76.7944L113.081 1.13607C112.75 0.906895 112.357 0.784422 111.955 0.785108C111.553 0.785794 111.16 0.909605 110.83 1.1399L2.97532 76.7936C2.89001 76.8534 2.78443 76.8769 2.6818 76.8589C2.57916 76.8409 2.48789 76.7829 2.42805 76.6976C2.36821 76.6123 2.34471 76.5067 2.36273 76.404C2.38074 76.3014 2.43879 76.2101 2.5241 76.1503L110.379 0.496584C110.841 0.174217 111.39 0.000929261 111.954 3.7269e-06C112.517 -0.000921807 113.067 0.170558 113.53 0.491405L222.167 76.1495C222.236 76.1973 222.287 76.2658 222.314 76.345C222.341 76.4242 222.342 76.5099 222.317 76.5897C222.292 76.6695 222.242 76.7392 222.175 76.7887C222.108 76.8381 222.026 76.8648 221.942 76.8648L221.942 76.8648Z" fill="#3F3D56"/>
<path d="M9.13855 79.5468L112.062 3.26807L215.766 84.9744L117.365 143.308L63.9415 131.131L9.13855 79.5468Z" fill="#E6E6E6"/>
<path d="M68.4508 179.338H17.6042C17.292 179.338 16.9828 179.277 16.6942 179.158C16.4056 179.039 16.1434 178.864 15.9225 178.643C15.7016 178.423 15.5263 178.161 15.4068 177.872C15.2872 177.584 15.2256 177.275 15.2256 176.962C15.2256 176.65 15.2872 176.341 15.4068 176.053C15.5263 175.764 15.7016 175.502 15.9225 175.282C16.1434 175.061 16.4056 174.886 16.6942 174.767C16.9828 174.648 17.292 174.587 17.6042 174.587H68.4508C68.763 174.587 69.0723 174.648 69.3608 174.767C69.6494 174.886 69.9116 175.061 70.1325 175.282C70.3535 175.502 70.5287 175.764 70.6483 176.053C70.7679 176.341 70.8294 176.65 70.8294 176.962C70.8294 177.275 70.7679 177.584 70.6483 177.872C70.5287 178.161 70.3535 178.423 70.1325 178.643C69.9116 178.864 69.6494 179.039 69.3608 179.158C69.0723 179.277 68.763 179.338 68.4508 179.338V179.338Z" fill="#6C63FF"/>
<path d="M35.8469 169.125H17.6042C17.292 169.125 16.9828 169.064 16.6942 168.945C16.4056 168.826 16.1434 168.651 15.9225 168.43C15.7016 168.21 15.5263 167.948 15.4068 167.659C15.2872 167.371 15.2256 167.062 15.2256 166.75C15.2256 166.437 15.2872 166.128 15.4068 165.84C15.5263 165.551 15.7016 165.289 15.9225 165.069C16.1434 164.848 16.4056 164.673 16.6942 164.554C16.9828 164.435 17.292 164.374 17.6042 164.374H35.8469C36.1591 164.374 36.4683 164.435 36.7569 164.554C37.0454 164.673 37.3077 164.848 37.5286 165.069C37.7495 165.289 37.9247 165.551 38.0443 165.84C38.1639 166.128 38.2254 166.437 38.2254 166.75C38.2254 167.062 38.1639 167.371 38.0443 167.659C37.9247 167.948 37.7495 168.21 37.5286 168.43C37.3077 168.651 37.0454 168.826 36.7569 168.945C36.4683 169.064 36.1591 169.125 35.8469 169.125Z" fill="#6C63FF"/>
<path d="M113.509 122.033C113.123 122.033 112.74 121.958 112.382 121.812L48.906 95.474V13.0315C48.9069 12.3025 49.1968 11.6035 49.7123 11.0881C50.2278 10.5726 50.9267 10.2826 51.6557 10.2817H173.43C174.159 10.2826 174.858 10.5726 175.373 11.0881C175.889 11.6035 176.178 12.3025 176.179 13.0315V95.5315L176.06 95.5825L114.67 121.799C114.303 121.954 113.908 122.033 113.509 122.033Z" fill="white"/>
<path d="M113.509 122.23C113.097 122.23 112.689 122.15 112.307 121.994L48.7097 95.6058V13.0321C48.7105 12.251 49.0212 11.5021 49.5735 10.9498C50.1259 10.3975 50.8747 10.0868 51.6558 10.0859H173.43C174.211 10.0868 174.96 10.3975 175.512 10.9498C176.064 11.5021 176.375 12.251 176.376 13.0321V95.6618L114.747 121.98C114.355 122.145 113.934 122.23 113.509 122.23V122.23ZM49.4953 95.081L112.607 121.268C113.195 121.507 113.855 121.503 114.44 121.257L175.59 95.1431V13.0321C175.59 12.4593 175.362 11.9101 174.957 11.5051C174.552 11.1001 174.002 10.8723 173.43 10.8716H51.6558C51.083 10.8723 50.5339 11.1001 50.1289 11.5051C49.7238 11.9101 49.496 12.4593 49.4953 13.0321L49.4953 95.081Z" fill="#3F3D56"/>
<path d="M221.157 76.0791H221.078L175.983 95.3351L114.283 121.681C114.042 121.783 113.783 121.836 113.522 121.837C113.26 121.838 113.001 121.788 112.759 121.689L49.1024 95.2801L2.89896 76.1105L2.82837 76.0791H2.74973C2.02071 76.0799 1.32177 76.3699 0.806269 76.8854C0.290769 77.4009 0.000808913 78.0998 0 78.8288V198.246C0.00080995 198.975 0.29077 199.674 0.806269 200.189C1.32177 200.705 2.02071 200.995 2.74973 200.996H221.157C221.886 200.995 222.585 200.705 223.101 200.189C223.616 199.674 223.906 198.975 223.907 198.246V78.8288C223.906 78.0998 223.616 77.4009 223.101 76.8854C222.585 76.3699 221.886 76.0799 221.157 76.0791V76.0791ZM223.121 198.246C223.121 198.767 222.914 199.266 222.546 199.634C222.177 200.003 221.678 200.21 221.157 200.21H2.74973C2.22889 200.21 1.72943 200.003 1.36114 199.634C0.992846 199.266 0.785846 198.767 0.785638 198.246V78.8288C0.78635 78.3209 0.983368 77.8329 1.3355 77.4669C1.68763 77.1009 2.16761 76.8851 2.67512 76.8647L49.1024 96.1286L112.456 122.416C113.142 122.695 113.911 122.691 114.593 122.404L175.983 96.1875L221.236 76.8647C221.742 76.8866 222.221 77.103 222.572 77.4688C222.923 77.8346 223.12 78.3217 223.121 78.8288V198.246Z" fill="#3F3D56"/>
<path d="M112.875 98.6554C110.531 98.6597 108.25 97.902 106.375 96.4964L106.259 96.4091L81.7819 77.6687C80.6483 76.8001 79.6969 75.7168 78.982 74.4806C78.2671 73.2444 77.8027 71.8794 77.6153 70.4637C77.4279 69.048 77.5212 67.6092 77.8898 66.2296C78.2584 64.8499 78.8952 63.5563 79.7637 62.4228C80.6323 61.2892 81.7156 60.3378 82.9519 59.6229C84.1881 58.908 85.553 58.4435 86.9688 58.2561C88.3845 58.0687 89.8232 58.162 91.2029 58.5307C92.5826 58.8993 93.8761 59.5361 95.0097 60.4046L110.864 72.5615L148.33 23.7C149.199 22.5667 150.283 21.6157 151.519 20.9012C152.756 20.1867 154.121 19.7228 155.537 19.5359C156.952 19.349 158.391 19.4428 159.771 19.812C161.15 20.1811 162.444 20.8184 163.577 21.6874L163.344 22.0037L163.583 21.692C165.869 23.4489 167.365 26.0408 167.742 28.8992C168.119 31.7575 167.347 34.6488 165.595 36.9387L121.526 94.4115C120.507 95.7358 119.196 96.8076 117.696 97.5436C116.196 98.2796 114.546 98.66 112.875 98.6554V98.6554Z" fill="#6C63FF"/>
</g>
<defs>
<clipPath id="clip0">
<rect width="223.907" height="200.996" fill="white"/>
</clipPath>
</defs>
</svg>
