<svg width="320" height="207" viewBox="0 0 320 207" fill="none" xmlns="http://www.w3.org/2000/svg">
<path d="M320 204.66H0V207H320V204.66Z" fill="#85848B"/>
<path d="M253.523 163.348C253.523 165.148 243.038 170.395 230.584 170.395C218.129 170.395 208.425 165.148 208.425 163.348C208.425 161.548 218.519 162.128 230.986 162.128C243.453 162.128 253.523 161.545 253.523 163.348Z" fill="#504F60"/>
<path opacity="0.2" d="M253.523 163.348C253.523 165.148 243.038 170.395 230.584 170.395C218.129 170.395 208.425 165.148 208.425 163.348" fill="black"/>
<path d="M128.097 130.324C130.118 130.583 132.216 130.748 134.152 130.12C134.457 130.025 134.792 129.815 134.762 129.51C134.74 129.399 134.693 129.294 134.625 129.205C133.895 128.109 133.282 126.941 132.795 125.718C132.776 125.654 132.736 125.598 132.682 125.559C132.619 125.536 132.55 125.536 132.487 125.559C131.594 125.794 130.823 126.371 129.935 126.618C129.483 126.742 129.011 126.777 128.545 126.721C128.143 126.676 127.594 126.343 127.228 126.386C127.435 127.719 127.941 128.964 128.097 130.324Z" fill="#6C63FF"/>
<path d="M166.326 126.947C167.659 126.032 169.04 125.071 169.826 123.659C169.882 123.574 169.915 123.476 169.921 123.375C169.907 123.275 169.869 123.181 169.808 123.101C169.059 121.909 168.094 120.867 166.963 120.029C166.374 120.446 165.841 120.938 165.378 121.493C165.043 121.847 164.116 122.408 164.107 122.948C164.107 123.253 164.46 123.607 164.625 123.863C164.848 124.193 165.058 124.528 165.259 124.87C165.375 125.038 166.433 126.88 166.326 126.947Z" fill="#6C63FF"/>
<path d="M136.021 134.409C136.045 134.723 135.958 135.036 135.777 135.293C135.635 135.436 135.458 135.541 135.265 135.598C132.439 136.611 129.167 135.348 126.347 136.346C125.768 136.55 125.219 136.846 124.637 137.041C123.942 137.25 123.226 137.377 122.502 137.419C121.505 137.514 120.502 137.575 119.502 137.602C118.742 137.656 117.979 137.589 117.24 137.404C116.871 137.309 116.525 137.138 116.226 136.901C115.927 136.664 115.682 136.367 115.505 136.028C115.352 135.725 115.321 135.374 115.42 135.049C115.464 134.938 115.527 134.834 115.606 134.744C115.797 134.53 116.021 134.347 116.271 134.204L117.31 133.533C117.798 133.188 118.327 132.907 118.886 132.697C119.298 132.563 119.734 132.505 120.152 132.392C121.612 131.965 122.728 130.806 123.765 129.693L125.179 128.183C125.311 128.016 125.479 127.882 125.67 127.789C125.866 127.724 126.075 127.704 126.28 127.731C127.654 127.829 128.981 128.274 130.137 129.025C130.432 129.246 130.751 129.434 131.088 129.586C131.917 129.909 132.981 129.665 133.746 129.256C134.109 129.061 134.03 128.951 134.182 128.604C134.335 128.256 134.707 128.033 135.03 128.35C135.128 128.46 135.197 128.592 135.231 128.735C135.536 129.741 135.42 130.824 135.42 131.88C135.411 132.045 135.432 132.21 135.481 132.368C135.559 132.527 135.652 132.678 135.759 132.819C135.78 132.857 135.8 132.895 135.817 132.935C136.003 133.402 136.073 133.908 136.021 134.409Z" fill="#514E7F"/>
<path d="M136.021 134.409C136.045 134.723 135.958 135.036 135.777 135.293C135.635 135.436 135.459 135.541 135.265 135.598C132.439 136.611 129.167 135.348 126.347 136.346C125.768 136.55 125.219 136.846 124.637 137.041C123.942 137.25 123.226 137.377 122.502 137.419C121.505 137.514 120.502 137.575 119.502 137.602C118.742 137.656 117.979 137.589 117.24 137.404C116.871 137.309 116.525 137.138 116.226 136.901C115.927 136.664 115.682 136.367 115.505 136.028C115.352 135.725 115.321 135.374 115.42 135.049C115.464 134.938 115.527 134.834 115.606 134.744C115.771 135.089 115.889 135.546 115.993 135.711C116.133 135.955 116.324 136.167 116.552 136.331C116.78 136.496 117.041 136.61 117.316 136.666C117.729 136.691 118.143 136.638 118.536 136.51C121.097 135.876 123.819 135.867 126.28 134.906C127.124 134.573 127.929 134.131 128.817 133.93C129.704 133.728 130.646 133.783 131.56 133.707C133.006 133.591 134.405 133.155 135.829 132.926C136.013 133.397 136.079 133.906 136.021 134.409Z" fill="#464353"/>
<path d="M172.799 126.761C172.665 127.835 171.985 128.759 171.238 129.543C170.491 130.327 169.646 131.032 169.052 131.935C168.32 133.054 167.991 134.442 167.04 135.388C166.675 135.732 166.264 136.024 165.82 136.257C165.323 136.551 164.797 136.793 164.25 136.98C162.829 137.435 161.299 137.331 159.814 137.221C159.332 137.216 158.855 137.124 158.405 136.95C158.201 136.846 158.005 136.725 157.82 136.59C157.448 136.36 157.135 136.047 156.905 135.675C156.793 135.472 156.761 135.234 156.817 135.01C156.902 134.762 157.048 134.539 157.241 134.363C157.575 134.015 157.933 133.692 158.314 133.396C158.836 133.059 159.306 132.648 159.71 132.176C159.958 131.803 160.141 131.39 160.25 130.955C160.466 130.194 160.598 129.412 160.643 128.622C160.642 128.097 160.696 127.573 160.805 127.06C161.03 126.255 161.628 125.535 161.561 124.702C161.534 124.583 161.544 124.458 161.591 124.345C161.662 124.257 161.761 124.196 161.872 124.171C162.338 123.985 162.829 123.871 163.329 123.833C163.58 123.815 163.832 123.854 164.066 123.946C164.3 124.038 164.511 124.18 164.683 124.363C164.89 124.614 165.027 124.974 165.332 125.071C165.483 125.112 165.642 125.119 165.796 125.089C166.546 125.013 167.338 124.919 167.93 124.434C168.203 124.188 168.423 123.889 168.575 123.555C168.727 123.22 168.809 122.858 168.814 122.491C168.814 122.213 168.689 121.923 169.119 121.88C169.442 121.838 169.698 122.185 169.863 122.399C170.457 123.195 171.067 124.028 171.29 124.998C171.376 124.964 171.468 124.947 171.561 124.946C171.751 124.944 171.939 124.989 172.108 125.075C172.278 125.162 172.424 125.288 172.534 125.443C172.777 125.837 172.871 126.304 172.799 126.761Z" fill="#514E7F"/>
<path d="M172.799 126.761C172.665 127.835 171.985 128.759 171.238 129.543C170.491 130.327 169.646 131.032 169.052 131.935C168.32 133.054 167.991 134.442 167.04 135.388C166.675 135.732 166.264 136.024 165.82 136.257C165.323 136.551 164.797 136.793 164.25 136.98C162.829 137.435 161.299 137.331 159.814 137.221C159.332 137.217 158.855 137.125 158.405 136.95C158.201 136.846 158.005 136.725 157.82 136.59C157.448 136.36 157.135 136.047 156.905 135.675C157.191 135.537 157.503 135.462 157.82 135.455C158.479 135.492 158.96 136.114 159.591 136.306C160.491 136.578 161.387 135.943 162.299 135.726C162.893 135.586 163.518 135.623 164.107 135.421C164.597 135.232 165.05 134.957 165.445 134.61C165.987 134.223 166.468 133.758 166.875 133.231C167.213 132.704 167.494 132.143 167.714 131.556C168.195 130.433 168.762 129.348 169.409 128.311C169.504 128.147 169.62 127.995 169.753 127.859C169.896 127.728 170.058 127.637 170.22 127.521C170.829 127.06 171.082 126.301 171.296 125.556C171.354 125.33 171.434 125.11 171.537 124.9C171.727 124.899 171.915 124.943 172.084 125.03C172.253 125.116 172.399 125.242 172.509 125.398C172.772 125.8 172.875 126.286 172.799 126.761Z" fill="#464353"/>
<path d="M108.868 31.6545C109.627 32.2234 110.251 32.9524 110.697 33.7898C111.124 34.6256 113.585 41.1108 113.441 42.0534C114.243 41.2451 117.405 41.1139 118.216 40.3055C118.554 39.9669 120.38 38.277 120.655 37.8835C120.929 37.49 122.966 36.6633 123.188 36.2484C124.021 34.7568 117.286 29.1043 118.149 27.6309C118.196 27.5632 118.221 27.4819 118.219 27.3991C118.199 27.3296 118.16 27.2671 118.106 27.2191C117.554 26.6548 116.822 26.304 116.158 25.8861C115.493 25.4682 114.853 24.8855 114.673 24.1168C114.039 24.4087 113.457 24.8024 112.95 25.2821C111.715 26.3416 110.5 27.4225 109.307 28.5247C108.841 28.9579 107.938 29.5344 107.722 30.1536C107.466 30.8186 108.423 31.2915 108.868 31.6545Z" fill="#A1616A"/>
<path d="M119.771 29.2538C118.737 29.9485 117.772 30.739 116.886 31.6148C116.051 32.4415 115.258 33.3993 115.057 34.5555C114.972 35.01 114.984 35.4706 114.914 35.9312C114.609 37.9292 112.883 39.3935 112.121 41.2634C111.9 41.8405 111.738 42.4383 111.636 43.0479C111.422 44.2034 111.305 45.3748 111.286 46.5498C111.267 47.6876 112.383 48.4716 112.792 49.5331C113.2 50.5947 113.31 51.6867 113.517 52.7757C113.908 54.8317 114.624 56.8145 115.347 58.7851C116.85 62.9398 121.722 74.4247 123.225 78.5825C127.832 77.4264 140.094 74.7694 144.173 72.3321C145.533 71.5207 134.737 62.3663 136.192 61.7349C136.275 61.722 136.354 61.6898 136.422 61.6411C136.491 61.5924 136.547 61.5284 136.587 61.4541C136.626 61.3798 136.648 61.2974 136.651 61.2132C136.653 61.1291 136.636 61.0456 136.6 60.9692C135.146 54.606 130.597 49.3776 128.533 43.1821C127.816 41.0315 126.53 39.1952 125.554 37.1514C124.67 35.2998 124.197 33.2529 123.14 31.4928C122.94 31.1302 122.679 30.805 122.368 30.5319C122.104 30.3295 121.819 30.1566 121.518 30.0164C120.914 29.7236 120.353 29.5497 119.771 29.2538Z" fill="#514E7F"/>
<path d="M109.112 30.9315C113.094 30.9315 116.322 27.7016 116.322 23.7172C116.322 19.7329 113.094 16.5029 109.112 16.5029C105.13 16.5029 101.901 19.7329 101.901 23.7172C101.901 27.7016 105.13 30.9315 109.112 30.9315Z" fill="#A1616A"/>
<path d="M116.447 27.1062C116.807 26.7746 117.258 26.5597 117.742 26.49C118.226 26.4203 118.719 26.499 119.158 26.7157C119.646 26.9689 120.072 27.4814 119.963 28.0183L123.539 28.0732C124.108 28.0576 124.677 28.1098 125.234 28.2288C125.794 28.3508 126.295 28.6648 126.649 29.1164C126.691 29.1744 126.74 29.2446 126.813 29.2537C126.873 29.2546 126.931 29.2353 126.978 29.1988C127.528 28.9227 128.148 28.8166 128.758 28.8938C130.691 29.0188 132.478 29.9858 133.993 31.1938C134.267 31.3817 134.479 31.6459 134.603 31.9533C134.728 32.3591 134.579 32.8685 134.908 33.1583C134.908 36.5138 136.06 39.6496 136.829 42.9197C136.966 43.5023 137.524 44.0178 137.911 44.4754C138.389 44.9827 138.78 45.5662 139.067 46.202C139.719 47.898 138.82 49.893 139.454 51.5951C139.722 52.3151 140.24 52.9068 140.673 53.5322C141.244 54.2543 141.605 55.1197 141.716 56.0335C141.744 56.4423 141.692 56.8541 141.716 57.2537C141.757 57.8033 141.859 58.3467 142.021 58.8735C142.281 59.8578 142.553 60.841 142.838 61.8233C143.301 63.4095 143.905 65.1208 145.326 65.9658C141.896 66.5484 138.28 67.1189 135.012 65.9261C134.556 65.7705 134.123 65.554 133.725 65.2825C132.545 64.4406 131.975 63.0008 131.466 61.6403C130.899 60.115 130.323 58.5624 130.207 56.9395C130.208 56.4234 130.135 55.9097 129.99 55.4143C129.658 54.5297 128.771 53.9958 127.966 53.5047C127.057 53.0064 126.233 52.3659 125.527 51.6074C125.176 51.2253 124.907 50.7753 124.738 50.2853C124.568 49.7952 124.5 49.2755 124.539 48.7582C124.6 48.2549 124.798 47.7699 124.816 47.2635C124.835 46.7572 124.609 46.1776 124.124 46.0433C121.627 45.2868 120.435 42.3279 119.88 39.7777C119.641 38.4597 119.534 37.121 119.56 35.7817L119.527 33.1796C119.182 32.866 118.905 32.4854 118.712 32.0612C118.519 31.6369 118.415 31.1778 118.405 30.7118C118.438 30.4399 118.433 30.1648 118.389 29.8943C118.269 29.5637 118.072 29.266 117.816 29.0249C117.265 28.4588 116.803 27.8118 116.447 27.1062Z" fill="#464353"/>
<path d="M108.767 35.3547C108.685 36.16 108.868 36.9867 108.688 37.7767C108.618 38.0818 108.496 38.3868 108.408 38.6705C108.137 39.8076 108.254 41.0026 108.74 42.0656C109.225 43.1183 109.806 44.1241 110.475 45.0703C110.701 45.3933 110.887 45.7426 111.03 46.1105C111.145 46.4968 111.216 46.8949 111.243 47.2971C111.42 48.9125 111.703 50.5145 112.091 52.0924C112.432 53.459 116.31 65.1422 117.213 66.2251C117.376 66.4649 117.625 66.6338 117.908 66.698C118.112 66.7057 118.315 66.6638 118.499 66.5759L120.329 65.8743C120.484 65.8267 120.628 65.7478 120.752 65.6425C120.924 65.4421 121.017 65.1864 121.015 64.9226C121.146 63.434 117.258 51.6684 116.764 50.2622C115.271 46.016 113.283 41.9223 112.31 37.5266C112.039 36.3064 111.895 34.4273 111.002 33.4542C110.633 33.0516 110.758 33.2224 110.316 33.4329C110.093 33.5299 109.877 33.643 109.67 33.7715C109.411 33.9515 109.196 34.187 109.04 34.4609C108.883 34.7348 108.79 35.0402 108.767 35.3547Z" fill="#464353"/>
<path d="M114.319 43.4109C114.81 46.0068 115.316 48.5966 115.819 51.1925L122.978 49.3165C123.036 48.5661 122.636 47.8706 122.368 47.1812C121.716 45.5431 121.7 43.719 121.173 42.0351C120.774 40.7539 120.079 39.5765 119.703 38.2861C119.487 37.5357 119.377 36.7609 119.164 36.0013C118.935 35.2554 118.654 34.5266 118.322 33.8203C117.921 32.7959 117.396 31.8239 116.761 30.9254C115.847 31.2671 114.871 31.6636 114.35 32.4903C114.082 32.9561 113.93 33.4789 113.905 34.0155C113.78 35.6231 114.362 37.2398 114.17 38.8383C113.972 40.3605 114.022 41.9048 114.319 43.4109Z" fill="#6C63FF"/>
<path d="M123.097 77.9419C123.499 79.4671 122.917 81.0716 122.441 82.5816C121.725 84.856 121.237 87.196 120.984 89.5671C120.953 90.1705 120.832 90.7659 120.624 91.3333C120.399 91.8427 120.014 92.2728 119.752 92.7579C119.033 94.0329 119.051 95.5887 119.207 97.0468C119.31 98.0077 119.466 98.9655 119.658 99.9112C119.893 101.067 120.182 102.275 119.844 103.404C120.411 103.279 120.795 104.014 120.758 104.591C120.722 105.167 120.536 105.811 120.813 106.308C121.515 106.564 121.521 107.528 121.499 108.275C121.511 109.571 121.675 110.861 121.987 112.119C123.048 117.223 124.174 122.314 125.365 127.39C127.941 128.189 130.951 129.022 133.408 127.914C133.865 127.71 134.323 127.383 134.426 126.889C134.453 126.623 134.42 126.354 134.329 126.102L133.164 121.862C132.881 120.837 132.597 119.779 132.746 118.726C132.859 117.942 133.201 117.097 132.817 116.405C132.685 116.167 132.478 115.981 132.326 115.755C131.716 114.861 132.036 113.666 132.085 112.583C132.104 112.34 132.087 112.095 132.036 111.857C131.953 111.578 131.836 111.311 131.688 111.061C130.726 109.191 130.264 107.104 130.347 105.002C130.383 104.734 130.347 104.461 130.24 104.212C130.166 104.11 130.1 104.001 130.042 103.889C129.997 103.693 130.019 103.488 130.106 103.306C129.757 103.041 129.441 102.734 129.167 102.391C129.336 102.286 129.479 102.144 129.585 101.975C129.691 101.807 129.758 101.616 129.78 101.418C129.801 101.22 129.778 101.02 129.711 100.832C129.644 100.644 129.535 100.475 129.393 100.335C129.517 100.31 129.632 100.251 129.725 100.165C129.818 100.078 129.885 99.9675 129.918 99.8452C129.952 99.7229 129.952 99.5936 129.916 99.4717C129.881 99.3498 129.813 99.24 129.719 99.1546C129.57 99.0509 129.371 99.0052 129.265 98.8496C129.1 98.6239 129.234 98.3097 129.368 98.0687L130.079 96.7844C130.609 95.8297 130.728 94.6491 131.298 93.734C132.115 92.401 132.649 90.9154 133.176 89.4451L135.228 83.7804L136.609 84.9792C137.069 85.3309 137.455 85.7705 137.743 86.2726C137.94 86.7689 138.064 87.2907 138.112 87.8222C138.619 90.8971 140.551 93.5632 141.268 96.5923C141.426 97.2664 141.533 97.9741 141.92 98.5506C142.059 98.7277 142.183 98.9153 142.292 99.1119C142.393 99.4118 142.446 99.7259 142.448 100.042C142.512 100.662 142.708 101.26 143.024 101.797C143.34 102.334 143.767 102.797 144.277 103.154C144.957 103.62 145.802 103.941 146.17 104.679C146.244 104.908 146.347 105.126 146.475 105.329C146.805 105.725 147.515 105.771 147.655 106.268C147.735 106.546 147.588 106.878 147.744 107.122C147.832 107.235 147.949 107.323 148.082 107.376L150.067 108.367C152.286 109.477 153.421 112.028 155.058 113.885C155.623 114.49 156.124 115.153 156.552 115.862C157.259 117.128 157.585 118.717 158.78 119.522C159.102 119.689 159.394 119.906 159.646 120.166C160.021 120.66 159.884 121.353 159.918 121.975C159.951 122.597 160.427 123.339 161.018 123.149C160.811 123.903 160.811 124.699 161.018 125.453C163.615 125.319 166.091 124.316 168.049 122.603C168.628 122.097 169.186 121.45 169.192 120.682C169.201 120.549 169.171 120.417 169.107 120.3C168.99 120.15 168.835 120.033 168.659 119.962C166.802 118.955 166.244 116.621 165.305 114.727C164.485 113.056 163.271 111.616 162.256 110.063C160.049 106.723 158.543 102.681 155.204 100.475C154.469 99.9905 153.616 99.5604 153.247 98.7581C153.043 98.3097 153.018 97.7972 152.857 97.3335C152.695 96.8699 152.308 96.4184 151.814 96.4184C152.088 95.7473 152.033 94.9298 152.052 94.2038C152.07 93.8815 152.033 93.5585 151.942 93.249C151.815 92.916 151.65 92.5987 151.451 92.3033C150.58 90.8278 150.145 89.1356 150.195 87.4226C150.219 86.5411 150.375 85.632 150.11 84.7901C149.975 84.3661 149.741 83.9787 149.579 83.5699C149.336 82.8293 149.207 82.0556 149.198 81.276L149.015 78.3445C148.987 77.3682 148.861 76.3973 148.637 75.4466C148.027 73.171 147.417 63.6383 145.329 62.5646C143.241 61.4908 139.652 68.8271 137.301 68.9705C136.261 69.0138 135.234 69.2122 134.253 69.5592C132.689 70.1449 131.378 71.237 130.1 72.3046L125.777 75.9377C124.862 76.6912 124.106 77.4111 123.097 77.9419Z" fill="#464353"/>
<path d="M102.346 15.7068C103.298 14.4073 104.932 13.7179 106.542 13.6599C108.151 13.602 109.737 14.1083 111.179 14.8252C111.605 15.0674 112.059 15.2539 112.533 15.3804C113.295 15.5359 114.142 15.3285 114.831 15.6854C115.746 16.1704 115.923 17.4059 115.844 18.4308C115.764 19.4557 115.572 20.5936 116.118 21.4812C116.312 21.7344 116.488 22.0004 116.645 22.2774C116.88 22.8051 116.743 23.4152 116.603 23.9735C116.246 23.6684 116.045 23.2078 115.728 22.8539C115.411 22.5001 114.859 22.2622 114.466 22.5275C114.072 22.7929 114.078 23.2749 114.057 23.7081C114.036 24.1412 113.926 24.6598 113.517 24.8001C113.347 24.839 113.168 24.8257 113.005 24.7621C112.842 24.6985 112.702 24.5874 112.603 24.4432C111.905 23.5891 112.185 22.2256 111.493 21.3653C111.1 20.8773 110.444 20.6393 110.081 20.1269C109.795 19.7242 109.722 19.2117 109.472 18.7786C109.222 18.3454 108.639 18.0281 108.252 18.3271C108.12 18.4534 108.01 18.6008 107.926 18.7633C107.684 19.1093 107.333 19.3638 106.929 19.4856C106.526 19.6073 106.092 19.5893 105.7 19.4344C105.4 19.2502 105.076 19.1095 104.737 19.0165C104.515 19.0054 104.294 19.0566 104.099 19.1644C103.905 19.2722 103.744 19.4323 103.636 19.6266C103.417 20.0147 103.312 20.4565 103.331 20.9017C103.331 21.5117 103.441 22.1615 103.093 22.6496C102.961 22.8333 102.796 22.9906 102.606 23.1132C102.096 23.4396 101.386 23.6593 100.916 23.2871C100.757 23.1388 100.639 22.9521 100.573 22.7448C100.507 22.5375 100.495 22.3167 100.538 22.1035C100.63 21.679 100.75 21.2611 100.898 20.8529C101.166 19.9072 100.816 18.8426 101.109 17.9519C101.415 17.1497 101.832 16.3941 102.346 15.7068Z" fill="#464353"/>
<path d="M106.209 37.2276C106.163 37.4499 106.187 37.6809 106.276 37.8895C106.367 38.0316 106.49 38.1498 106.636 38.2342C107.661 38.8733 108.827 39.2514 110.032 39.3354C110.196 39.3383 110.357 39.3801 110.502 39.4574C110.789 39.6466 110.807 40.0675 110.7 40.4031C110.558 40.7196 110.484 41.0627 110.484 41.4097C110.572 42.0473 111.328 42.3249 111.965 42.4194C112.859 42.5323 113.837 42.4743 114.545 41.9161C115.024 41.4789 115.389 40.9312 115.609 40.3207C117.359 36.2972 117.972 31.8496 119.743 27.8383C119.877 27.5764 119.967 27.2939 120.008 27.0025C120.027 26.8566 120.006 26.7084 119.948 26.5732C119.891 26.438 119.797 26.3208 119.679 26.2338C119.35 26.0294 118.838 26.1453 118.615 25.825C118.505 25.6633 118.517 25.4437 118.42 25.2729C118.216 24.9099 117.679 24.9678 117.313 24.7574C117.027 24.6048 116.828 24.2906 116.508 24.2296C116.351 24.2208 116.194 24.2487 116.05 24.3112C115.905 24.3736 115.777 24.469 115.676 24.5896C114.636 25.5596 114.09 26.9354 113.511 28.2349C112.627 30.2268 111.591 32.1481 110.414 33.9819C110.551 33.7684 109.755 32.1516 109.444 32.0815C108.898 31.9717 108.2 32.9295 107.904 33.2864C106.976 34.4122 106.388 35.7793 106.209 37.2276Z" fill="#6C63FF"/>
<path opacity="0.1" d="M117.286 25.0411C117.067 25.0448 116.851 25.0977 116.656 25.1959C116.46 25.2941 116.289 25.4351 116.155 25.6085C115.828 26.0325 115.764 26.5938 115.682 27.1337C115.405 28.8443 114.795 30.4839 113.886 31.9595" fill="black"/>
<path opacity="0.1" d="M118.841 26.2582C118.538 26.2649 118.243 26.3503 117.984 26.506C117.724 26.6616 117.51 26.8822 117.362 27.1459C117.16 27.6257 117.035 28.1341 116.99 28.6528C116.729 29.8026 116.224 30.8833 115.511 31.8222" fill="black"/>
<path d="M191.299 85.8943V82.1057C191.298 79.3167 190.191 76.6422 188.219 74.6704C186.248 72.6985 183.574 71.5908 180.787 71.5908H31.2444C28.4569 71.5908 25.7835 72.6985 23.8121 74.6704C21.8408 76.6422 20.7329 79.3167 20.7321 82.1057V89.0912L191.299 85.8943Z" fill="#33323D"/>
<path d="M72.8459 67.1493C72.8459 67.1493 72.4191 93.6455 77.1143 102.364C81.8095 111.082 83.8217 149.008 83.8217 149.008C83.8217 149.008 133.042 154.102 167.342 142.907C201.641 131.712 274.624 127.133 274.624 127.133L262.325 44.1948C262.325 44.1948 201.565 40.2963 167 56.79C132.435 73.2838 72.8459 67.1493 72.8459 67.1493Z" fill="#8DD070"/>
<path opacity="0.1" d="M72.8459 67.1493C72.8459 67.1493 72.4191 93.6455 77.1143 102.364C81.8095 111.082 83.8217 149.008 83.8217 149.008C83.8217 149.008 133.042 154.102 167.342 142.907C201.641 131.712 274.624 127.133 274.624 127.133L262.325 44.1948C262.325 44.1948 201.565 40.2963 167 56.79C132.435 73.2838 72.8459 67.1493 72.8459 67.1493Z" fill="black"/>
<path d="M83.7393 76.8284C83.7393 76.8284 82.1997 98.6909 86.0625 105.676C89.9254 112.662 90.1053 143.847 90.1053 143.847C90.1053 143.847 134.402 145.903 165.912 135.171C197.421 124.44 263.636 117.479 263.636 117.479L256.112 49.652C256.112 49.652 201.324 49.0877 169.348 64.1935C137.371 79.2993 83.7393 76.8284 83.7393 76.8284Z" fill="#8DD070"/>
<path opacity="0.1" d="M168.861 122.753C175.164 121.967 178.908 110.367 177.225 96.8417C175.541 83.3169 169.067 72.9896 162.764 73.7751C156.461 74.5605 152.717 86.1613 154.4 99.6861C156.084 113.211 162.558 123.538 168.861 122.753Z" fill="black"/>
<path opacity="0.2" d="M229.014 3.79175C229.014 3.79175 169.985 18.7389 142.149 45.049C114.313 71.359 55.7145 83.817 55.7145 83.817C55.7145 83.817 63.4341 109.163 70.5745 116.021C77.7149 122.878 91.2578 158.361 91.2578 158.361C91.2578 158.361 139.664 148.093 168.872 126.898C198.08 105.704 266.151 78.9363 266.151 78.9363L229.014 3.79175Z" fill="black"/>
<path d="M54.8273 80.0223C54.8273 80.0223 62.5439 105.371 69.6782 112.229C76.8124 119.086 90.3615 154.566 90.3615 154.566C90.3615 154.566 138.774 144.301 167.985 123.107C197.196 101.912 265.261 75.1538 265.261 75.1538L228.123 0C228.123 0 169.098 14.9472 141.262 41.2572C113.426 67.5673 54.8273 80.0223 54.8273 80.0223Z" fill="#8DD070"/>
<path opacity="0.1" d="M54.8273 80.0223C54.8273 80.0223 62.5439 105.371 69.6782 112.229C76.8124 119.086 90.3615 154.566 90.3615 154.566C90.3615 154.566 138.774 144.301 167.985 123.107C197.196 101.912 265.261 75.1538 265.261 75.1538L228.123 0C228.123 0 169.098 14.9472 141.262 41.2572C113.426 67.5673 54.8273 80.0223 54.8273 80.0223Z" fill="black"/>
<path d="M68.1537 85.8913C68.1537 85.8913 73.3946 107.174 79.2149 112.635C85.0351 118.095 94.764 147.715 94.764 147.715C94.764 147.715 137.551 136.068 164.25 116.179C190.949 96.2903 251.84 69.364 251.84 69.364L223.879 7.09839C223.879 7.09839 171.564 23.3786 145.762 47.5747C119.96 71.7708 68.1537 85.8913 68.1537 85.8913Z" fill="#8DD070"/>
<path opacity="0.1" d="M163.263 103.464C169.021 100.782 169.027 88.5912 163.276 76.2358C157.526 63.8804 148.196 56.0391 142.439 58.7217C136.681 61.4043 136.675 73.595 142.426 85.9504C148.176 98.3058 157.505 106.147 163.263 103.464Z" fill="black"/>
<path opacity="0.1" d="M195.336 89.6129V194.853C195.336 196.048 195.101 197.232 194.643 198.336C194.186 199.44 193.516 200.444 192.671 201.289C191.826 202.134 190.823 202.804 189.72 203.261C188.616 203.718 187.433 203.953 186.238 203.953H29.8328C27.4213 203.952 25.1088 202.993 23.4039 201.286C21.699 199.58 20.7412 197.266 20.7412 194.853V79.0034C25.223 80.669 25.223 80.669 29.8328 80.5286H186.238C188.648 80.5286 190.959 81.4851 192.665 83.1882C194.371 84.8913 195.331 87.2019 195.336 89.6129Z" fill="black"/>
<path d="M195.336 90.952V196.192C195.335 198.606 194.376 200.92 192.67 202.627C190.964 204.333 188.651 205.292 186.238 205.292H29.8328C27.4213 205.291 25.1088 204.332 23.4039 202.625C21.699 200.919 20.7412 198.605 20.7412 196.192V80.3395C25.223 82.002 25.223 82.002 29.8328 81.8647H186.238C188.649 81.8647 190.96 82.8216 192.666 84.5254C194.372 86.2291 195.332 88.5405 195.336 90.952Z" fill="#504F60"/>
<path opacity="0.1" d="M194.891 129.86V163.516H162.268C157.847 163.456 153.627 161.657 150.521 158.508C147.416 155.359 145.674 151.112 145.674 146.688C145.674 142.264 147.416 138.018 150.521 134.868C153.627 131.719 157.847 129.92 162.268 129.86H194.891Z" fill="black"/>
<path d="M195.336 128.964V162.625H162.714C158.292 162.566 154.072 160.766 150.966 157.617C147.861 154.468 146.12 150.222 146.12 145.797C146.12 141.373 147.861 137.127 150.966 133.978C154.072 130.828 158.292 129.029 162.714 128.97L195.336 128.964Z" fill="#33323D"/>
<path opacity="0.1" d="M164.278 153.251C167.899 153.251 170.836 150.313 170.836 146.69C170.836 143.066 167.899 140.128 164.278 140.128C160.656 140.128 157.719 143.066 157.719 146.69C157.719 150.313 160.656 153.251 164.278 153.251Z" fill="black"/>
<path d="M164.723 152.36C168.345 152.36 171.281 149.423 171.281 145.799C171.281 142.175 168.345 139.237 164.723 139.237C161.101 139.237 158.165 142.175 158.165 145.799C158.165 149.423 161.101 152.36 164.723 152.36Z" fill="#6C63FF"/>
<path d="M251.962 128.674C252.221 131.483 250.096 134.21 250.715 136.962C250.849 137.551 251.102 138.106 251.194 138.701C251.45 140.336 250.477 141.882 249.547 143.249L241.559 154.975C241.239 155.49 240.856 155.964 240.419 156.384C238.895 157.745 236.602 157.604 234.596 158.01C233.186 158.296 231.854 158.885 230.693 159.736C230.645 159.778 230.614 159.836 230.607 159.9C230.6 159.964 230.618 160.027 230.657 160.078C230.988 160.53 231.428 160.891 231.935 161.129C232.442 161.368 233 161.475 233.559 161.442C233.77 161.719 233.559 162.125 233.254 162.323C232.824 162.628 232.236 162.701 232.151 163.427C232.12 163.681 232.172 163.937 232.297 164.16C232.619 164.653 233.119 165.002 233.693 165.133C236.459 165.978 239.447 164.492 241.517 162.47C243.587 160.447 245.072 157.894 247.102 155.835C248.227 154.697 249.505 153.721 250.663 152.617C252.974 150.414 254.77 147.736 256.505 145.055C257.026 144.246 257.551 143.417 257.77 142.48C257.99 141.544 257.886 140.598 258.133 139.692C258.456 138.502 259.325 137.557 260.048 136.559C261.465 134.607 262.41 132.218 262.224 129.815C262.038 127.411 260.548 125.035 258.279 124.217C257.576 123.935 256.801 123.888 256.069 124.083C255.139 124.37 254.453 125.138 253.819 125.873L252.294 127.627C251.914 128.012 251.614 128.468 251.41 128.97C251.313 129.221 251.289 129.496 251.343 129.76C251.397 130.025 251.527 130.268 251.715 130.461" fill="#FBBEBE"/>
<path opacity="0.05" d="M251.962 128.674C252.221 131.483 250.096 134.21 250.715 136.962C250.849 137.551 251.102 138.106 251.194 138.701C251.45 140.336 250.477 141.882 249.547 143.249L241.559 154.975C241.239 155.49 240.856 155.964 240.419 156.384C238.895 157.745 236.602 157.604 234.596 158.01C233.186 158.296 231.854 158.885 230.693 159.736C230.645 159.778 230.614 159.836 230.607 159.9C230.6 159.964 230.618 160.027 230.657 160.078C230.988 160.53 231.428 160.891 231.935 161.129C232.442 161.368 233 161.475 233.559 161.442C233.77 161.719 233.559 162.125 233.254 162.323C232.824 162.628 232.236 162.701 232.151 163.427C232.12 163.681 232.172 163.937 232.297 164.16C232.619 164.653 233.119 165.002 233.693 165.133C236.459 165.978 239.447 164.492 241.517 162.47C243.587 160.447 245.072 157.894 247.102 155.835C248.227 154.697 249.505 153.721 250.663 152.617C252.974 150.414 254.77 147.736 256.505 145.055C257.026 144.246 257.551 143.417 257.77 142.48C257.99 141.544 257.886 140.598 258.133 139.692C258.456 138.502 259.325 137.557 260.048 136.559C261.465 134.607 262.41 132.218 262.224 129.815C262.038 127.411 260.548 125.035 258.279 124.217C257.576 123.935 256.801 123.888 256.069 124.083C255.139 124.37 254.453 125.138 253.819 125.873L252.294 127.627C251.914 128.012 251.614 128.468 251.41 128.97C251.313 129.221 251.289 129.496 251.343 129.76C251.397 130.025 251.527 130.268 251.715 130.461" fill="black"/>
<path d="M258.008 201C256.264 202.064 254.09 202.128 252.063 201.881C251.737 201.842 251.349 201.817 251.148 202.071C250.843 202.437 251.203 202.986 251.575 203.269C252.771 204.168 254.176 204.746 255.657 204.95C256.98 205.138 258.315 205.226 259.651 205.216C263.31 205.28 266.968 205.341 270.569 204.816C270.782 204.8 270.99 204.74 271.179 204.639C271.411 204.476 271.572 204.23 271.63 203.953C271.877 203.013 271.402 202.006 270.682 201.354C269.962 200.701 269.039 200.338 268.136 199.987L264.965 198.752C264.222 198.462 263.029 197.693 262.221 197.754C260.703 197.864 259.267 200.262 258.008 201Z" fill="#3F3D56"/>
<path opacity="0.05" d="M258.008 201C256.264 202.064 254.09 202.128 252.063 201.881C251.737 201.842 251.349 201.817 251.148 202.071C250.843 202.437 251.203 202.986 251.575 203.269C252.771 204.168 254.176 204.746 255.657 204.95C256.98 205.138 258.315 205.226 259.651 205.216C263.31 205.28 266.968 205.341 270.569 204.816C270.782 204.8 270.99 204.74 271.179 204.639C271.411 204.476 271.572 204.23 271.63 203.953C271.877 203.013 271.402 202.006 270.682 201.354C269.962 200.701 269.039 200.338 268.136 199.987L264.965 198.752C264.222 198.462 263.029 197.693 262.221 197.754C260.703 197.864 259.267 200.262 258.008 201Z" fill="black"/>
<path d="M260.231 158.885C258.91 160.642 257.545 162.671 257.871 164.846C258.048 166.017 258.703 167.051 259.185 168.134C259.837 169.605 260.179 171.185 260.514 172.759C261.008 175.059 261.505 177.365 261.807 179.702C262.151 182.34 260.532 189.975 260.383 192.632C260.346 193.273 260.27 193.965 259.825 194.426C259.651 194.609 259.42 194.755 259.34 194.993C259.294 195.223 259.332 195.461 259.447 195.665C260.191 197.342 261.712 198.593 263.411 199.307C265.109 200.021 269.203 201.253 271.054 201.317C271.298 201.344 271.545 201.311 271.773 201.222C272.02 201.072 272.213 200.85 272.328 200.585C273.655 198.047 272.38 189.024 272.398 186.159C272.417 183.771 272.981 181.398 272.877 179.012C272.792 177.096 272.267 175.224 272.094 173.314C271.789 170.184 272.362 167.039 272.938 163.946C273.377 161.573 273.819 159.2 274.383 156.857C274.728 155.426 275.127 153.983 275.908 152.742C276.517 151.756 277.374 150.933 278.085 149.996C280.056 147.41 280.932 144.151 280.524 140.924C280.481 140.619 275.95 142.074 275.551 142.248C273.921 142.939 272.422 143.903 271.118 145.1C270.069 146.101 269.243 147.437 268.325 148.557C267.026 150.141 265.744 151.736 264.478 153.343C263.032 155.179 261.617 157.027 260.231 158.885Z" fill="#464353"/>
<path opacity="0.05" d="M260.231 158.779C258.91 160.536 257.545 162.567 257.871 164.739C258.048 165.914 258.703 166.948 259.185 168.031C259.837 169.498 260.179 171.081 260.514 172.652C261.008 174.955 261.505 177.261 261.807 179.595C262.151 182.236 260.532 189.869 260.383 192.526C260.346 193.166 260.27 193.862 259.825 194.322C259.651 194.502 259.42 194.649 259.34 194.887C259.294 195.116 259.331 195.354 259.447 195.558C260.191 197.239 261.712 198.486 263.41 199.218C265.109 199.95 269.203 200.588 271.054 200.649C271.298 200.676 271.545 200.643 271.773 200.554C272.02 200.406 272.214 200.184 272.328 199.92C273.655 197.382 272.38 188.938 272.398 186.071C272.417 183.679 272.981 181.309 272.877 178.921C272.792 177.005 272.267 175.132 272.094 173.225C271.789 170.093 272.362 166.948 272.938 163.854C273.377 161.484 273.819 159.111 274.383 156.765C274.728 155.335 275.127 153.892 275.908 152.65C276.517 151.665 277.374 150.841 278.085 149.905C280.057 147.319 280.933 144.06 280.524 140.833C280.481 140.528 275.95 141.983 275.551 142.157C273.922 142.849 272.423 143.815 271.118 145.012C270.069 146.009 269.243 147.345 268.325 148.465C267.026 150.049 265.744 151.646 264.478 153.254C263.032 155.076 261.617 156.918 260.231 158.779Z" fill="black"/>
<path d="M245.541 120.187C249.628 120.187 252.941 116.873 252.941 112.784C252.941 108.695 249.628 105.381 245.541 105.381C241.455 105.381 238.142 108.695 238.142 112.784C238.142 116.873 241.455 120.187 245.541 120.187Z" fill="#FBBEBE"/>
<path d="M252.206 112.473C252.89 113.564 253.786 114.506 254.841 115.243C255.897 115.98 257.09 116.496 258.349 116.762L257.791 118.79C256.828 122.274 255.746 125.959 253.057 128.375C253.361 127.194 252.971 125.934 252.307 124.91C251.642 123.885 250.709 123.079 249.794 122.283L245.535 118.592C245.412 118.492 245.309 118.37 245.23 118.232C245.125 117.972 245.125 117.681 245.23 117.421C245.773 115.731 247.322 114.675 248.584 113.534C249.217 112.944 249.783 112.286 250.27 111.57C251.121 110.356 251.648 111.576 252.206 112.473Z" fill="#FBBEBE"/>
<path d="M235.794 105.341L235.627 103.95C236.794 104.255 237.904 103.261 238.651 102.233C239.398 101.205 240.09 99.9935 241.227 99.5634C242.608 99.0448 244.072 99.8685 245.392 100.564C246.87 101.385 248.492 101.913 250.17 102.12C250.437 102.129 250.702 102.172 250.959 102.248C251.819 102.553 252.227 103.633 252.352 104.612C252.477 105.591 252.444 106.631 252.868 107.504C253.173 108.166 253.74 108.657 254.087 109.31C255.002 111.061 254.118 113.455 255.072 115.173L252.7 112.998C252.484 112.799 252.179 112.592 251.938 112.76C251.749 112.894 251.734 113.184 251.657 113.415C251.429 114.093 250.581 114.294 249.968 114.026C249.355 113.757 248.907 113.174 248.444 112.644C247.395 111.405 246.145 110.316 244.682 109.789C244.04 109.549 243.355 109.448 242.672 109.493C241.988 109.538 241.322 109.728 240.718 110.051C239.611 110.676 238.8 112.134 237.444 112.186C235.584 112.256 234.809 108.791 233.95 107.421C234.264 107.185 234.486 106.844 234.575 106.461C234.664 106.077 234.615 105.674 234.438 105.323C234.563 105.271 235.767 105.127 235.794 105.341Z" fill="#464353"/>
<path d="M144.271 62.0582C143.677 62.5872 143.127 63.1647 142.628 63.7847C142.125 64.4133 141.858 65.1976 141.872 66.0024C141.874 66.2358 141.949 66.4627 142.085 66.6521C142.155 66.7428 142.251 66.8095 142.36 66.8428C142.469 66.8762 142.586 66.8746 142.695 66.8382C142.817 66.7757 142.922 66.6834 143 66.5698C143.322 66.1823 143.664 65.8117 144.024 65.4594C144.155 65.3282 144.329 65.191 144.506 65.2398C144.585 65.2679 144.656 65.315 144.713 65.377C144.918 65.5545 145.068 65.7876 145.143 66.0481C145.25 66.5149 144.978 66.9816 144.67 67.3476C144.363 67.7137 144 68.0645 143.875 68.5251C143.827 68.6467 143.827 68.7817 143.875 68.9034C143.934 68.9914 144.016 69.0611 144.113 69.1047C144.549 69.3452 145.033 69.4868 145.531 69.5195C146.028 69.5522 146.526 69.4751 146.991 69.2938C147.6 69.0467 148.143 68.6227 148.771 68.4031C149.043 68.3286 149.307 68.2264 149.558 68.098C149.737 67.9784 149.892 67.8243 150.011 67.6448C150.131 67.4652 150.214 67.2636 150.256 67.0517C150.335 66.6283 150.351 66.1955 150.302 65.7675C150.226 64.1104 149.871 62.4779 149.253 60.9387C149.217 60.8394 149.156 60.7511 149.076 60.6824C148.984 60.6265 148.879 60.5979 148.771 60.6001C147.991 60.5177 146.71 60.1181 145.957 60.4079C145.694 60.5524 145.466 60.7547 145.292 60.9997C145.152 61.1552 144.271 61.8538 144.271 62.0582Z" fill="#A1616A"/>
<path d="M144.024 61.3688C144.024 60.6245 143.109 58.8278 144.564 58.7088C144.564 57.9127 143.439 57.4185 143.649 56.5735C143.716 56.2929 143.954 56.0641 143.981 55.7774C144.073 54.9629 142.603 54.5206 142.847 53.7397C142.939 53.4346 143.262 53.2577 143.332 52.9557C143.497 52.251 142.237 51.9369 142.213 51.2139C142.213 50.9699 142.35 50.7411 142.338 50.497C142.338 50.192 142.073 49.9602 141.926 49.6948C141.545 49.0145 141.731 47.9621 141.036 47.6113C141.497 47.651 141.646 46.9677 141.457 46.5498C141.268 46.1319 140.881 45.7689 140.878 45.3052C140.901 45.1372 140.901 44.9668 140.878 44.7988C140.75 44.3535 140.021 44.3168 139.899 43.8837C139.883 43.7174 139.878 43.5503 139.884 43.3834C139.835 43.0387 139.481 42.8191 139.149 42.7215C138.804 42.6628 138.472 42.5441 138.167 42.3707C137.954 42.209 137.707 41.9406 137.478 42.0656C137.393 42.1175 137.35 42.2151 137.286 42.2883C137.012 42.6086 136.487 42.4683 136.143 42.2334C135.125 41.5409 134.618 40.2994 134.402 39.0884C134.186 37.8774 134.192 36.6267 133.92 35.4279C133.838 35.0542 133.727 34.6872 133.591 34.3297C133.475 34.0247 133.103 33.5457 133.079 33.2376C133.024 32.536 134.475 33.015 135.027 33.0851C135.563 33.1375 136.092 33.2396 136.609 33.3902C137.161 33.5987 137.701 33.8359 138.228 34.1009C140.43 35.074 143.088 35.193 144.856 36.828C145.439 37.3649 145.93 38.0695 146.686 38.3136C147.033 38.3801 147.375 38.4687 147.71 38.579C148.549 38.9725 148.68 40.0859 149.137 40.8912C149.281 41.1039 149.406 41.3284 149.512 41.5623C149.6 41.8382 149.641 42.1269 149.634 42.4164L149.698 44.5304C149.802 48.0719 149.905 51.6227 149.527 55.1429C149.405 56.3051 149.222 57.5009 149.567 58.6173C149.658 58.9224 149.786 59.2091 149.872 59.5172C149.947 59.8784 149.986 60.2463 149.988 60.6154L150.036 61.985C150.053 62.0915 150.029 62.2005 149.969 62.2901C149.918 62.3315 149.859 62.3609 149.795 62.3762C149.731 62.3915 149.665 62.3923 149.6 62.3785C147.695 62.2077 145.768 61.1339 143.969 61.7837" fill="#464353"/>
<path d="M230.983 166.609C243.437 166.609 253.532 165.149 253.532 163.348C253.532 161.547 243.437 160.087 230.983 160.087C218.529 160.087 208.434 161.547 208.434 163.348C208.434 165.149 218.529 166.609 230.983 166.609Z" fill="#504F60"/>
<path d="M250.383 163.507C249.986 161.808 249.739 160.316 249.739 160.316C249.739 160.316 249.831 158.467 249.002 157.079V156.616V153.199C249.238 152.579 249.526 151.98 249.864 151.409C250.474 150.335 249.864 146.4 249.864 146.4C249.864 146.4 247.587 140.851 248.139 137.331C248.691 133.811 243.462 121.7 243.462 121.7C243.494 120.533 243.659 119.372 243.953 118.241C244.009 118.004 244.031 117.759 244.02 117.515C244.02 117.485 244.02 117.457 244.02 117.427C244.02 117.396 244.02 117.445 244.02 117.454C243.941 115.133 242.105 110.783 242.105 110.783L242.352 102.492C242.352 102.492 243.523 97.6111 241.614 91.0374C240.947 88.7465 240.52 86.9132 240.248 85.4978C240.218 85.3392 240.187 85.1927 240.163 85.0372C244.093 84.4271 247.096 83.939 247.096 83.939C247.096 83.939 244.816 74.3942 243.276 72.7225C241.736 71.0509 240.505 65.8011 240.505 65.8011C240.505 65.8011 239.703 59.0626 240.998 57.0921C242.294 55.1215 242.477 51.7233 242.477 51.7233C242.477 51.7233 245.431 49.588 245.803 48.621C246.175 47.654 246.788 45.5187 246.788 44.387C246.788 43.2552 246.419 42.2517 246.541 41.6416C246.663 41.0315 245.678 38.7772 246.172 37.7034C246.3 37.3736 246.366 37.0231 246.367 36.6693C246.369 36.6592 246.369 36.649 246.367 36.6388C246.372 35.6992 246.285 34.7614 246.108 33.8385C245.254 33.1165 244.256 32.5832 243.181 32.2737L243.117 32.0174L242.95 31.3463C242.856 31.2844 242.759 31.2274 242.66 31.1755V30.9315L242.633 29.9614L243.096 27.7834C244.011 23.9948 238.953 23.4304 238.953 23.4304C238.646 22.8493 238.136 22.4018 237.52 22.1736C236.504 21.8167 237.352 27.8719 237.825 28.2745C238.181 28.5796 239.285 30.4647 239.819 31.3982L239.904 31.5507C239.82 31.6258 239.743 31.7074 239.672 31.7947L239.864 33.1095L239.895 33.3108C239.56 33.7273 239.287 34.1908 239.087 34.6866C239.087 34.6866 240.001 35.6993 239.828 36.8219C239.654 37.9444 240.111 39.369 240.133 39.4452C240.078 39.3812 239.428 38.6796 238.779 38.8504C238.129 39.0212 236.315 39.5673 236.315 39.5673C236.315 39.5673 234.962 39.8052 235.096 40.1041C235.23 40.4031 234.181 41.7148 234.181 41.7148L230.541 38.2617C230.504 38.158 230.465 38.0542 230.434 37.9566C230.286 37.4588 230.184 36.9482 230.129 36.4314C230.526 36.3371 230.915 36.2137 231.294 36.0623C231.677 35.9309 232.022 35.7091 232.3 35.4156C232.669 34.9794 232.739 34.3876 232.889 33.8446C233.175 32.7831 233.803 31.8405 234.239 30.8308C234.978 29.1246 235.215 27.2435 234.925 25.4071C234.869 24.8412 234.678 24.2971 234.367 23.8209C233.773 23.0034 232.693 22.6709 231.91 22.0181C231.126 21.3653 230.62 20.3678 229.706 19.8828C228.879 19.4404 227.876 19.4923 226.943 19.6448C225.121 19.9454 223.371 20.5826 221.782 21.5239C221.251 21.8289 220.666 22.2041 220.056 22.0913C219.532 21.9967 219.141 21.5788 218.812 21.1761C218.816 21.1595 218.821 21.1431 218.827 21.1273C218.812 21.1125 218.799 21.0961 218.788 21.0785C218.402 21.9352 218.208 22.8661 218.221 23.8056C218.221 23.952 218.221 24.1107 218.239 24.2418V24.3944C218.239 24.4371 218.239 24.4798 218.239 24.5194C218.239 24.5845 218.23 24.6491 218.211 24.7116C218.135 24.8982 218.018 25.0658 217.87 25.2027C217.758 25.3299 217.656 25.4655 217.565 25.6084C217.565 25.5596 217.596 25.5108 217.614 25.459C217.381 25.7986 217.25 26.1975 217.236 26.609C217.219 26.9085 217.317 27.2032 217.51 27.4326C217.693 27.6099 217.892 27.7693 218.105 27.9085C218.032 28.3112 217.996 28.7195 217.995 29.1286C218.002 30.3417 218.321 31.5324 218.923 32.5856C219.524 33.6389 220.387 34.5191 221.428 35.1411C221.471 35.2417 221.51 35.3454 221.55 35.4461C222.016 36.6663 222.367 38.1 222.211 39.4117C222.211 39.5063 222.184 39.6039 222.169 39.6984C222.154 39.793 222.077 39.7991 222.038 39.851C222.038 39.851 216.022 39.912 214.608 38.6308C213.193 37.3496 211.034 41.7636 211.034 41.7636C211.034 41.7636 208.879 42.1815 208.446 41.7636C208.013 41.3457 205.492 41.7056 205.492 41.7056C204.459 40.7864 203.114 40.2956 201.732 40.3329C200.895 39.6963 199.971 39.1827 198.989 38.8077L198.921 38.7833C198.488 38.6251 198.024 38.5667 197.565 38.6125C197.565 38.6125 194.607 36.1721 193.745 34.8543C192.882 33.5365 188.775 28.6711 188.757 28.6497V28.4148L188.711 27.7071C188.589 27.7263 188.466 27.7365 188.342 27.7376C188.321 27.6675 188.29 27.5851 188.26 27.4906C188.023 26.8003 187.731 26.1301 187.388 25.4864C187.388 25.4864 187.388 24.5926 187.647 24.3669C187.906 24.1412 187.54 20.8619 187.54 20.8619C187.54 20.8619 184.875 14.6299 182.488 19.2818C182.488 19.2818 177.976 22.2926 181.763 25.8006C181.763 25.8006 183.287 26.5327 183.488 27.1123C183.628 27.4875 184.141 28.5399 184.485 29.2476L184.641 29.5527L184.598 29.5893L184.653 30.1749L184.677 30.4007C183.964 30.8064 183.479 31.209 183.598 31.511C183.808 32.0278 183.952 32.5689 184.028 33.1217C184.028 33.1217 189.266 39.6862 189.943 42.4896C189.943 42.4896 203.989 50.8417 208.608 51.4365L207.791 55.6004C207.671 56.7303 207.61 57.8655 207.608 59.0016C207.669 59.8954 207.053 63.9525 207.053 63.9525C207.053 63.9525 206.251 69.9192 205.574 70.755C204.897 71.5908 205.019 75.169 205.019 75.169C204.859 76.8819 204.553 78.5781 204.104 80.2388C203.428 82.5053 203.918 85.3117 203.918 85.3117C203.918 85.3117 201.58 90.6805 207.184 87.0413C207.184 87.0413 209.928 86.8705 213.105 86.7607C213.105 86.8644 213.105 86.9711 213.105 87.0657C213.105 87.4745 213.105 87.9168 213.083 88.3804C213.041 91.4553 213.022 95.7015 213.163 98.8984C213.41 104.566 215.135 115.783 215.135 115.783V121.429C215.024 121.959 214.969 122.498 214.971 123.04C214.934 125.026 215.463 126.982 216.495 128.68L216.928 132.438C216.928 132.438 217.94 134.915 217.958 136.404C217.954 136.524 217.94 136.643 217.916 136.76C217.876 136.95 217.86 137.144 217.867 137.337C217.809 139.045 218.836 143.133 218.836 143.133C218.836 143.133 218.897 147.248 219.513 147.489C220.041 147.693 218.809 149.859 218.443 150.481C218.433 150.443 218.426 150.405 218.422 150.365L218.346 150.487C218.218 150.821 218.153 151.174 218.153 151.531C218.119 151.812 218.165 152.097 218.285 152.353C218.406 152.609 218.597 152.825 218.836 152.977C220.007 153.693 220.635 154.288 219.641 154.526C219.276 154.583 218.913 154.659 218.556 154.755C218.556 154.709 218.519 154.66 218.504 154.618C218.364 154.673 218.247 154.774 218.173 154.905C218.099 155.037 218.073 155.189 218.099 155.338C218.108 155.822 218.232 156.296 218.461 156.723C219.446 158.931 220.129 159.773 220.129 159.773L220.602 159.721C220.532 159.902 220.44 160.073 220.327 160.231C220.147 160.486 219.909 160.696 219.632 160.841C219.374 160.995 219.086 161.094 218.788 161.13C218.454 161.141 218.126 161.222 217.825 161.369C217.525 161.515 217.259 161.723 217.044 161.978C216.434 162.775 216.044 163.858 217.257 164.809L221.663 166.335C221.663 166.335 229.242 167.32 228.84 165.618C228.437 163.916 228.193 162.427 228.193 162.427C228.226 161.388 228.017 160.355 227.584 159.41C227.504 159.256 227.414 159.107 227.315 158.965L227.584 158.937C227.584 158.937 228.138 155.176 228.876 154.462C229.047 154.297 229.087 154.157 229.047 154.072C229.123 153.867 228.928 153.748 228.681 153.678L228.626 153.828C228.385 153.775 228.139 153.747 227.891 153.745C227.891 153.745 227.645 151.778 228.446 151.061C228.511 150.979 228.558 150.885 228.585 150.784C228.612 150.684 228.618 150.578 228.602 150.475C228.608 150.205 228.579 149.936 228.516 149.673C228.509 149.69 228.499 149.706 228.489 149.722C228.087 147.934 226.721 145.094 226.721 145.094C226.721 145.094 226.66 143.307 227.154 142.59C227.648 141.873 227.09 132.865 227.09 132.865C227.09 132.865 227.276 128.512 226.721 126.484C226.166 124.455 227.398 122.066 227.398 122.066C227.398 122.066 227.398 122.021 227.398 121.938V121.908L227.327 121.222C227.326 121.236 227.326 121.25 227.327 121.264C227.202 120.111 226.968 118.022 226.794 117.058C226.547 115.685 226.858 109.127 226.858 109.127L227.965 106.32L229.937 111.155L232.032 117.598C232.032 117.598 233.068 118.958 233.093 120.343C233.093 120.41 233.093 120.477 233.093 120.544C233.076 120.687 233.068 120.831 233.068 120.974C233.031 121.788 233.254 122.593 233.706 123.271C233.706 123.271 234.261 126.322 235.123 127.088C235.986 127.853 235.986 129.354 235.986 129.354C235.986 129.354 237.032 133.771 237.511 134.54C237.925 135.193 237.947 136.98 237.944 137.538C237.944 137.639 237.944 137.697 237.944 137.697C237.944 137.697 238.09 139.277 238.084 140.601C238.084 140.766 238.084 140.924 238.084 141.074C238.085 141.063 238.085 141.051 238.084 141.04C238.083 141.402 238.04 141.762 237.956 142.114L237.937 142.175C237.937 142.099 237.937 142.026 237.959 141.952C237.744 142.851 237.642 143.774 237.654 144.698C237.626 146.284 237.867 148.163 238.828 149.273C240.492 151.183 241.538 150.945 241.538 150.945C241.538 150.945 240.739 153.33 239.751 153.809C239.714 153.827 239.679 153.85 239.648 153.877C239.648 153.828 239.629 153.782 239.623 153.736C239.513 153.855 239.429 153.996 239.377 154.149C239.324 154.303 239.304 154.465 239.319 154.627C239.248 155.676 239.91 157.372 240.538 158.162C240.771 158.391 241.057 158.559 241.37 158.65C241.321 158.686 241.269 158.717 241.215 158.745C241.105 158.805 240.992 158.859 240.876 158.907C240.716 158.975 240.547 159.019 240.373 159.038C240.039 159.047 239.711 159.127 239.41 159.273C239.109 159.42 238.843 159.628 238.629 159.886C238.02 160.679 237.629 161.762 238.843 162.714L243.248 164.239C243.248 164.239 250.779 165.206 250.383 163.507Z" fill="url(#paint0_linear)"/>
<path d="M221.446 166.325L217.178 164.8C216.001 163.848 216.376 162.766 216.971 161.969C217.175 161.715 217.432 161.508 217.723 161.362C218.015 161.216 218.334 161.134 218.66 161.121C218.949 161.084 219.226 160.986 219.474 160.832C219.744 160.684 219.976 160.475 220.15 160.221C220.462 159.727 220.63 159.156 220.635 158.571C220.635 158.571 225.318 157.198 226.599 158.571C226.827 158.82 227.018 159.1 227.166 159.404C227.591 160.352 227.8 161.382 227.776 162.421C227.776 162.421 228.013 163.909 228.401 165.612C228.788 167.314 221.446 166.325 221.446 166.325Z" fill="#2D293D"/>
<path d="M242.313 164.221L238.044 162.695C236.867 161.744 237.242 160.661 237.837 159.868C238.04 159.613 238.296 159.405 238.587 159.258C238.878 159.112 239.197 159.031 239.523 159.02C239.691 159.002 239.856 158.958 240.011 158.888C240.123 158.841 240.233 158.787 240.34 158.727C241.532 158.071 241.502 156.46 241.502 156.46C241.502 156.46 246.182 155.087 247.465 156.46C247.637 156.646 247.787 156.851 247.913 157.07C248.715 158.458 248.627 160.31 248.627 160.31C248.627 160.31 248.865 161.802 249.236 163.501C249.608 165.2 242.313 164.221 242.313 164.221Z" fill="#2D293D"/>
<path opacity="0.1" d="M226.602 158.568C226.83 158.817 227.021 159.097 227.169 159.401L220.157 160.215C220.468 159.721 220.636 159.15 220.641 158.565C220.641 158.565 225.321 157.195 226.602 158.568Z" fill="black"/>
<path opacity="0.1" d="M247.919 157.076V158.391C246.828 160.188 241.55 159.794 240.017 158.894C240.13 158.847 240.24 158.793 240.346 158.733C241.538 158.077 241.508 156.466 241.508 156.466C241.508 156.466 246.188 155.094 247.471 156.466C247.643 156.652 247.793 156.857 247.919 157.076Z" fill="black"/>
<path d="M248.752 151.409C248.425 151.982 248.147 152.581 247.919 153.199V157.912C246.724 159.88 240.526 159.224 239.687 158.15C238.849 157.076 237.974 154.282 238.916 153.797C239.858 153.312 240.645 150.933 240.645 150.933C240.645 150.933 239.63 151.171 238.02 149.261C236.41 147.352 236.889 143.118 237.187 142.105C237.486 141.092 237.187 137.691 237.187 137.691C237.187 137.691 237.248 135.302 236.773 134.528C236.297 133.753 235.282 129.342 235.282 129.342C235.282 129.342 235.282 127.85 234.447 127.075C233.611 126.301 233.075 123.256 233.075 123.256C232.586 122.495 232.376 121.589 232.48 120.691C232.657 119.199 231.465 117.589 231.465 117.589L229.437 111.143L227.529 106.311L226.455 109.114C226.455 109.114 226.151 115.676 226.398 117.046C226.645 118.415 227.007 122.057 227.007 122.057C227.007 122.057 225.815 124.443 226.352 126.471C226.888 128.5 226.693 132.859 226.693 132.859C226.693 132.859 227.23 141.864 226.751 142.581C226.273 143.298 226.334 145.088 226.334 145.088C226.334 145.088 228.773 150.335 228.004 151.052C227.236 151.769 227.468 153.736 227.468 153.736C227.468 153.736 229.135 153.736 228.422 154.453C227.709 155.17 227.169 158.928 227.169 158.928L219.958 159.773C219.958 159.773 219.3 158.94 218.346 156.723C217.391 154.505 218.522 154.755 219.483 154.514C220.443 154.273 219.836 153.681 218.702 152.965C217.568 152.248 218.227 150.637 218.227 150.637C218.227 150.637 219.955 147.715 219.358 147.477C218.76 147.239 218.702 143.121 218.702 143.121C218.702 143.121 217.51 138.24 217.809 136.916C218.108 135.592 216.855 132.444 216.855 132.444L216.437 128.686C215.161 126.553 214.696 124.032 215.126 121.585V115.789C215.126 115.789 213.455 104.575 213.217 98.9076C213.065 95.2776 213.108 90.3237 213.156 87.2336C213.187 85.5009 213.217 84.3509 213.217 84.3509L238.974 81.6665C238.974 81.6665 238.95 82.8562 239.441 85.4948C239.706 86.9102 240.117 88.7435 240.764 91.0344C242.611 97.5959 241.48 102.486 241.48 102.486L241.239 110.78C241.239 110.78 243.505 116.326 243.029 118.235C242.742 119.369 242.58 120.531 242.547 121.701C242.547 121.701 247.614 133.811 247.078 137.331C246.541 140.851 248.746 146.4 248.746 146.4C248.746 146.4 249.349 150.335 248.752 151.409Z" fill="#464353"/>
<path opacity="0.05" d="M234.026 120.331L241.867 119.285C241.867 119.285 237.425 123.821 234.026 120.331Z" fill="black"/>
<path opacity="0.1" d="M240.733 111.619C240.733 111.619 241.002 114.395 239.303 115.438C239.303 115.438 242.343 114.962 240.733 111.619Z" fill="black"/>
<path opacity="0.1" d="M240.252 102.791C240.252 102.791 233.697 108.19 231.312 107.742C228.928 107.293 240.252 102.791 240.252 102.791Z" fill="black"/>
<path opacity="0.1" d="M224.306 122.863C224.306 122.863 219.327 123.994 219.178 125.995C219.029 127.997 224.306 122.863 224.306 122.863Z" fill="black"/>
<path opacity="0.05" d="M225.401 147.742C225.401 147.742 218.367 149.054 220.364 149.948C222.361 150.841 225.642 151.558 225.642 151.558C225.642 151.558 227.913 151.677 225.401 147.742Z" fill="black"/>
<g opacity="0.05">
<path opacity="0.05" d="M218.943 151.369C218.766 151.259 218.617 151.11 218.505 150.933C218.394 150.757 218.324 150.558 218.3 150.35L218.227 150.475C218.227 150.475 217.571 152.086 218.705 152.8C218.833 152.882 218.958 152.964 219.071 153.044C219.282 153.004 219.507 152.974 219.724 152.919C220.684 152.681 220.077 152.086 218.943 151.369Z" fill="black"/>
<path opacity="0.05" d="M228.004 150.89C228.199 150.713 228.193 150.256 228.074 149.67C227.77 150.131 227.681 150.851 227.675 151.397C227.749 151.207 227.861 151.035 228.004 150.89Z" fill="black"/>
<path opacity="0.05" d="M226.922 121.212C226.663 121.918 226.503 122.656 226.446 123.406C226.582 122.888 226.765 122.384 226.992 121.899L226.922 121.212Z" fill="black"/>
<path opacity="0.05" d="M243.032 118.083C243.079 117.868 243.1 117.649 243.096 117.43C243.008 117.875 242.947 118.287 242.901 118.65C242.941 118.464 242.983 118.287 243.032 118.083Z" fill="black"/>
<path opacity="0.05" d="M226.754 142.422C226.852 142.276 226.907 141.782 226.931 141.095C226.711 141.626 226.594 142.195 226.587 142.77C226.628 142.648 226.685 142.531 226.754 142.422Z" fill="black"/>
<path opacity="0.05" d="M228.218 153.672C227.848 154.869 227.574 156.093 227.398 157.333L220.187 158.166C220.187 158.166 219.529 157.333 218.574 155.115C218.497 154.944 218.429 154.769 218.37 154.59C217.937 154.789 217.76 155.237 218.334 156.546C219.288 158.754 219.949 159.596 219.949 159.596L227.16 158.76C227.16 158.76 227.697 155.002 228.41 154.285C228.776 153.941 228.55 153.761 228.218 153.672Z" fill="black"/>
<path opacity="0.05" d="M218.705 142.959C218.705 142.959 218.763 147.074 219.361 147.312C219.666 146.632 219.864 145.985 219.596 145.878C218.986 145.64 218.94 141.522 218.94 141.522C218.94 141.522 217.748 136.642 218.047 135.318C218.346 133.994 217.093 130.846 217.093 130.846L216.675 127.088C215.399 124.955 214.934 122.434 215.364 119.986V114.19C215.364 114.19 213.693 102.977 213.455 97.3092C213.303 93.6791 213.345 88.7252 213.394 85.6351C213.394 85.0769 213.413 84.5827 213.422 84.1648L213.217 84.1861C213.217 84.1861 213.184 85.3331 213.156 87.0688C213.108 90.1589 213.062 95.1128 213.217 98.7398C213.455 104.408 215.123 115.624 215.123 115.624V121.42C214.695 123.867 215.161 126.387 216.437 128.518L216.852 132.276C216.852 132.276 218.105 135.437 217.806 136.751C217.507 138.066 218.705 142.959 218.705 142.959Z" fill="black"/>
<path opacity="0.05" d="M239.931 156.558C239.346 155.71 238.955 154.742 238.788 153.724C238.053 154.389 238.898 156.97 239.703 157.995C240.535 159.069 246.736 159.724 247.935 157.754V156.619C246.31 158.214 240.718 157.574 239.931 156.558Z" fill="black"/>
<path opacity="0.05" d="M248.993 149.816C248.666 150.389 248.386 150.988 248.157 151.607V152.452C248.294 152.147 248.486 151.738 248.767 151.256C248.956 150.787 249.045 150.283 249.029 149.777C249.029 149.777 249.002 149.804 248.993 149.816Z" fill="black"/>
<path opacity="0.05" d="M240.297 150.759C240.524 150.3 240.721 149.826 240.886 149.341C240.886 149.341 239.87 149.579 238.261 147.669C237.09 146.281 237.023 143.658 237.191 141.943C236.886 142.959 236.413 147.193 238.023 149.103C239.075 150.35 239.87 150.68 240.297 150.759Z" fill="black"/>
<path opacity="0.05" d="M237.187 137.529C237.293 138.705 237.332 139.885 237.306 141.065C237.336 140.878 237.377 140.694 237.428 140.513C237.733 139.497 237.428 136.099 237.428 136.099C237.428 136.099 237.489 133.71 237.011 132.935C236.532 132.16 235.535 127.743 235.535 127.743C235.535 127.743 235.535 126.252 234.7 125.477C233.864 124.702 233.328 121.658 233.328 121.658C232.835 120.899 232.619 119.992 232.718 119.092C232.898 117.601 231.706 115.99 231.706 115.99L229.678 109.547L227.77 104.716L226.693 107.522C226.693 107.522 226.693 107.876 226.657 108.437L227.529 106.158L229.437 110.981L231.465 117.424C231.465 117.424 232.657 119.034 232.477 120.526C232.379 121.426 232.594 122.332 233.087 123.091C233.087 123.091 233.623 126.142 234.459 126.911C235.294 127.679 235.291 129.177 235.291 129.177C235.291 129.177 236.306 133.591 236.782 134.363C237.258 135.135 237.187 137.529 237.187 137.529Z" fill="black"/>
</g>
<path d="M242.194 27.7742L241.745 29.9522L241.773 30.9223L241.791 31.6361L239.303 31.8923L239.026 31.3768C238.511 30.4434 237.44 28.546 237.096 28.2531C236.636 27.8688 235.815 21.8106 236.791 22.1706C237.392 22.4026 237.885 22.8494 238.175 23.4243C238.175 23.4243 243.075 23.9856 242.194 27.7742Z" fill="#FFCDD3"/>
<path opacity="0.1" d="M241.791 31.6361L239.303 31.8923L239.026 31.3768C239.36 30.9957 239.817 30.7424 240.317 30.6601C240.817 30.5777 241.331 30.6715 241.77 30.9254L241.791 31.6361Z" fill="black"/>
<path d="M242.419 32.8166L239.139 33.5762L239.069 33.0881L238.883 31.7734C238.883 31.7734 240.181 30.0407 242.059 31.3402L242.224 32.0083L242.419 32.8166Z" fill="#6C63FF"/>
<path d="M189.278 28.0122L185.775 29.8912L185.47 29.2323C185.138 28.5338 184.641 27.4814 184.503 27.097C184.296 26.5175 182.836 25.7853 182.836 25.7853C179.177 22.2804 183.537 19.2666 183.537 19.2666C185.848 14.6146 188.415 20.8467 188.415 20.8467C188.415 20.8467 188.775 24.132 188.522 24.3516C188.269 24.5713 188.269 25.4712 188.269 25.4712C188.603 26.1159 188.885 26.786 189.113 27.4753C189.22 27.8078 189.278 28.0122 189.278 28.0122Z" fill="#FFCDD3"/>
<path opacity="0.1" d="M189.278 28.0122L185.775 29.8913L185.47 29.2324C185.964 28.8175 187.717 27.4021 188.293 27.4601C188.568 27.4945 188.846 27.5016 189.123 27.4815C189.22 27.8079 189.278 28.0122 189.278 28.0122Z" fill="black"/>
<path d="M189.635 29.0707L185.699 31.0108L185.619 30.1658L185.564 29.5801C185.564 29.5801 187.845 27.6248 188.519 27.701C188.859 27.7504 189.206 27.7504 189.546 27.701L189.592 28.4087L189.635 29.0707Z" fill="#6C63FF"/>
<path d="M232.654 42.2425C232.654 42.2425 215.495 44.1796 218.702 43.1363C220.934 42.4073 221.821 41.001 222.007 39.4148C222.16 38.0939 221.818 36.6694 221.37 35.4492C220.967 34.3667 220.456 33.3275 219.846 32.3469C219.846 32.3469 232.956 25.1296 230.337 31.6911C229.933 32.6835 229.682 33.7316 229.593 34.7995C229.514 35.8607 229.629 36.9273 229.931 37.9475C230.426 39.6029 231.368 41.0893 232.654 42.2425Z" fill="#FFCDD3"/>
<path opacity="0.1" d="M230.328 31.6819C229.924 32.6744 229.673 33.7225 229.584 34.7903C228.349 35.8305 226.995 35.7603 225.254 35.7603C223.919 35.7603 222.437 36.0837 221.37 35.4401C220.967 34.3576 220.456 33.3183 219.846 32.3378C219.846 32.3378 232.953 25.1204 230.328 31.6819Z" fill="black"/>
<path d="M225.023 36.2179C228.941 36.2179 232.117 33.0398 232.117 29.1195C232.117 25.1992 228.941 22.0211 225.023 22.0211C221.104 22.0211 217.928 25.1992 217.928 29.1195C217.928 33.0398 221.104 36.2179 225.023 36.2179Z" fill="#FFCDD3"/>
<path opacity="0.1" d="M232.654 42.2425C232.654 42.2425 215.495 44.1796 218.702 43.1363C220.934 42.4073 221.821 41.001 222.007 39.4148C222.861 38.4997 224.577 37.8194 225.666 37.4655C226.672 37.127 227.759 37.1089 228.776 37.4137C229.176 37.5342 229.556 37.7109 229.907 37.9384C230.407 39.5998 231.358 41.0898 232.654 42.2425Z" fill="black"/>
<path opacity="0.1" d="M242.419 32.8166L239.139 33.5762L239.069 33.0881C239.42 32.6054 239.911 32.2427 240.476 32.0495C241.041 31.8562 241.651 31.8418 242.224 32.0083L242.419 32.8166Z" fill="black"/>
<path opacity="0.1" d="M189.635 29.0708L185.699 31.0108L185.619 30.1659C186.894 29.48 188.219 28.8916 189.583 28.4058L189.635 29.0708Z" fill="black"/>
<path opacity="0.1" d="M239.441 85.5009C232.791 86.5625 223.34 87.9169 221.84 87.4593C220.593 87.081 216.617 87.1207 213.156 87.2397C213.187 85.507 213.217 84.357 213.217 84.357L238.974 81.6726C238.974 81.6726 238.95 82.8623 239.441 85.5009Z" fill="black"/>
<path d="M246.069 83.939C246.069 83.939 224.187 87.6972 221.84 86.9895C219.492 86.2818 207.434 87.0474 207.434 87.0474C202.007 90.6866 204.272 85.3178 204.272 85.3178C204.272 85.3178 203.797 82.5145 204.452 80.248C204.892 78.584 205.193 76.8861 205.352 75.1721C205.352 75.1721 205.233 71.5908 205.888 70.755C206.544 69.9192 207.321 63.9556 207.321 63.9556C207.321 63.9556 207.916 59.8985 207.858 59.0047C207.8 58.1109 208.035 55.6035 208.035 55.6035L208.812 51.4274C204.339 50.8326 190.745 42.4805 190.745 42.4805C190.089 39.6771 185.022 33.1156 185.022 33.1156C184.948 32.5639 184.808 32.0231 184.604 31.505C184.247 30.5502 189.613 28.6406 189.613 28.6406C189.613 28.6406 193.607 33.5213 194.443 34.8452C195.278 36.1691 198.138 38.6034 198.138 38.6034C198.582 38.5576 199.031 38.6161 199.449 38.7742L199.519 38.7955C200.477 39.172 201.376 39.6858 202.187 40.3208C203.531 40.2889 204.836 40.7811 205.824 41.6935C205.824 41.6935 208.263 41.3335 208.687 41.7514C209.111 42.1693 211.19 41.7514 211.19 41.7514C211.19 41.7514 213.275 37.3374 214.647 38.6186C216.019 39.8998 221.84 39.8388 221.84 39.8388C222.614 38.8077 224.501 38.0695 225.681 37.7035C226.688 37.3663 227.774 37.3482 228.791 37.6516C229.23 37.7826 229.643 37.9891 230.011 38.2617L233.55 41.7209C233.55 41.7209 234.562 40.4062 234.444 40.1103C234.325 39.8144 235.636 39.5734 235.636 39.5734C235.636 39.5734 237.364 39.0365 238.02 38.8566C238.675 38.6766 239.276 39.3873 239.331 39.4514C239.31 39.3751 238.861 37.9262 239.026 36.828C239.191 35.7299 238.309 34.6927 238.309 34.6927C240.395 29.5619 245.105 33.8569 245.105 33.8569C245.105 33.8569 245.642 36.6602 245.166 37.734C244.691 38.8077 245.642 41.0742 245.523 41.6721C245.404 42.27 245.764 43.2827 245.764 44.4175C245.764 45.5523 245.154 47.6967 244.81 48.6515C244.465 49.6063 241.59 51.7538 241.59 51.7538C241.59 51.7538 241.41 55.1551 240.157 57.1226C238.904 59.0901 239.691 65.8194 239.691 65.8194C239.691 65.8194 240.883 71.0692 242.374 72.7409C243.864 74.4125 246.069 83.939 246.069 83.939Z" fill="#3F3D56"/>
<path opacity="0.1" d="M214.172 44.6859C214.172 44.6859 213.516 42.7184 212.919 42.5506C212.325 42.3323 211.748 42.0734 211.19 41.7758L211.574 41.0406C211.574 41.0406 213.812 41.6507 214.172 42.3127C214.532 42.9746 214.172 44.6859 214.172 44.6859Z" fill="black"/>
<path opacity="0.1" d="M202.187 40.3329C202.068 40.943 196.76 41.4647 196.76 41.4647L199.443 38.7742L199.51 38.7986C200.472 39.177 201.374 39.694 202.187 40.3329Z" fill="black"/>
<path d="M186.833 32.6214C187.095 32.6214 187.308 32.4084 187.308 32.1455C187.308 31.8827 187.095 31.6697 186.833 31.6697C186.57 31.6697 186.357 31.8827 186.357 32.1455C186.357 32.4084 186.57 32.6214 186.833 32.6214Z" fill="#575988"/>
<path d="M187.443 33.5762C187.705 33.5762 187.918 33.3632 187.918 33.1004C187.918 32.8376 187.705 32.6245 187.443 32.6245C187.18 32.6245 186.967 32.8376 186.967 33.1004C186.967 33.3632 187.18 33.5762 187.443 33.5762Z" fill="#575988"/>
<path d="M188.04 34.4578C188.303 34.4578 188.516 34.2448 188.516 33.982C188.516 33.7192 188.303 33.5061 188.04 33.5061C187.778 33.5061 187.565 33.7192 187.565 33.982C187.565 34.2448 187.778 34.4578 188.04 34.4578Z" fill="#575988"/>
<path d="M188.665 35.4095C188.928 35.4095 189.141 35.1964 189.141 34.9336C189.141 34.6708 188.928 34.4578 188.665 34.4578C188.403 34.4578 188.19 34.6708 188.19 34.9336C188.19 35.1964 188.403 35.4095 188.665 35.4095Z" fill="#575988"/>
<path d="M244.867 35.2692C245.081 35.2692 245.255 35.0957 245.255 34.8818C245.255 34.6678 245.081 34.4944 244.867 34.4944C244.654 34.4944 244.48 34.6678 244.48 34.8818C244.48 35.0957 244.654 35.2692 244.867 35.2692Z" fill="#575988"/>
<path d="M244.928 36.1508C245.142 36.1508 245.316 35.9773 245.316 35.7634C245.316 35.5494 245.142 35.376 244.928 35.376C244.715 35.376 244.541 35.5494 244.541 35.7634C244.541 35.9773 244.715 36.1508 244.928 36.1508Z" fill="#575988"/>
<path d="M244.98 37.0293C245.194 37.0293 245.367 36.8559 245.367 36.6419C245.367 36.428 245.194 36.2545 244.98 36.2545C244.766 36.2545 244.593 36.428 244.593 36.6419C244.593 36.8559 244.766 37.0293 244.98 37.0293Z" fill="#575988"/>
<path opacity="0.1" d="M214.193 60.8532C214.135 60.7831 227.577 77.7649 238.011 67.9516C238.02 67.9547 221.535 70.1906 214.193 60.8532Z" fill="black"/>
<path opacity="0.1" d="M206.479 69.6813C206.479 69.6813 214.522 69.9009 215.364 72.2162V74.626C215.135 74.7532 214.877 74.8199 214.615 74.8199C214.353 74.8199 214.096 74.7532 213.867 74.626C213.056 74.1868 208.193 71.7159 206.479 72.9056V69.6813Z" fill="black"/>
<path d="M206.629 69.6813C206.629 69.6813 214.321 69.8918 215.126 72.1003V74.3942C214.907 74.516 214.66 74.5799 214.41 74.5799C214.159 74.5799 213.912 74.516 213.693 74.3942C212.919 73.9793 208.269 71.6214 206.629 72.7561V69.6813Z" fill="#3F3D56"/>
<path opacity="0.1" d="M210.87 52.2084C211.692 54.1114 212.739 55.9087 213.989 57.5619C215.348 59.3891 216.996 60.983 218.867 62.2809C218.867 62.2809 211.004 53.3126 210.87 52.2084Z" fill="black"/>
<path opacity="0.1" d="M208.239 42.8588C208.239 42.8588 209.58 48.6546 213.038 50.6221L208.239 42.8588Z" fill="black"/>
<path opacity="0.1" d="M206.181 43.4444C206.147 43.3377 204.989 48.0201 210.638 50.6221C210.638 50.6221 208.239 49.8077 206.181 43.4444Z" fill="black"/>
<path opacity="0.1" d="M241.3 39.5582C241.212 39.5582 244.087 41.3884 244.871 42.2426C244.871 42.2426 242.999 39.4362 241.3 39.5582Z" fill="black"/>
<path d="M223.105 35.5529C223.106 35.7078 223.139 35.8607 223.202 36.0021C223.265 36.1435 223.357 36.2702 223.472 36.3743C223.586 36.4784 223.721 36.5575 223.868 36.6067C224.015 36.6559 224.17 36.6742 224.324 36.6602C226.486 36.7945 228.739 36.889 230.727 36.0501C231.1 35.917 231.435 35.695 231.703 35.4035C232.056 34.9672 232.126 34.3755 232.27 33.8325C232.55 32.7709 233.148 31.8283 233.578 30.8186C234.305 29.1128 234.549 27.2394 234.282 25.4041C234.226 24.8415 234.04 24.2996 233.739 23.8209C233.166 23.0004 232.12 22.6679 231.361 22.0151C230.602 21.3623 230.114 20.3648 229.227 19.8798C228.428 19.4344 227.449 19.4893 226.55 19.6418C224.781 19.9424 223.086 20.5792 221.556 21.5178C221.041 21.8229 220.477 22.1981 219.885 22.0852C219.367 21.9876 218.989 21.5514 218.666 21.1426C218.25 22.1188 218.075 23.1808 218.157 24.2388C218.179 24.3941 218.174 24.5521 218.141 24.7056C218.067 24.8911 217.954 25.0585 217.809 25.1967C217.275 25.8068 216.943 26.7982 217.471 27.4265C217.699 27.698 218.053 27.8475 218.276 28.1251C218.675 28.6223 218.541 29.3453 218.532 29.9798C218.51 30.2013 218.566 30.4236 218.69 30.6082C218.805 30.7157 218.947 30.7916 219.1 30.8285C219.253 30.8654 219.414 30.862 219.565 30.8186C219.867 30.7276 220.184 30.6975 220.498 30.7302C220.829 30.8377 221.114 31.0524 221.309 31.3403C222.294 32.6245 222.684 34.0216 223.105 35.5529Z" fill="#2D293D"/>
<g opacity="0.1">
<path opacity="0.1" d="M231.956 34.8635C231.688 35.1551 231.353 35.377 230.98 35.5102C228.98 36.343 226.73 36.2484 224.577 36.1203C224.346 36.1226 224.118 36.0714 223.91 35.9708C223.58 35.7786 223.455 35.376 223.355 35.0099C222.934 33.4847 222.547 32.0845 221.547 30.8125C221.354 30.5191 221.069 30.2989 220.736 30.1872C220.422 30.1576 220.106 30.1876 219.803 30.2756C219.652 30.3194 219.492 30.3233 219.338 30.2869C219.185 30.2506 219.044 30.1753 218.928 30.0682C218.804 29.8836 218.747 29.6614 218.769 29.4398C218.769 28.7992 218.913 28.0824 218.513 27.5851C218.291 27.3076 217.937 27.1581 217.708 26.8835C217.559 26.6811 217.468 26.4421 217.444 26.1918C217.419 25.9414 217.464 25.6893 217.571 25.462C217.19 26.0721 217.029 26.8378 217.471 27.3625C217.699 27.6339 218.053 27.7834 218.276 28.061C218.675 28.5613 218.541 29.2812 218.532 29.9157C218.508 30.1369 218.563 30.3593 218.687 30.5441C218.803 30.6522 218.944 30.7284 219.098 30.7653C219.252 30.8022 219.413 30.7985 219.565 30.7546C219.867 30.6635 220.184 30.6335 220.498 30.6661C220.829 30.7736 221.114 30.9883 221.309 31.2762C222.306 32.5482 222.696 33.9453 223.117 35.4766C223.166 35.8535 223.354 36.1983 223.645 36.4436C223.854 36.5444 224.083 36.5946 224.315 36.59C226.477 36.7243 228.73 36.8219 230.718 35.98C231.091 35.8477 231.426 35.6256 231.693 35.3333C231.828 35.1614 231.931 34.9673 231.998 34.7598C232.001 34.7994 231.98 34.833 231.956 34.8635Z" fill="black"/>
<path opacity="0.1" d="M218.157 24.5195C218.252 24.4155 218.326 24.293 218.373 24.1596C218.401 24.0052 218.401 23.8472 218.373 23.6928C218.314 22.8231 218.427 21.9503 218.705 21.1244L218.666 21.0786C218.249 22.0533 218.074 23.1147 218.157 24.1718C218.166 24.2875 218.166 24.4038 218.157 24.5195Z" fill="black"/>
</g>
<path opacity="0.1" d="M221.84 39.8541C221.84 39.8541 230.703 41.0315 231.498 39.6985L221.84 39.8541Z" fill="black"/>
<path opacity="0.1" d="M239.069 36.1843C239.069 36.1843 243.996 36.1843 245.078 38.039L239.069 36.1843Z" fill="black"/>
<path d="M266.633 200.954C265.172 202.261 263.273 202.971 261.313 202.943C260.813 202.943 260.121 203.038 260.118 203.538C260.13 203.685 260.18 203.826 260.264 203.947C260.883 204.978 261.86 205.746 263.008 206.103C264.075 206.427 265.215 206.372 266.328 206.314L269.575 206.146C270.185 206.112 270.795 206.082 271.405 206.006C272.014 205.929 272.679 205.804 273.316 205.701C274.882 205.478 276.465 205.404 278.045 205.481C278.466 205.496 278.96 205.481 279.21 205.176C279.46 204.871 279.332 204.288 279.237 203.831C279.042 202.888 279.237 201.9 279.057 200.954C278.752 199.295 277.316 198.023 275.743 197.422C274.28 196.866 271.688 196.229 270.304 197.156C268.844 198.129 267.95 199.755 266.633 200.954Z" fill="#3F3D56"/>
<path d="M269.859 145.357C270.145 146.72 271.466 147.763 271.502 149.154C271.536 150.271 270.74 151.207 270.167 152.162C269.627 153.151 269.171 154.184 268.804 155.249C267.725 158.023 266.385 160.689 264.804 163.211C264.042 164.431 263.188 165.734 263.362 167.152C263.483 167.815 263.717 168.453 264.054 169.037L266.34 173.582C266.841 174.49 267.233 175.453 267.508 176.453C267.706 177.316 267.725 178.21 267.841 179.088C268.2 181.877 269.508 184.683 268.734 187.386C268.667 187.617 268.429 187.898 268.243 187.736C268.999 189.149 269.606 190.57 269.548 192.172C269.517 193.011 269.261 193.886 269.569 194.667C269.7 194.993 269.929 195.298 269.926 195.649C269.926 195.881 269.819 196.098 269.795 196.323C269.731 196.967 270.322 197.504 270.935 197.708C271.548 197.913 272.216 197.897 272.834 198.084C274.024 198.44 274.874 199.465 275.883 200.176C276.919 200.89 278.139 201.287 279.396 201.32C279.575 201.339 279.756 201.303 279.914 201.216C280.003 201.138 280.075 201.041 280.125 200.933C280.174 200.825 280.2 200.707 280.2 200.588C280.256 200.018 280.17 199.444 279.951 198.915C279.732 198.386 279.386 197.919 278.944 197.556C278.751 197.435 278.59 197.267 278.478 197.068C278.421 196.892 278.406 196.705 278.435 196.522C278.619 194.021 278.574 191.51 278.301 189.018C278.178 188.228 278.138 187.427 278.182 186.629C278.246 185.964 278.447 185.305 278.374 184.643C278.301 183.981 277.963 183.377 277.764 182.74C277.411 181.605 277.508 180.385 277.46 179.198C277.399 177.136 276.926 175.111 276.456 173.097C276.271 172.307 276.066 171.481 275.508 170.895C275.033 170.398 274.264 169.922 274.444 169.26C274.544 169.016 274.692 168.795 274.88 168.61C275.101 168.333 275.263 168.014 275.356 167.672C275.45 167.33 275.472 166.972 275.423 166.621C275.624 166.672 275.836 166.652 276.023 166.564C276.21 166.477 276.361 166.326 276.45 166.139C280.164 164.385 283.158 160.877 284.493 156.988C284.572 156.699 284.693 156.424 284.853 156.17C285.198 155.688 285.795 155.481 286.326 155.216C287.99 154.377 289.14 152.806 290.195 151.268C290.804 150.378 291.414 149.456 291.688 148.407C291.833 147.728 291.901 147.036 291.893 146.342L291.987 142.758C292.008 142.522 291.985 142.284 291.92 142.056C291.83 141.843 291.698 141.65 291.533 141.489C290.519 140.416 289.187 139.697 287.734 139.439C286.759 139.265 285.762 139.298 284.774 139.216C282.859 139.057 280.969 138.463 279.054 138.606C276.045 138.829 273.365 140.915 271.947 143.581C271.45 144.521 270.926 145.338 269.859 145.357Z" fill="#464353"/>
<path d="M253.151 122.051C253.192 122.605 253.117 123.16 252.932 123.683C252.697 124.184 252.108 124.574 251.593 124.37C251.749 124.019 251.337 123.619 250.953 123.662C250.764 123.706 250.588 123.794 250.441 123.921C250.294 124.047 250.18 124.208 250.108 124.388C249.854 124.9 249.768 125.48 249.864 126.044C249.986 126.746 250.392 127.42 250.285 128.125C250.2 128.71 249.77 129.293 249.999 129.836C250.147 130.084 250.333 130.307 250.55 130.498C250.852 130.869 250.999 131.342 250.962 131.819C250.925 132.295 250.707 132.74 250.352 133.06L256.121 133.176C255.91 134.14 256.343 135.125 256.837 135.983C258.221 138.339 260.131 140.343 262.418 141.837C264.705 143.331 267.307 144.275 270.02 144.594C269.874 144.68 269.748 144.797 269.652 144.937C269.556 145.078 269.493 145.237 269.466 145.405C269.44 145.573 269.451 145.745 269.499 145.908C269.546 146.071 269.63 146.221 269.743 146.348C270.212 146.815 271.008 146.757 271.597 146.455C272.185 146.153 272.645 145.653 273.182 145.265C274.129 144.594 275.285 144.282 276.441 144.387C277.164 144.457 277.865 144.692 278.591 144.728C280.725 144.841 282.554 143.304 284.609 142.675C286.106 142.215 287.804 142.215 289.06 141.278C289.603 140.876 290.048 140.214 289.89 139.561C289.758 139.186 289.551 138.842 289.28 138.551C288.557 137.615 288.13 136.489 287.612 135.424C286.585 133.317 285.172 131.421 283.444 129.836C282.141 128.696 280.759 127.648 279.31 126.7C278.96 126.441 278.586 126.216 278.194 126.026C277.688 125.803 277.127 125.697 276.67 125.416C275.993 124.989 275.603 124.235 275.081 123.628C273.938 122.292 272.182 121.679 270.773 120.63C269.828 119.925 268.993 118.998 267.865 118.659C267.316 118.491 266.734 118.479 266.185 118.314C264.938 117.936 264.029 116.829 262.807 116.381C261.84 116.027 260.773 116.118 259.758 115.993C258.614 115.852 257.52 115.435 256.572 114.779C256.266 114.53 255.924 114.33 255.557 114.187C254.011 113.717 253.886 116.597 253.727 117.595C253.523 119.077 253.151 120.55 253.151 122.051Z" fill="#6C63FF"/>
<path d="M254.657 131.709C254.916 134.522 252.794 137.246 253.413 140C253.544 140.586 253.798 141.144 253.889 141.739C254.148 143.371 253.173 144.917 252.243 146.284L244.255 158.013C243.934 158.528 243.551 159.001 243.114 159.422C241.59 160.78 239.297 160.642 237.291 161.045C235.882 161.335 234.551 161.924 233.389 162.772C233.336 162.812 233.302 162.872 233.293 162.937C233.284 163.003 233.3 163.069 233.34 163.122C233.671 163.574 234.11 163.935 234.616 164.173C235.123 164.411 235.681 164.519 236.239 164.486C236.45 164.761 236.239 165.169 235.95 165.368C235.523 165.673 234.931 165.743 234.846 166.472C234.817 166.725 234.868 166.981 234.992 167.204C235.315 167.696 235.816 168.043 236.389 168.174C239.154 169.022 242.142 167.533 244.212 165.511C246.282 163.489 247.767 160.935 249.797 158.879C250.922 157.738 252.2 156.765 253.359 155.661C255.67 153.456 257.468 150.78 259.2 148.099C259.721 147.291 260.249 146.461 260.465 145.524C260.682 144.588 260.581 143.639 260.828 142.733C261.151 141.547 262.02 140.598 262.743 139.604C264.161 137.651 265.109 135.263 264.92 132.856C264.731 130.449 263.243 128.076 260.975 127.258C260.271 126.979 259.496 126.932 258.764 127.124C257.834 127.411 257.148 128.18 256.514 128.918L254.99 130.669C254.618 131.057 254.327 131.514 254.133 132.014C254.035 132.266 254.011 132.541 254.065 132.806C254.119 133.071 254.249 133.315 254.438 133.509" fill="#FBBEBE"/>
<path d="M258.706 120.172C257.657 120.233 256.502 120.337 255.761 121.087C255.45 121.432 255.199 121.826 255.017 122.253C254.298 123.72 253.596 125.254 253.544 126.889C253.502 128.195 253.88 129.473 254.078 130.763C254.243 131.837 253.825 132.932 253.746 134.018C255.048 133.619 256.767 133.076 257.947 132.401C258.752 131.941 259.529 131.416 260.407 131.123C261.66 130.705 263.761 131.428 264.953 132.008C265.017 131.172 264.389 129.714 264.456 128.875C264.466 128.522 264.528 128.172 264.642 127.838C264.821 127.484 265.032 127.148 265.273 126.834C265.727 126.096 265.936 125.233 265.87 124.369C265.803 123.505 265.465 122.684 264.904 122.024C263.846 120.834 262.191 120.389 260.612 120.194C259.617 120.078 258.615 120.043 257.615 120.09" fill="#6C63FF"/>
<defs>
<linearGradient id="paint0_linear" x1="215.315" y1="166.609" x2="215.315" y2="17.5461" gradientUnits="userSpaceOnUse">
<stop stop-color="#808080" stop-opacity="0.25"/>
<stop offset="0.54" stop-color="#808080" stop-opacity="0.12"/>
<stop offset="1" stop-color="#808080" stop-opacity="0.1"/>
</linearGradient>
</defs>
</svg>
