<svg width="292" height="316" viewBox="0 0 292 316" fill="none" xmlns="http://www.w3.org/2000/svg">
<path d="M286.796 315.514H22.0665C20.8102 315.513 19.6057 315.013 18.7174 314.126C17.829 313.238 17.3293 312.034 17.3279 310.779V22.2726C17.3293 21.0173 17.829 19.8138 18.7174 18.9261C19.6057 18.0385 20.8102 17.5392 22.0665 17.5378H286.796C288.053 17.5392 289.257 18.0385 290.146 18.9261C291.034 19.8138 291.534 21.0173 291.535 22.2726V310.779C291.534 312.034 291.034 313.238 290.146 314.126C289.257 315.013 288.053 315.513 286.796 315.514ZM22.0665 19.4318C21.3127 19.4326 20.5901 19.7321 20.057 20.2647C19.524 20.7973 19.2242 21.5194 19.2234 22.2726V310.779C19.2242 311.532 19.524 312.254 20.057 312.787C20.5901 313.32 21.3127 313.619 22.0665 313.62H286.796C287.55 313.619 288.273 313.32 288.806 312.787C289.339 312.254 289.639 311.532 289.64 310.779V22.2726C289.639 21.5194 289.339 20.7973 288.806 20.2647C288.273 19.7321 287.55 19.4326 286.796 19.4318H22.0665Z" fill="#E6E6E6"/>
<path d="M76.6946 125.078C80.1292 125.078 82.9136 122.296 82.9136 118.864C82.9136 115.432 80.1292 112.65 76.6946 112.65C73.26 112.65 70.4756 115.432 70.4756 118.864C70.4756 122.296 73.26 125.078 76.6946 125.078Z" fill="#E6E6E6"/>
<path d="M102.607 125.078C106.042 125.078 108.826 122.296 108.826 118.864C108.826 115.432 106.042 112.65 102.607 112.65C99.1723 112.65 96.3879 115.432 96.3879 118.864C96.3879 122.296 99.1723 125.078 102.607 125.078Z" fill="#E6E6E6"/>
<path d="M128.519 125.078C131.954 125.078 134.738 122.296 134.738 118.864C134.738 115.432 131.954 112.65 128.519 112.65C125.085 112.65 122.3 115.432 122.3 118.864C122.3 122.296 125.085 125.078 128.519 125.078Z" fill="#6C63FF"/>
<path d="M154.432 125.078C157.866 125.078 160.651 122.296 160.651 118.864C160.651 115.432 157.866 112.65 154.432 112.65C150.997 112.65 148.213 115.432 148.213 118.864C148.213 122.296 150.997 125.078 154.432 125.078Z" fill="#6C63FF"/>
<path d="M180.344 125.078C183.779 125.078 186.563 122.296 186.563 118.864C186.563 115.432 183.779 112.65 180.344 112.65C176.909 112.65 174.125 115.432 174.125 118.864C174.125 122.296 176.909 125.078 180.344 125.078Z" fill="#6C63FF"/>
<path d="M206.256 125.078C209.691 125.078 212.475 122.296 212.475 118.864C212.475 115.432 209.691 112.65 206.256 112.65C202.822 112.65 200.037 115.432 200.037 118.864C200.037 122.296 202.822 125.078 206.256 125.078Z" fill="#E6E6E6"/>
<path d="M232.168 125.078C235.603 125.078 238.387 122.296 238.387 118.864C238.387 115.432 235.603 112.65 232.168 112.65C228.734 112.65 225.95 115.432 225.95 118.864C225.95 122.296 228.734 125.078 232.168 125.078Z" fill="#E6E6E6"/>
<path d="M76.6946 144.756C80.1292 144.756 82.9136 141.974 82.9136 138.542C82.9136 135.11 80.1292 132.328 76.6946 132.328C73.26 132.328 70.4756 135.11 70.4756 138.542C70.4756 141.974 73.26 144.756 76.6946 144.756Z" fill="#E6E6E6"/>
<path d="M102.607 144.756C106.042 144.756 108.826 141.974 108.826 138.542C108.826 135.11 106.042 132.328 102.607 132.328C99.1723 132.328 96.3879 135.11 96.3879 138.542C96.3879 141.974 99.1723 144.756 102.607 144.756Z" fill="#E6E6E6"/>
<path d="M128.519 144.756C131.954 144.756 134.738 141.974 134.738 138.542C134.738 135.11 131.954 132.328 128.519 132.328C125.085 132.328 122.3 135.11 122.3 138.542C122.3 141.974 125.085 144.756 128.519 144.756Z" fill="#E6E6E6"/>
<path d="M154.432 144.756C157.866 144.756 160.651 141.974 160.651 138.542C160.651 135.11 157.866 132.328 154.432 132.328C150.997 132.328 148.213 135.11 148.213 138.542C148.213 141.974 150.997 144.756 154.432 144.756Z" fill="#E6E6E6"/>
<path d="M180.344 144.756C183.779 144.756 186.563 141.974 186.563 138.542C186.563 135.11 183.779 132.328 180.344 132.328C176.909 132.328 174.125 135.11 174.125 138.542C174.125 141.974 176.909 144.756 180.344 144.756Z" fill="#E6E6E6"/>
<path d="M206.256 144.756C209.691 144.756 212.475 141.974 212.475 138.542C212.475 135.11 209.691 132.328 206.256 132.328C202.822 132.328 200.037 135.11 200.037 138.542C200.037 141.974 202.822 144.756 206.256 144.756Z" fill="#E6E6E6"/>
<path d="M232.168 144.756C235.603 144.756 238.387 141.974 238.387 138.542C238.387 135.11 235.603 132.328 232.168 132.328C228.734 132.328 225.95 135.11 225.95 138.542C225.95 141.974 228.734 144.756 232.168 144.756Z" fill="#E6E6E6"/>
<path d="M76.6946 164.433C80.1292 164.433 82.9136 161.651 82.9136 158.219C82.9136 154.787 80.1292 152.005 76.6946 152.005C73.26 152.005 70.4756 154.787 70.4756 158.219C70.4756 161.651 73.26 164.433 76.6946 164.433Z" fill="#6C63FF"/>
<path d="M102.607 164.433C106.042 164.433 108.826 161.651 108.826 158.219C108.826 154.787 106.042 152.005 102.607 152.005C99.1723 152.005 96.3879 154.787 96.3879 158.219C96.3879 161.651 99.1723 164.433 102.607 164.433Z" fill="#6C63FF"/>
<path d="M128.519 164.433C131.954 164.433 134.738 161.651 134.738 158.219C134.738 154.787 131.954 152.005 128.519 152.005C125.085 152.005 122.3 154.787 122.3 158.219C122.3 161.651 125.085 164.433 128.519 164.433Z" fill="#6C63FF"/>
<path d="M154.432 164.433C157.866 164.433 160.651 161.651 160.651 158.219C160.651 154.787 157.866 152.005 154.432 152.005C150.997 152.005 148.213 154.787 148.213 158.219C148.213 161.651 150.997 164.433 154.432 164.433Z" fill="#E6E6E6"/>
<path d="M180.344 164.433C183.779 164.433 186.563 161.651 186.563 158.219C186.563 154.787 183.779 152.005 180.344 152.005C176.909 152.005 174.125 154.787 174.125 158.219C174.125 161.651 176.909 164.433 180.344 164.433Z" fill="#E6E6E6"/>
<path d="M206.256 164.433C209.691 164.433 212.475 161.651 212.475 158.219C212.475 154.787 209.691 152.005 206.256 152.005C202.822 152.005 200.037 154.787 200.037 158.219C200.037 161.651 202.822 164.433 206.256 164.433Z" fill="#E6E6E6"/>
<path d="M232.168 164.433C235.603 164.433 238.387 161.651 238.387 158.219C238.387 154.787 235.603 152.005 232.168 152.005C228.734 152.005 225.95 154.787 225.95 158.219C225.95 161.651 228.734 164.433 232.168 164.433Z" fill="#E6E6E6"/>
<path d="M76.6946 184.111C80.1292 184.111 82.9136 181.329 82.9136 177.897C82.9136 174.465 80.1292 171.683 76.6946 171.683C73.26 171.683 70.4756 174.465 70.4756 177.897C70.4756 181.329 73.26 184.111 76.6946 184.111Z" fill="#E6E6E6"/>
<path d="M102.607 184.111C106.042 184.111 108.826 181.329 108.826 177.897C108.826 174.465 106.042 171.683 102.607 171.683C99.1723 171.683 96.3879 174.465 96.3879 177.897C96.3879 181.329 99.1723 184.111 102.607 184.111Z" fill="#E6E6E6"/>
<path d="M76.6946 203.788C80.1292 203.788 82.9136 201.006 82.9136 197.574C82.9136 194.142 80.1292 191.36 76.6946 191.36C73.26 191.36 70.4756 194.142 70.4756 197.574C70.4756 201.006 73.26 203.788 76.6946 203.788Z" fill="#E6E6E6"/>
<path d="M102.607 203.788C106.042 203.788 108.826 201.006 108.826 197.574C108.826 194.142 106.042 191.36 102.607 191.36C99.1723 191.36 96.3879 194.142 96.3879 197.574C96.3879 201.006 99.1723 203.788 102.607 203.788Z" fill="#E6E6E6"/>
<path d="M128.519 203.788C131.954 203.788 134.738 201.006 134.738 197.574C134.738 194.142 131.954 191.36 128.519 191.36C125.085 191.36 122.3 194.142 122.3 197.574C122.3 201.006 125.085 203.788 128.519 203.788Z" fill="#E6E6E6"/>
<path d="M128.519 184.111C131.954 184.111 134.738 181.329 134.738 177.897C134.738 174.465 131.954 171.683 128.519 171.683C125.085 171.683 122.3 174.465 122.3 177.897C122.3 181.329 125.085 184.111 128.519 184.111Z" fill="#E6E6E6"/>
<path d="M154.432 184.111C157.866 184.111 160.651 181.329 160.651 177.897C160.651 174.465 157.866 171.683 154.432 171.683C150.997 171.683 148.213 174.465 148.213 177.897C148.213 181.329 150.997 184.111 154.432 184.111Z" fill="#6C63FF"/>
<path d="M180.344 184.111C183.779 184.111 186.563 181.329 186.563 177.897C186.563 174.465 183.779 171.683 180.344 171.683C176.909 171.683 174.125 174.465 174.125 177.897C174.125 181.329 176.909 184.111 180.344 184.111Z" fill="#6C63FF"/>
<path d="M206.256 184.111C209.691 184.111 212.475 181.329 212.475 177.897C212.475 174.465 209.691 171.683 206.256 171.683C202.822 171.683 200.037 174.465 200.037 177.897C200.037 181.329 202.822 184.111 206.256 184.111Z" fill="#6C63FF"/>
<path d="M232.168 184.111C235.603 184.111 238.387 181.329 238.387 177.897C238.387 174.465 235.603 171.683 232.168 171.683C228.734 171.683 225.95 174.465 225.95 177.897C225.95 181.329 228.734 184.111 232.168 184.111Z" fill="#E6E6E6"/>
<path d="M107.354 63.9378C106.369 63.954 105.429 64.3566 104.738 65.0588C104.046 65.761 103.659 66.7065 103.659 67.6915C103.659 68.6765 104.046 69.6221 104.738 70.3243C105.429 71.0265 106.369 71.4291 107.354 71.4453H201.549C202.042 71.4539 202.533 71.3653 202.992 71.1844C203.452 71.0034 203.871 70.7338 204.226 70.3909C204.581 70.048 204.865 69.6386 205.061 69.186C205.258 68.7334 205.363 68.2465 205.371 67.7532C205.379 67.2599 205.29 66.7699 205.109 66.3111C204.927 65.8523 204.657 65.4337 204.313 65.0794C203.97 64.725 203.56 64.4418 203.106 64.2459C202.653 64.05 202.166 63.9453 201.672 63.9378C201.631 63.9371 201.59 63.9371 201.549 63.9378H107.354Z" fill="#3F3D56"/>
<path d="M222.91 62.8925C222.841 62.9611 222.787 63.0425 222.749 63.1321C222.712 63.2218 222.693 63.3178 222.693 63.4148C222.693 63.5118 222.712 63.6079 222.749 63.6975C222.787 63.7871 222.841 63.8685 222.91 63.9371L226.083 67.1081H218.258C218.062 67.1081 217.874 67.1859 217.735 67.3244C217.596 67.463 217.518 67.6509 217.518 67.8468C217.518 68.0427 217.596 68.2305 217.735 68.3691C217.874 68.5076 218.062 68.5854 218.258 68.5854H226.083L222.91 71.7564C222.841 71.825 222.787 71.9064 222.749 71.996C222.712 72.0856 222.693 72.1817 222.693 72.2787C222.693 72.3757 222.712 72.4717 222.749 72.5614C222.787 72.651 222.841 72.7324 222.91 72.801C222.978 72.8696 223.06 72.924 223.149 72.9611C223.239 72.9982 223.335 73.0174 223.432 73.0174C223.529 73.0174 223.626 72.9983 223.715 72.9611C223.805 72.924 223.886 72.8696 223.955 72.801L228.391 68.3691C228.529 68.2305 228.607 68.0427 228.607 67.8468C228.607 67.6509 228.529 67.463 228.391 67.3244L223.955 62.8925C223.886 62.8239 223.805 62.7695 223.715 62.7324C223.626 62.6953 223.529 62.6761 223.432 62.6761C223.335 62.6761 223.239 62.6953 223.15 62.7324C223.06 62.7695 222.978 62.8239 222.91 62.8925Z" fill="#E6E6E6"/>
<path d="M85.9535 62.8926C86.0221 62.9612 86.0766 63.0426 86.1137 63.1323C86.1509 63.2219 86.17 63.3179 86.17 63.4149C86.17 63.5119 86.1509 63.608 86.1137 63.6976C86.0766 63.7872 86.0221 63.8687 85.9535 63.9373L82.78 67.1082H90.6055C90.8016 67.1082 90.9896 67.1861 91.1282 67.3246C91.2669 67.4631 91.3448 67.651 91.3448 67.8469C91.3448 68.0428 91.2669 68.2307 91.1282 68.3692C90.9896 68.5077 90.8016 68.5856 90.6055 68.5856H82.78L85.9535 71.7565C86.0921 71.8951 86.17 72.0829 86.17 72.2788C86.17 72.4747 86.0921 72.6626 85.9535 72.8011C85.8149 72.9397 85.6268 73.0175 85.4307 73.0175C85.2347 73.0175 85.0467 72.9397 84.908 72.8012L80.4725 68.3692C80.3339 68.2307 80.256 68.0428 80.256 67.8469C80.256 67.651 80.3339 67.4631 80.4725 67.3246L84.908 62.8926C84.9767 62.824 85.0582 62.7696 85.1479 62.7325C85.2375 62.6954 85.3337 62.6763 85.4307 62.6763C85.5278 62.6763 85.624 62.6954 85.7136 62.7325C85.8033 62.7696 85.8848 62.824 85.9535 62.8926Z" fill="#E6E6E6"/>
<path d="M102.089 243.448C100.318 243.447 98.5652 243.795 96.9294 244.471C95.2935 245.147 93.807 246.138 92.5548 247.389C91.3026 248.639 90.3093 250.124 89.6315 251.758C88.9538 253.392 88.605 255.143 88.605 256.912C88.605 258.681 88.9538 260.432 89.6315 262.066C90.3093 263.701 91.3026 265.185 92.5548 266.435C93.807 267.686 95.2935 268.677 96.9294 269.353C98.5652 270.029 100.318 270.377 102.089 270.376H206.774C208.545 270.377 210.298 270.029 211.934 269.353C213.57 268.677 215.056 267.686 216.308 266.435C217.56 265.185 218.554 263.701 219.231 262.066C219.909 260.432 220.258 258.681 220.258 256.912C220.258 255.143 219.909 253.392 219.231 251.758C218.554 250.124 217.56 248.639 216.308 247.389C215.056 246.138 213.57 245.147 211.934 244.471C210.298 243.795 208.545 243.447 206.774 243.448H102.089Z" fill="#E6E6E6"/>
<path d="M21.6538 43.2728C17.3711 43.2728 13.1846 42.0039 9.62361 39.6264C6.06266 37.249 3.28724 33.8698 1.64831 29.9163C0.00938267 25.9628 -0.419436 21.6124 0.416082 17.4153C1.2516 13.2183 3.31392 9.36307 6.34227 6.33716C9.37061 3.31126 13.2289 1.25059 17.4294 0.415748C21.6298 -0.419097 25.9837 0.00937151 29.9404 1.64698C33.8971 3.28459 37.279 6.05778 39.6583 9.61587C42.0377 13.174 43.3077 17.3571 43.3077 21.6364C43.3012 27.3727 41.0177 32.8723 36.9582 36.9285C32.8988 40.9847 27.3948 43.2663 21.6538 43.2728Z" fill="#6C63FF"/>
<path d="M30.1978 19.5021H23.7899V13.0992C23.7899 12.5331 23.5648 11.9902 23.1642 11.59C22.7636 11.1897 22.2203 10.9648 21.6538 10.9648C21.0873 10.9648 20.544 11.1897 20.1434 11.59C19.7428 11.9902 19.5178 12.5331 19.5178 13.0992V19.5021H13.1097C12.5432 19.5021 11.9999 19.7269 11.5993 20.1272C11.1987 20.5275 10.9737 21.0703 10.9737 21.6364C10.9737 22.2024 11.1987 22.7453 11.5993 23.1455C11.9999 23.5458 12.5432 23.7707 13.1097 23.7707H19.5178V30.1736C19.5178 30.7396 19.7428 31.2825 20.1434 31.6828C20.544 32.083 21.0873 32.3079 21.6538 32.3079C22.2203 32.3079 22.7636 32.083 23.1642 31.6828C23.5648 31.2825 23.7899 30.7396 23.7899 30.1736V23.7707H30.1978C30.7643 23.7707 31.3076 23.5458 31.7082 23.1455C32.1088 22.7453 32.3338 22.2024 32.3338 21.6364C32.3338 21.0703 32.1088 20.5275 31.7082 20.1272C31.3076 19.7269 30.7643 19.5021 30.1978 19.5021Z" fill="white"/>
</svg>
