<svg width="476" height="302" viewBox="0 0 476 302" fill="none" xmlns="http://www.w3.org/2000/svg">
<path d="M475.94 0.266602H0.203857V301.19H475.94V0.266602Z" fill="#E6E6E6"/>
<path d="M463.892 38.0095H15.363V283.387H463.892V38.0095Z" fill="white"/>
<path d="M475.736 0H0V19.9616H475.736V0Z" fill="#6C63FF"/>
<path d="M15.0199 13.9054C17.0889 13.9054 18.7661 12.2488 18.7661 10.2054C18.7661 8.16192 17.0889 6.50537 15.0199 6.50537C12.9509 6.50537 11.2737 8.16192 11.2737 10.2054C11.2737 12.2488 12.9509 13.9054 15.0199 13.9054Z" fill="white"/>
<path d="M29.2384 13.9054C31.3074 13.9054 32.9846 12.2488 32.9846 10.2054C32.9846 8.16192 31.3074 6.50537 29.2384 6.50537C27.1694 6.50537 25.4922 8.16192 25.4922 10.2054C25.4922 12.2488 27.1694 13.9054 29.2384 13.9054Z" fill="white"/>
<path d="M43.4569 13.9054C45.5259 13.9054 47.2031 12.2488 47.2031 10.2054C47.2031 8.16192 45.5259 6.50537 43.4569 6.50537C41.3879 6.50537 39.7107 8.16192 39.7107 10.2054C39.7107 12.2488 41.3879 13.9054 43.4569 13.9054Z" fill="white"/>
<path d="M93.8345 72.4023L64.1658 101.339L93.8345 130.275L100.51 123.682L78.0754 101.521L100.697 79.1784L93.8345 72.4023Z" fill="#6C63FF"/>
<path d="M118.144 72.4023L147.812 101.339L118.144 130.275L111.469 123.682L133.905 101.522L111.281 79.1784L118.144 72.4023Z" fill="#6C63FF"/>
<path d="M214.11 79.6641C211.683 79.6641 209.716 81.0426 209.716 82.7424C209.716 84.4422 211.683 85.8207 214.11 85.8207H421.233C423.659 85.8207 425.626 84.4422 425.626 82.7424C425.626 81.0426 423.659 79.6641 421.233 79.6641H214.11Z" fill="#E6E6E6"/>
<path d="M419.173 248.319H70.741C67.1792 248.319 64.2927 246.288 64.2888 243.785V183.046C64.2927 180.544 67.1792 178.513 70.741 178.513H419.173C422.735 178.513 425.621 180.544 425.625 183.046V243.784C425.622 246.287 422.735 248.316 419.173 248.319ZM70.741 180.325C68.6038 180.325 66.8719 181.543 66.8695 183.045V243.783C66.8695 245.284 68.6038 246.501 70.741 246.503H419.173C421.31 246.503 423.042 245.284 423.045 243.783V183.046C423.045 181.545 421.31 180.328 419.173 180.326L70.741 180.325Z" fill="#E6E6E6"/>
<path d="M106.621 228.786C115.231 228.786 122.21 221.893 122.21 213.39C122.21 204.887 115.231 197.993 106.621 197.993C98.012 197.993 91.0327 204.887 91.0327 213.39C91.0327 221.893 98.012 228.786 106.621 228.786Z" fill="#E6E6E6"/>
<path d="M150.588 201.076C149.761 201.075 148.968 201.399 148.383 201.975C147.798 202.552 147.468 203.334 147.467 204.151C147.466 204.967 147.793 205.751 148.377 206.329C148.961 206.907 149.753 207.232 150.58 207.233H297.528C298.354 207.233 299.147 206.909 299.732 206.331C300.316 205.754 300.645 204.971 300.645 204.155C300.645 203.338 300.316 202.555 299.732 201.978C299.147 201.401 298.354 201.076 297.528 201.076H150.588Z" fill="#6C63FF"/>
<path d="M150.588 219.547C150.179 219.547 149.773 219.626 149.395 219.78C149.017 219.934 148.673 220.16 148.383 220.446C147.798 221.022 147.468 221.805 147.467 222.621C147.466 223.438 147.793 224.221 148.377 224.799C148.961 225.377 149.753 225.703 150.58 225.704H213.815C214.642 225.705 215.435 225.382 216.021 224.805C216.606 224.228 216.935 223.446 216.936 222.629C216.937 221.813 216.61 221.03 216.026 220.452C215.443 219.874 214.65 219.548 213.824 219.547H150.588Z" fill="#6C63FF"/>
<path d="M212.597 98.1064C211.814 98.1688 211.083 98.5202 210.55 99.0906C210.017 99.661 209.722 100.409 209.722 101.185C209.722 101.961 210.017 102.709 210.55 103.279C211.083 103.849 211.814 104.201 212.597 104.263H348.34C349.124 104.201 349.854 103.849 350.387 103.279C350.92 102.709 351.216 101.961 351.216 101.185C351.216 100.409 350.92 99.661 350.387 99.0906C349.854 98.5202 349.124 98.1688 348.34 98.1064H212.597Z" fill="#E6E6E6"/>
<path d="M213.49 116.549C211.406 116.549 209.716 117.927 209.716 119.627C209.716 121.327 211.406 122.705 213.49 122.705H391.426C393.511 122.705 395.2 121.327 395.2 119.627C395.2 117.927 393.511 116.549 391.426 116.549H213.49Z" fill="#E6E6E6"/>
</svg>
