<svg width="401" height="264" viewBox="0 0 401 264" fill="none" xmlns="http://www.w3.org/2000/svg">
<path d="M396.976 0.466064H4.14402C3.26119 0.466384 2.41461 0.816829 1.79036 1.44037C1.16611 2.06392 0.815261 2.90954 0.814941 3.79136V206.413C0.815261 207.295 1.16611 208.14 1.79036 208.764C2.41461 209.387 3.26119 209.738 4.14402 209.738H396.976C397.497 209.736 398.01 209.612 398.475 209.377C398.94 209.141 399.343 208.8 399.652 208.381C399.83 208.15 399.972 207.893 400.074 207.619C400.228 207.235 400.306 206.826 400.305 206.413V3.79136C400.304 2.90954 399.953 2.06393 399.329 1.44038C398.705 0.816836 397.858 0.466389 396.976 0.466064ZM398.973 206.413C398.972 206.942 398.762 207.449 398.387 207.823C398.013 208.197 397.505 208.407 396.976 208.408H4.14402C3.61451 208.407 3.10692 208.197 2.7325 207.823C2.35807 207.449 2.14737 206.942 2.14657 206.413V3.79136C2.14737 3.26245 2.35807 2.75543 2.73249 2.38143C3.10691 2.00744 3.61451 1.79698 4.14402 1.79618H396.976C397.505 1.79698 398.013 2.00744 398.387 2.38143C398.762 2.75543 398.972 3.26245 398.973 3.79136V206.413Z" fill="#E6E6E6"/>
<path d="M84.9553 65.008C84.5332 65.015 84.1308 65.1874 83.8348 65.488C83.5388 65.7886 83.3729 66.1934 83.3729 66.615C83.3729 67.0367 83.5388 67.4414 83.8348 67.742C84.1308 68.0427 84.5332 68.215 84.9553 68.222H160.804C161.23 68.2279 161.641 68.0649 161.947 67.7685C162.253 67.4722 162.428 67.0668 162.435 66.6413C162.442 66.2158 162.28 65.805 161.984 65.4988C161.688 65.1926 161.283 65.0161 160.857 65.008C160.839 65.0077 160.822 65.0077 160.804 65.008H84.9553Z" fill="#E6E6E6"/>
<path d="M84.9553 50.3767C84.5332 50.3837 84.1308 50.5561 83.8348 50.8567C83.5388 51.1573 83.3729 51.5621 83.3729 51.9837C83.3729 52.4053 83.5388 52.8101 83.8348 53.1107C84.1308 53.4113 84.5332 53.5837 84.9553 53.5907H106.651C107.077 53.5966 107.488 53.4335 107.794 53.1372C108.1 52.8409 108.275 52.4355 108.282 52.01C108.289 51.5845 108.127 51.1736 107.831 50.8674C107.535 50.5612 107.13 50.3848 106.704 50.3767C106.686 50.3764 106.669 50.3764 106.651 50.3767H84.9553Z" fill="#E6E6E6"/>
<path d="M84.9553 80.0827C84.5332 80.0897 84.1308 80.2621 83.8348 80.5627C83.5388 80.8633 83.3729 81.2681 83.3729 81.6897C83.3729 82.1114 83.5388 82.5161 83.8348 82.8167C84.1308 83.1174 84.5332 83.2897 84.9553 83.2967H160.804C161.23 83.3026 161.641 83.1396 161.947 82.8432C162.253 82.5469 162.428 82.1416 162.435 81.7161C162.442 81.2906 162.28 80.8797 161.984 80.5735C161.688 80.2673 161.283 80.0908 160.857 80.0827C160.839 80.0824 160.822 80.0824 160.804 80.0827H84.9553Z" fill="#E6E6E6"/>
<path d="M314.833 65.008C315.255 65.015 315.657 65.1874 315.953 65.488C316.249 65.7886 316.415 66.1934 316.415 66.615C316.415 67.0367 316.249 67.4414 315.953 67.742C315.657 68.0427 315.255 68.215 314.833 68.222H238.984C238.772 68.226 238.562 68.1883 238.365 68.111C238.168 68.0337 237.988 67.9183 237.836 67.7715C237.684 67.6247 237.562 67.4493 237.478 67.2554C237.393 67.0615 237.348 66.8529 237.345 66.6415C237.341 66.4301 237.379 66.2201 237.457 66.0236C237.535 65.827 237.651 65.6477 237.799 65.496C237.946 65.3442 238.122 65.223 238.316 65.1393C238.51 65.0556 238.719 65.011 238.931 65.008C238.949 65.0077 238.966 65.0077 238.984 65.008H314.833Z" fill="#E6E6E6"/>
<path d="M314.833 50.3767C315.255 50.3837 315.657 50.5561 315.953 50.8567C316.249 51.1573 316.415 51.5621 316.415 51.9837C316.415 52.4053 316.249 52.8101 315.953 53.1107C315.657 53.4113 315.255 53.5837 314.833 53.5907H293.137C292.711 53.5966 292.3 53.4335 291.994 53.1372C291.688 52.8409 291.513 52.4355 291.506 52.01C291.499 51.5845 291.661 51.1736 291.957 50.8674C292.253 50.5612 292.658 50.3848 293.084 50.3767C293.102 50.3764 293.119 50.3764 293.137 50.3767H314.833Z" fill="#E6E6E6"/>
<path d="M314.833 80.0827C315.255 80.0897 315.657 80.2621 315.953 80.5627C316.249 80.8634 316.415 81.2681 316.415 81.6897C316.415 82.1114 316.249 82.5161 315.953 82.8167C315.657 83.1174 315.255 83.2897 314.833 83.2967H238.984C238.772 83.3007 238.562 83.263 238.365 83.1857C238.168 83.1084 237.988 82.993 237.836 82.8462C237.684 82.6994 237.562 82.524 237.478 82.3301C237.393 82.1362 237.348 81.9276 237.345 81.7162C237.341 81.5048 237.379 81.2948 237.457 81.0983C237.535 80.9017 237.651 80.7224 237.799 80.5707C237.946 80.4189 238.122 80.2977 238.316 80.214C238.51 80.1303 238.719 80.0857 238.931 80.0827C238.949 80.0824 238.966 80.0824 238.984 80.0827H314.833Z" fill="#E6E6E6"/>
<path d="M186.723 142.138H82.4833C80.4513 142.138 78.8045 140.966 78.8022 139.522V116.892C78.8045 115.447 80.4513 114.276 82.4833 114.276H186.723C188.755 114.276 190.401 115.447 190.404 116.892V139.522C190.402 140.966 188.755 142.136 186.723 142.138Z" fill="#E6E6E6"/>
<path d="M65.1006 87.3495C65.1054 90.2772 64.4324 93.1664 63.1342 95.7913C62.9878 96.0928 62.8324 96.3854 62.6682 96.678H29.3019C29.1377 96.3854 28.9823 96.0928 28.8358 95.7913C27.562 93.2113 26.8881 90.3772 26.8645 87.5007C26.841 84.6241 27.4683 81.7794 28.6998 79.1789C29.9312 76.5785 31.7349 74.2895 33.9761 72.483C36.2174 70.6765 38.8383 69.3991 41.643 68.7462C44.4478 68.0933 47.364 68.0817 50.1739 68.7124C52.9838 69.3431 55.6147 70.5998 57.8702 72.3885C60.1257 74.1773 61.9475 76.4519 63.1995 79.0425C64.4515 81.6331 65.1014 84.4728 65.1006 87.3495Z" fill="#2F2E41"/>
<path d="M46.4694 89.0393C50.0778 89.0393 53.003 86.1174 53.003 82.5132C53.003 78.9089 50.0778 75.9871 46.4694 75.9871C42.8611 75.9871 39.9359 78.9089 39.9359 82.5132C39.9359 86.1174 42.8611 89.0393 46.4694 89.0393Z" fill="white"/>
<path d="M46.4694 84.6884C47.6721 84.6884 48.6472 83.7144 48.6472 82.513C48.6472 81.3116 47.6721 80.3376 46.4694 80.3376C45.2666 80.3376 44.2915 81.3116 44.2915 82.513C44.2915 83.7144 45.2666 84.6884 46.4694 84.6884Z" fill="#3F3D56"/>
<path d="M27.4417 69.5896C25.8981 62.6846 30.8323 55.7074 38.4625 54.0056C46.0928 52.3037 53.5296 56.5218 55.0732 63.4267C56.6168 70.3317 51.5599 72.8784 43.9297 74.5802C36.2995 76.282 28.9853 76.4946 27.4417 69.5896Z" fill="#6C63FF"/>
<path d="M71.3916 37.2661H16.3507C15.7622 37.2663 15.1978 37.5 14.7816 37.9157C14.3655 38.3313 14.1316 38.8951 14.1313 39.483V94.4612C14.1316 95.0491 14.3655 95.6128 14.7816 96.0285C15.1978 96.4442 15.7622 96.6779 16.3507 96.6781H71.3916C71.9801 96.6779 72.5445 96.4442 72.9607 96.0285C73.3768 95.6128 73.6107 95.0491 73.6109 94.4612V39.483C73.6107 38.8951 73.3768 38.3313 72.9607 37.9157C72.5445 37.5 71.9801 37.2663 71.3916 37.2661ZM72.7232 94.4612C72.7222 94.8137 72.5815 95.1514 72.332 95.4006C72.0825 95.6498 71.7444 95.7903 71.3916 95.7913H16.3507C15.9979 95.7903 15.6598 95.6498 15.4103 95.4006C15.1608 95.1514 15.0201 94.8137 15.0191 94.4612V39.483C15.0201 39.1305 15.1608 38.7928 15.4103 38.5436C15.6598 38.2944 15.9979 38.1539 16.3507 38.1529H71.3916C71.7444 38.1539 72.0825 38.2944 72.332 38.5436C72.5815 38.7928 72.7222 39.1305 72.7232 39.483V94.4612Z" fill="#3F3D56"/>
<path d="M385.213 37.2661H330.172C329.584 37.2663 329.019 37.5 328.603 37.9157C328.187 38.3313 327.953 38.8951 327.953 39.483V94.4612C327.953 95.0491 328.187 95.6128 328.603 96.0285C329.019 96.4442 329.584 96.6779 330.172 96.6781H385.213C385.802 96.6779 386.366 96.4442 386.782 96.0285C387.198 95.6128 387.432 95.0491 387.432 94.4612V39.483C387.432 38.8951 387.198 38.3313 386.782 37.9157C386.366 37.5 385.802 37.2663 385.213 37.2661ZM386.545 94.4612C386.544 94.8137 386.403 95.1514 386.153 95.4006C385.904 95.6498 385.566 95.7903 385.213 95.7913H330.172C329.819 95.7903 329.481 95.6498 329.232 95.4006C328.982 95.1514 328.842 94.8137 328.841 94.4612V39.483C328.842 39.1305 328.982 38.7928 329.232 38.5436C329.481 38.2944 329.819 38.1539 330.172 38.1529H385.213C385.566 38.1539 385.904 38.2944 386.153 38.5436C386.403 38.7928 386.544 39.1305 386.545 39.483V94.4612Z" fill="#3F3D56"/>
<path d="M400.305 17.4604H2.14661V18.3472H400.305V17.4604Z" fill="#E6E6E6"/>
<path d="M11.9119 14.2107C14.1182 14.2107 15.9068 12.4241 15.9068 10.2203C15.9068 8.01652 14.1182 6.22998 11.9119 6.22998C9.70557 6.22998 7.91699 8.01652 7.91699 10.2203C7.91699 12.4241 9.70557 14.2107 11.9119 14.2107Z" fill="#E6E6E6"/>
<path d="M24.7843 14.2107C26.9907 14.2107 28.7792 12.4241 28.7792 10.2203C28.7792 8.01652 26.9907 6.22998 24.7843 6.22998C22.578 6.22998 20.7894 8.01652 20.7894 10.2203C20.7894 12.4241 22.578 14.2107 24.7843 14.2107Z" fill="#E6E6E6"/>
<path d="M37.6569 14.2107C39.8632 14.2107 41.6518 12.4241 41.6518 10.2203C41.6518 8.01652 39.8632 6.22998 37.6569 6.22998C35.4506 6.22998 33.662 8.01652 33.662 10.2203C33.662 12.4241 35.4506 14.2107 37.6569 14.2107Z" fill="#E6E6E6"/>
<path d="M72.1676 103.805C73.1859 102.55 70.7689 98.9071 66.7692 95.6673C62.7696 92.4274 58.7017 90.8176 57.6834 92.0718C56.6652 93.326 59.0821 96.9692 63.0818 100.209C67.0815 103.449 71.1494 105.059 72.1676 103.805Z" fill="#2F2E41"/>
<path d="M32.6626 87.3997C33.6809 86.1455 31.2639 82.5024 27.2642 79.2625C23.2645 76.0226 19.1967 74.4129 18.1784 75.6671C17.1602 76.9213 19.5771 80.5644 23.5768 83.8043C27.5765 87.0442 31.6443 88.6539 32.6626 87.3997Z" fill="#2F2E41"/>
<path d="M171.257 128.003H67.0175C64.9854 128.003 63.3386 126.831 63.3364 125.387V102.756C63.3386 101.312 64.9854 100.14 67.0175 100.14H171.257C173.289 100.14 174.936 101.312 174.938 102.756V125.386C174.936 126.83 173.289 128.001 171.257 128.003ZM67.0175 101.186C65.7982 101.186 64.8101 101.889 64.8088 102.755V125.385C64.8088 126.252 65.7982 126.954 67.0175 126.955H171.257C172.476 126.955 173.464 126.252 173.466 125.385V102.756C173.466 101.89 172.476 101.187 171.257 101.186L67.0175 101.186Z" fill="#3F3D56"/>
<path d="M82.2744 122.314C86.9322 122.314 90.708 118.542 90.708 113.89C90.708 109.237 86.9322 105.466 82.2744 105.466C77.6166 105.466 73.8407 109.237 73.8407 113.89C73.8407 118.542 77.6166 122.314 82.2744 122.314Z" fill="#6C63FF"/>
<path d="M100.491 107.849C100.069 107.856 99.6665 108.028 99.3705 108.329C99.0745 108.63 98.9086 109.034 98.9086 109.456C98.9086 109.878 99.0745 110.283 99.3705 110.583C99.6665 110.884 100.069 111.056 100.491 111.063H160.804C161.23 111.069 161.641 110.906 161.947 110.61C162.253 110.313 162.428 109.908 162.435 109.482C162.442 109.057 162.28 108.646 161.984 108.34C161.688 108.034 161.283 107.857 160.857 107.849C160.839 107.849 160.822 107.849 160.804 107.849H100.491Z" fill="#3F3D56"/>
<path d="M100.491 116.716C100.069 116.723 99.6665 116.896 99.3705 117.196C99.0745 117.497 98.9086 117.902 98.9086 118.323C98.9086 118.745 99.0745 119.15 99.3705 119.45C99.6665 119.751 100.069 119.923 100.491 119.93H160.804C161.23 119.936 161.641 119.773 161.947 119.477C162.253 119.18 162.428 118.775 162.435 118.35C162.442 117.924 162.28 117.513 161.984 117.207C161.688 116.901 161.283 116.724 160.857 116.716C160.839 116.716 160.822 116.716 160.804 116.716H100.491Z" fill="#3F3D56"/>
<path d="M213.385 104.829C212.856 104.83 212.348 105.04 211.973 105.414C211.599 105.788 211.388 106.295 211.388 106.824V148.501C211.388 149.03 211.599 149.537 211.973 149.911C212.348 150.286 212.856 150.496 213.385 150.497H375.401C375.93 150.496 376.438 150.286 376.812 149.911C377.187 149.537 377.397 149.03 377.398 148.501V106.824C377.397 106.295 377.187 105.788 376.812 105.414C376.438 105.04 375.93 104.83 375.401 104.829H213.385Z" fill="#6C63FF"/>
<path d="M375.401 264H213.385C212.503 263.999 211.656 263.648 211.032 263.025C210.408 262.402 210.057 261.556 210.056 260.675V107.268C210.057 106.386 210.408 105.541 211.032 104.917C211.656 104.294 212.503 103.943 213.385 103.942H375.401C376.283 103.943 377.129 104.294 377.754 104.917C378.378 105.541 378.729 106.386 378.73 107.268V260.675C378.729 261.556 378.378 262.402 377.754 263.025C377.129 263.648 376.283 263.999 375.401 264ZM213.385 105.273C212.856 105.273 212.348 105.483 211.973 105.858C211.599 106.232 211.388 106.739 211.388 107.268V260.675C211.388 261.204 211.599 261.711 211.973 262.085C212.348 262.459 212.856 262.669 213.385 262.67H375.401C375.93 262.669 376.438 262.459 376.812 262.085C377.187 261.711 377.397 261.204 377.398 260.675V107.268C377.397 106.739 377.187 106.232 376.812 105.858C376.438 105.483 375.93 105.273 375.401 105.273H213.385Z" fill="#3F3D56"/>
<path d="M331.166 167.928H282.562V168.815H331.166C333.559 168.815 335.854 169.764 337.546 171.454C339.238 173.144 340.189 175.437 340.189 177.827C340.189 180.217 339.238 182.51 337.546 184.2C335.854 185.89 333.559 186.839 331.166 186.839H257.62C255.227 186.839 252.932 185.89 251.24 184.2C249.548 182.51 248.597 180.217 248.597 177.827C248.597 175.437 249.548 173.144 251.24 171.454C252.932 169.764 255.227 168.815 257.62 168.815H260.368V167.928H257.62C254.991 167.928 252.47 168.971 250.612 170.827C248.753 172.684 247.709 175.202 247.709 177.827C247.709 180.452 248.753 182.97 250.612 184.827C252.47 186.683 254.991 187.726 257.62 187.726H331.166C333.794 187.726 336.315 186.683 338.174 184.827C340.032 182.97 341.076 180.452 341.076 177.827C341.076 175.202 340.032 172.684 338.174 170.827C336.315 168.971 333.794 167.928 331.166 167.928Z" fill="#E6E6E6"/>
<path d="M331.166 198.521H282.562V199.407H331.166C333.559 199.407 335.854 200.357 337.546 202.047C339.238 203.737 340.189 206.03 340.189 208.42C340.189 210.81 339.238 213.102 337.546 214.792C335.854 216.483 333.559 217.432 331.166 217.432H257.62C255.227 217.432 252.932 216.483 251.24 214.792C249.548 213.102 248.597 210.81 248.597 208.42C248.597 206.03 249.548 203.737 251.24 202.047C252.932 200.357 255.227 199.407 257.62 199.407H260.368V198.521H257.62C254.991 198.521 252.47 199.564 250.612 201.42C248.753 203.277 247.709 205.794 247.709 208.42C247.709 211.045 248.753 213.563 250.612 215.419C252.47 217.276 254.991 218.319 257.62 218.319H331.166C333.794 218.319 336.315 217.276 338.174 215.419C340.032 213.563 341.076 211.045 341.076 208.42C341.076 205.794 340.032 203.277 338.174 201.42C336.315 199.564 333.794 198.521 331.166 198.521Z" fill="#E6E6E6"/>
<path d="M331.166 229.114H282.562V230H331.166C333.559 230 335.854 230.95 337.546 232.64C339.238 234.33 340.189 236.622 340.189 239.013C340.189 241.403 339.238 243.695 337.546 245.385C335.854 247.075 333.559 248.025 331.166 248.025H257.62C255.227 248.025 252.932 247.075 251.24 245.385C249.548 243.695 248.597 241.403 248.597 239.013C248.597 236.622 249.548 234.33 251.24 232.64C252.932 230.95 255.227 230 257.62 230H260.368V229.114H257.62C254.991 229.114 252.47 230.156 250.612 232.013C248.753 233.869 247.709 236.387 247.709 239.013C247.709 241.638 248.753 244.156 250.612 246.012C252.47 247.869 254.991 248.912 257.62 248.912H331.166C333.794 248.912 336.315 247.869 338.174 246.012C340.032 244.156 341.076 241.638 341.076 239.013C341.076 236.387 340.032 233.869 338.174 232.013C336.315 230.156 333.794 229.114 331.166 229.114Z" fill="#E6E6E6"/>
<path d="M265.854 165.586C265.162 165.597 264.501 165.88 264.016 166.373C263.53 166.866 263.258 167.53 263.258 168.222C263.258 168.914 263.53 169.578 264.016 170.071C264.501 170.564 265.162 170.847 265.854 170.858H277.433C278.133 170.869 278.808 170.602 279.31 170.116C279.813 169.629 280.101 168.964 280.113 168.265C280.124 167.566 279.858 166.892 279.371 166.389C278.885 165.887 278.219 165.598 277.52 165.586C277.491 165.585 277.462 165.585 277.433 165.586H265.854Z" fill="#3F3D56"/>
<path d="M265.854 196.621C265.162 196.633 264.501 196.916 264.016 197.409C263.53 197.902 263.258 198.566 263.258 199.258C263.258 199.95 263.53 200.614 264.016 201.107C264.501 201.6 265.162 201.883 265.854 201.894H277.433C278.133 201.905 278.808 201.638 279.31 201.151C279.813 200.665 280.101 200 280.113 199.301C280.124 198.602 279.858 197.928 279.371 197.425C278.885 196.923 278.219 196.634 277.52 196.621C277.491 196.621 277.462 196.621 277.433 196.621H265.854Z" fill="#3F3D56"/>
<path d="M265.854 226.771C265.162 226.782 264.501 227.065 264.016 227.558C263.53 228.051 263.258 228.715 263.258 229.407C263.258 230.099 263.53 230.763 264.016 231.256C264.501 231.749 265.162 232.032 265.854 232.044H277.433C277.78 232.05 278.125 231.987 278.447 231.86C278.77 231.733 279.064 231.544 279.314 231.303C279.563 231.062 279.763 230.775 279.901 230.457C280.039 230.139 280.113 229.797 280.119 229.451C280.124 229.104 280.062 228.76 279.934 228.438C279.806 228.115 279.617 227.822 279.375 227.573C279.134 227.324 278.846 227.125 278.527 226.987C278.209 226.85 277.867 226.776 277.52 226.771C277.491 226.77 277.462 226.77 277.433 226.771H265.854Z" fill="#3F3D56"/>
<path d="M261.262 175.191C260.569 175.202 259.909 175.485 259.423 175.978C258.938 176.471 258.665 177.135 258.665 177.827C258.665 178.519 258.938 179.183 259.423 179.676C259.909 180.169 260.569 180.452 261.262 180.463H327.437C328.137 180.474 328.812 180.207 329.315 179.721C329.817 179.234 330.106 178.569 330.117 177.87C330.129 177.171 329.862 176.497 329.376 175.994C328.89 175.492 328.224 175.203 327.524 175.191C327.495 175.19 327.466 175.19 327.437 175.191H261.262Z" fill="#E6E6E6"/>
<path d="M261.262 205.783C260.569 205.795 259.909 206.077 259.423 206.571C258.938 207.064 258.665 207.728 258.665 208.42C258.665 209.111 258.938 209.775 259.423 210.269C259.909 210.762 260.569 211.045 261.262 211.056H327.437C328.137 211.067 328.812 210.8 329.315 210.313C329.817 209.827 330.106 209.162 330.117 208.463C330.129 207.764 329.862 207.089 329.376 206.587C328.89 206.085 328.224 205.796 327.524 205.783C327.495 205.783 327.466 205.783 327.437 205.783H261.262Z" fill="#E6E6E6"/>
<path d="M261.262 236.376C260.569 236.387 259.909 236.67 259.423 237.163C258.938 237.657 258.665 238.321 258.665 239.012C258.665 239.704 258.938 240.368 259.423 240.861C259.909 241.355 260.569 241.637 261.262 241.649H327.437C328.137 241.659 328.812 241.392 329.315 240.906C329.817 240.42 330.106 239.754 330.117 239.056C330.129 238.357 329.862 237.682 329.376 237.18C328.89 236.677 328.224 236.388 327.524 236.376C327.495 236.376 327.466 236.376 327.437 236.376H261.262Z" fill="#E6E6E6"/>
<path d="M245.085 127.661C245.085 129.765 244.46 131.822 243.29 133.572C242.119 135.322 240.456 136.686 238.509 137.492C236.562 138.297 234.42 138.508 232.354 138.097C230.287 137.686 228.389 136.673 226.899 135.185C225.409 133.697 224.395 131.801 223.984 129.737C223.573 127.672 223.784 125.533 224.59 123.588C225.396 121.644 226.762 119.982 228.514 118.813C230.266 117.644 232.325 117.02 234.432 117.02C235.833 117.014 237.221 117.285 238.516 117.817C239.811 118.35 240.988 119.134 241.978 120.123C242.969 121.112 243.753 122.288 244.287 123.581C244.82 124.875 245.091 126.262 245.085 127.661Z" fill="white"/>
<path d="M253.537 119.263C252.845 119.274 252.184 119.557 251.699 120.05C251.213 120.543 250.941 121.207 250.941 121.899C250.941 122.591 251.213 123.255 251.699 123.748C252.184 124.241 252.845 124.524 253.537 124.535H319.713C320.06 124.541 320.404 124.479 320.727 124.352C321.05 124.225 321.344 124.036 321.594 123.795C321.843 123.554 322.043 123.267 322.181 122.949C322.319 122.631 322.393 122.289 322.398 121.942C322.404 121.596 322.341 121.252 322.214 120.93C322.086 120.607 321.896 120.313 321.655 120.065C321.414 119.816 321.126 119.617 320.807 119.479C320.489 119.342 320.146 119.268 319.8 119.263C319.771 119.262 319.742 119.262 319.713 119.263H253.537Z" fill="white"/>
<path d="M253.537 130.79C252.845 130.802 252.184 131.085 251.699 131.578C251.213 132.071 250.941 132.735 250.941 133.427C250.941 134.118 251.213 134.783 251.699 135.276C252.184 135.769 252.845 136.052 253.537 136.063H362.325C362.672 136.069 363.017 136.007 363.339 135.88C363.662 135.753 363.957 135.563 364.206 135.323C364.455 135.082 364.655 134.794 364.793 134.476C364.931 134.158 365.005 133.816 365.011 133.47C365.016 133.124 364.954 132.779 364.826 132.457C364.699 132.135 364.509 131.841 364.267 131.592C364.026 131.343 363.738 131.144 363.42 131.007C363.101 130.869 362.759 130.796 362.412 130.79C362.383 130.79 362.354 130.79 362.325 130.79H253.537Z" fill="white"/>
<path d="M379.304 73.0949C384.29 71.8086 388.004 69.4983 387.6 67.9349C387.196 66.3714 382.826 66.1467 377.84 67.4331C372.854 68.7194 369.14 71.0297 369.544 72.5931C369.949 74.1566 374.318 74.3812 379.304 73.0949Z" fill="#2F2E41"/>
<path d="M342.214 73.1594C344.19 68.4094 344.582 64.0565 343.089 63.4369C341.596 62.8172 338.784 66.1654 336.808 70.9154C334.832 75.6653 334.44 80.0182 335.933 80.6379C337.426 81.2575 340.238 77.9093 342.214 73.1594Z" fill="#2F2E41"/>
<path d="M359.879 86.2601C370.178 86.2601 378.527 77.9205 378.527 67.633C378.527 57.3455 370.178 49.0059 359.879 49.0059C349.58 49.0059 341.231 57.3455 341.231 67.633C341.231 77.9205 349.58 86.2601 359.879 86.2601Z" fill="#2F2E41"/>
<path d="M357.161 92.4036L351.496 92.4299C347.349 88.3522 347.963 85.079 351.449 82.2912L357.114 82.2649C354.502 85.4771 353.806 88.8114 357.161 92.4036Z" fill="#2F2E41"/>
<path d="M354.046 95.0106C356.298 93.698 357.724 91.95 357.231 91.1065C356.738 90.2629 354.513 90.6433 352.261 91.9559C350.009 93.2686 348.583 95.0166 349.076 95.8601C349.569 96.7037 351.794 96.3233 354.046 95.0106Z" fill="#2F2E41"/>
<path d="M367.371 92.4036L361.705 92.4299C357.558 88.3522 358.172 85.079 361.658 82.2912L367.323 82.2649C364.712 85.4771 364.015 88.8114 367.371 92.4036Z" fill="#2F2E41"/>
<path d="M364.255 95.0106C366.507 93.698 367.933 91.95 367.44 91.1065C366.947 90.2629 364.722 90.6433 362.47 91.9559C360.218 93.2686 358.792 95.0166 359.285 95.8601C359.778 96.7037 362.003 96.3233 364.255 95.0106Z" fill="#2F2E41"/>
<path d="M359.385 69.2859C362.905 69.2859 365.758 66.4357 365.758 62.9197C365.758 59.4037 362.905 56.5535 359.385 56.5535C355.865 56.5535 353.011 59.4037 353.011 62.9197C353.011 66.4357 355.865 69.2859 359.385 69.2859Z" fill="white"/>
<path d="M359.421 68.104C360.594 68.104 361.545 67.1539 361.545 65.9819C361.545 64.81 360.594 63.8599 359.421 63.8599C358.248 63.8599 357.297 64.81 357.297 65.9819C357.297 67.1539 358.248 68.104 359.421 68.104Z" fill="#3F3D56"/>
<path d="M377.888 50.2265C379.362 43.4838 374.517 36.6999 367.066 35.0743C359.615 33.4488 352.38 37.5971 350.905 44.3399C349.431 51.0826 354.375 53.544 361.826 55.1696C369.277 56.7951 376.413 56.9693 377.888 50.2265Z" fill="#6C63FF"/>
<path d="M363.647 75.7505C363.651 76.3082 363.545 76.8611 363.334 77.3776C363.124 77.8941 362.814 78.3641 362.421 78.7608C362.029 79.1575 361.562 79.4731 361.047 79.6895C360.533 79.9059 359.981 80.0189 359.422 80.022C358.864 80.0252 358.311 79.9184 357.794 79.7078C357.277 79.4972 356.807 79.1869 356.41 78.7946C356.013 78.4024 355.697 77.9359 355.481 77.4217C355.265 76.9076 355.152 76.356 355.15 75.7983L355.15 75.79C355.139 73.446 357.039 72.9517 359.385 72.9409C361.732 72.93 363.637 73.4066 363.647 75.7505Z" fill="white"/>
<path d="M241.84 135.282V135.305C239.925 137.159 237.382 138.227 234.715 138.298C232.048 138.369 229.452 137.436 227.441 135.686C227.432 135.553 227.428 135.415 227.428 135.282C227.428 133.373 228.187 131.542 229.538 130.193C230.89 128.843 232.723 128.084 234.634 128.084C236.545 128.084 238.378 128.843 239.73 130.193C241.081 131.542 241.84 133.373 241.84 135.282Z" fill="#2F2E41"/>
<path d="M234.816 135.918C236.176 135.918 237.279 134.817 237.279 133.458C237.279 132.099 236.176 130.997 234.816 130.997C233.455 130.997 232.352 132.099 232.352 133.458C232.352 134.817 233.455 135.918 234.816 135.918Z" fill="white"/>
<path d="M234.816 134.278C235.269 134.278 235.637 133.911 235.637 133.458C235.637 133.005 235.269 132.637 234.816 132.637C234.362 132.637 233.995 133.005 233.995 133.458C233.995 133.911 234.362 134.278 234.816 134.278Z" fill="#3F3D56"/>
<path d="M227.641 128.585C227.059 125.981 228.92 123.351 231.797 122.709C234.674 122.067 237.478 123.658 238.06 126.261C238.642 128.865 236.735 129.825 233.858 130.467C230.981 131.108 228.223 131.188 227.641 128.585Z" fill="#6C63FF"/>
<path d="M292.967 104.139C291.944 99.6767 294.273 94.783 298.194 92.5003C299.995 91.452 302.256 90.905 304.228 91.8403C304.61 91.9866 304.949 92.2265 305.214 92.5379C305.479 92.8493 305.661 93.2222 305.744 93.6223C305.78 94.0546 305.676 94.4869 305.448 94.856C305.22 95.2251 304.879 95.5115 304.476 95.6734C304.077 95.8821 303.634 95.991 303.183 95.9905C302.733 95.99 302.289 95.8803 301.891 95.6707C301.466 95.3838 301.114 95.0006 300.866 94.5524C300.617 94.1041 300.478 93.6035 300.46 93.0914C300.268 90.5451 302.222 88.6818 304.476 87.8853C307.365 86.8648 310.478 87.3421 313.468 87.4113C316.334 87.4715 319.197 87.2231 322.009 86.6704C328.263 85.4429 334.14 82.763 339.165 78.8475C339.84 78.3219 338.892 77.3866 338.223 77.9069C333.162 81.8154 327.222 84.43 320.92 85.5238C317.686 86.0407 314.404 86.1946 311.135 85.9825C308.014 85.8314 304.627 85.827 301.949 87.6828C299.769 89.1936 298.473 91.9235 299.415 94.5344C299.605 95.1126 299.919 95.6421 300.336 96.0855C300.753 96.5288 301.263 96.8753 301.829 97.1002C302.362 97.2754 302.925 97.3434 303.486 97.3003C304.046 97.2572 304.592 97.1038 305.092 96.849C305.589 96.6292 306.024 96.2899 306.357 95.8615C306.69 95.433 306.912 94.9287 307.003 94.3936C307.094 93.8585 307.05 93.3093 306.877 92.7951C306.703 92.2809 306.405 91.8176 306.008 91.4467C304.282 89.8408 301.506 89.732 299.385 90.4903C294.502 92.2369 291.104 97.4298 291.409 102.6C291.448 103.238 291.54 103.871 291.683 104.493C291.875 105.327 293.159 104.974 292.967 104.139V104.139Z" fill="#3F3D56"/>
</svg>
