<svg width="313" height="233" viewBox="0 0 313 233" fill="none" xmlns="http://www.w3.org/2000/svg">
<path d="M109.218 71.4429H149.549" stroke="#3F3D56" stroke-width="1.6069" stroke-miterlimit="10"/>
<path d="M61.1709 115.919C63.3523 110.217 63.6682 105.039 61.8766 104.355C60.0849 103.67 56.864 107.739 54.6826 113.441C52.5012 119.144 52.1852 124.322 53.9769 125.006C55.7686 125.691 58.9894 121.622 61.1709 115.919Z" fill="#2F2E41"/>
<path d="M311.259 142.531C315.646 175.159 309.672 207.823 279.283 220.542C248.894 233.262 213.94 218.957 201.21 188.591C188.481 158.226 218.515 140.057 233.186 110.58C262.98 50.72 297.633 41.204 311.259 142.531Z" fill="#F2F2F2"/>
<path d="M256.55 228.802C282.846 228.802 304.163 225.905 304.163 222.33C304.163 218.755 282.846 215.858 256.55 215.858C230.254 215.858 208.937 218.755 208.937 222.33C208.937 225.905 230.254 228.802 256.55 228.802Z" fill="#3F3D56"/>
<path d="M225.402 205.857L227.193 212.331L238.801 209.125L237.01 202.651L225.402 205.857Z" fill="#2F2E41"/>
<path d="M226.202 213.476C227.321 213.167 227.559 210.501 226.735 207.522C225.91 204.542 224.336 202.377 223.218 202.686C222.099 202.995 221.861 205.661 222.685 208.64C223.51 211.62 225.084 213.785 226.202 213.476Z" fill="#2F2E41"/>
<path d="M262.041 183.592C262.862 177.542 261.986 172.429 260.086 172.172C258.185 171.914 255.979 176.61 255.158 182.66C254.338 188.71 255.213 193.823 257.114 194.08C259.015 194.338 261.221 189.642 262.041 183.592Z" fill="#2F2E41"/>
<path d="M256.434 225.93C268.654 225.93 278.56 216.031 278.56 203.821C278.56 191.61 268.654 181.712 256.434 181.712C244.214 181.712 234.308 191.61 234.308 203.821C234.308 216.031 244.214 225.93 256.434 225.93Z" fill="#2F2E41"/>
<path d="M225.402 201.939L227.193 208.413L238.801 205.207L237.01 198.733L225.402 201.939Z" fill="#2F2E41"/>
<path d="M226.202 209.558C227.321 209.249 227.559 206.583 226.735 203.604C225.91 200.624 224.336 198.459 223.218 198.768C222.099 199.077 221.861 201.743 222.685 204.722C223.51 207.702 225.084 209.867 226.202 209.558Z" fill="#2F2E41"/>
<path d="M262.244 198.711C266.42 198.711 269.806 195.328 269.806 191.155C269.806 186.982 266.42 183.599 262.244 183.599C258.067 183.599 254.682 186.982 254.682 191.155C254.682 195.328 258.067 198.711 262.244 198.711Z" fill="white"/>
<path d="M264.662 190.336C266.054 190.336 267.183 189.209 267.183 187.818C267.183 186.427 266.054 185.299 264.662 185.299C263.27 185.299 262.141 186.427 262.141 187.818C262.141 189.209 263.27 190.336 264.662 190.336Z" fill="#3F3D56"/>
<path d="M281.985 219.014C290.173 218.604 296.444 210.951 295.992 201.921C295.539 192.89 288.535 185.902 280.347 186.311C272.159 186.721 270.874 193.143 271.327 202.174C271.779 211.204 273.797 219.423 281.985 219.014Z" fill="#6C63FF"/>
<path d="M247.391 194.466C246.059 194.574 244.738 194.148 243.72 193.282C242.701 192.417 242.069 191.183 241.961 189.852C241.853 188.52 242.279 187.2 243.145 186.183C244.01 185.165 245.245 184.532 246.578 184.424C249.353 184.2 250.11 186.401 250.334 189.174C250.559 191.947 250.166 194.242 247.391 194.466Z" fill="white"/>
<path d="M13.8538 101.036H137.786L157 110.389L187.614 125.292L207.63 87.844H264.273" stroke="#3F3D56" stroke-width="1.6069" stroke-miterlimit="10"/>
<path d="M62.4042 108.784C64.5211 108.784 66.2372 107.069 66.2372 104.954C66.2372 102.839 64.5211 101.124 62.4042 101.124C60.2874 101.124 58.5713 102.839 58.5713 104.954C58.5713 107.069 60.2874 108.784 62.4042 108.784Z" fill="#6C63FF"/>
<path d="M98.1784 104.866C100.295 104.866 102.011 103.151 102.011 101.036C102.011 98.921 100.295 97.2063 98.1784 97.2063C96.0615 97.2063 94.3455 98.921 94.3455 101.036C94.3455 103.151 96.0615 104.866 98.1784 104.866Z" fill="#6C63FF"/>
<path d="M156.95 114.228C159.067 114.228 160.783 112.514 160.783 110.398C160.783 108.283 159.067 106.568 156.95 106.568C154.833 106.568 153.117 108.283 153.117 110.398C153.117 112.514 154.833 114.228 156.95 114.228Z" fill="#6C63FF"/>
<path d="M239.572 91.6738C241.688 91.6738 243.405 89.9591 243.405 87.8439C243.405 85.7287 241.688 84.0139 239.572 84.0139C237.455 84.0139 235.739 85.7287 235.739 87.8439C235.739 89.9591 237.455 91.6738 239.572 91.6738Z" fill="#6C63FF"/>
<path d="M199.539 106.568C201.656 106.568 203.372 104.854 203.372 102.738C203.372 100.623 201.656 98.9084 199.539 98.9084C197.422 98.9084 195.706 100.623 195.706 102.738C195.706 104.854 197.422 106.568 199.539 106.568Z" fill="#6C63FF"/>
<path d="M119.754 166.851C122.036 166.851 123.887 165.002 123.887 162.721C123.887 160.441 122.036 158.592 119.754 158.592C117.471 158.592 115.621 160.441 115.621 162.721C115.621 165.002 117.471 166.851 119.754 166.851Z" stroke="#3F3D56" stroke-width="1.6069" stroke-miterlimit="10"/>
<path d="M47.613 233C73.909 233 95.226 230.102 95.226 226.528C95.226 222.953 73.909 220.055 47.613 220.055C21.3171 220.055 0 222.953 0 226.528C0 230.102 21.3171 233 47.613 233Z" fill="#3F3D56"/>
<path d="M45.0377 217.012C57.2575 217.012 67.1637 207.114 67.1637 194.903C67.1637 182.693 57.2575 172.795 45.0377 172.795C32.8178 172.795 22.9116 182.693 22.9116 194.903C22.9116 207.114 32.8178 217.012 45.0377 217.012Z" fill="#2F2E41"/>
<path d="M41.6767 212.255H34.9548V224.289H41.6767V212.255Z" fill="#2F2E41"/>
<path d="M55.1204 212.255H48.3986V224.289H55.1204V212.255Z" fill="#2F2E41"/>
<path d="M40.5564 226.528C43.65 226.528 46.1579 225.588 46.1579 224.429C46.1579 223.27 43.65 222.33 40.5564 222.33C37.4627 222.33 34.9548 223.27 34.9548 224.429C34.9548 225.588 37.4627 226.528 40.5564 226.528Z" fill="#2F2E41"/>
<path d="M54.0001 226.248C57.0937 226.248 59.6016 225.308 59.6016 224.149C59.6016 222.99 57.0937 222.05 54.0001 222.05C50.9064 222.05 48.3986 222.99 48.3986 224.149C48.3986 225.308 50.9064 226.248 54.0001 226.248Z" fill="#2F2E41"/>
<path d="M45.5977 196.863C49.7741 196.863 53.1598 193.48 53.1598 189.306C53.1598 185.133 49.7741 181.75 45.5977 181.75C41.4213 181.75 38.0356 185.133 38.0356 189.306C38.0356 193.48 41.4213 196.863 45.5977 196.863Z" fill="white"/>
<path d="M45.5978 191.825C46.99 191.825 48.1185 190.697 48.1185 189.306C48.1185 187.915 46.99 186.788 45.5978 186.788C44.2057 186.788 43.0771 187.915 43.0771 189.306C43.0771 190.697 44.2057 191.825 45.5978 191.825Z" fill="#3F3D56"/>
<path d="M23.5745 174.343C21.788 166.348 27.4989 158.27 36.3304 156.299C45.1618 154.329 53.7693 159.213 55.5559 167.207C57.3425 175.202 51.4896 178.151 42.6582 180.121C33.8268 182.092 25.3611 182.338 23.5745 174.343Z" fill="#6C63FF"/>
<path d="M37.4755 153.485C49.6954 153.485 59.6016 143.586 59.6016 131.376C59.6016 119.166 49.6954 109.267 37.4755 109.267C25.2557 109.267 15.3495 119.166 15.3495 131.376C15.3495 143.586 25.2557 153.485 37.4755 153.485Z" fill="#2F2E41"/>
<path d="M34.1147 148.727H27.3928V160.761H34.1147V148.727Z" fill="#2F2E41"/>
<path d="M47.5581 148.727H40.8363V160.761H47.5581V148.727Z" fill="#2F2E41"/>
<path d="M32.9944 163C36.088 163 38.5959 162.06 38.5959 160.901C38.5959 159.741 36.088 158.802 32.9944 158.802C29.9007 158.802 27.3928 159.741 27.3928 160.901C27.3928 162.06 29.9007 163 32.9944 163Z" fill="#2F2E41"/>
<path d="M46.4378 162.72C49.5315 162.72 52.0394 161.78 52.0394 160.621C52.0394 159.462 49.5315 158.522 46.4378 158.522C43.3442 158.522 40.8363 159.462 40.8363 160.621C40.8363 161.78 43.3442 162.72 46.4378 162.72Z" fill="#2F2E41"/>
<path d="M38.0357 133.335C42.2121 133.335 45.5978 129.952 45.5978 125.779C45.5978 121.605 42.2121 118.222 38.0357 118.222C33.8593 118.222 30.4736 121.605 30.4736 125.779C30.4736 129.952 33.8593 133.335 38.0357 133.335Z" fill="white"/>
<path d="M38.0356 128.297C39.4277 128.297 40.5563 127.17 40.5563 125.779C40.5563 124.388 39.4277 123.26 38.0356 123.26C36.6434 123.26 35.5149 124.388 35.5149 125.779C35.5149 127.17 36.6434 128.297 38.0356 128.297Z" fill="#3F3D56"/>
<path d="M16.0125 110.815C14.226 102.82 19.9369 94.7418 28.7683 92.7714C37.5998 90.8009 46.2073 95.6847 47.9939 103.68C49.7805 111.674 43.9276 114.623 35.0962 116.594C26.2648 118.564 17.7991 118.81 16.0125 110.815Z" fill="#6C63FF"/>
<path d="M22.55 125.854C23.3719 124.123 19.563 120.598 14.0425 117.982C8.52203 115.365 3.38044 114.648 2.55848 116.38C1.73652 118.112 5.54544 121.637 11.0659 124.253C16.5864 126.869 21.728 127.586 22.55 125.854Z" fill="#2F2E41"/>
<path d="M26.6074 139.352C26.6074 141.516 32.1834 145.789 38.3706 145.789C44.5579 145.789 50.3592 139.697 50.3592 137.533C50.3592 135.369 44.5579 137.953 38.3706 137.953C32.1834 137.953 26.6074 137.188 26.6074 139.352Z" fill="white"/>
<path d="M269.323 158.039H233.997V175.995H269.323V158.039Z" fill="#6C63FF"/>
<path d="M266.558 160.955H231.232V178.911H266.558V160.955Z" stroke="#3F3D56" stroke-width="1.6069" stroke-miterlimit="10"/>
<path d="M73.5491 55.6917H63.4663V65.7666H73.5491V55.6917Z" fill="#FF6584"/>
<path d="M71.0283 52.3337H60.9456V62.4086H71.0283V52.3337Z" stroke="#3F3D56" stroke-width="1.6069" stroke-miterlimit="10"/>
<path d="M253.764 75.1334C265.984 75.1334 275.89 65.235 275.89 53.0246C275.89 40.8142 265.984 30.9158 253.764 30.9158C241.544 30.9158 231.638 40.8142 231.638 53.0246C231.638 65.235 241.544 75.1334 253.764 75.1334Z" fill="#2F2E41"/>
<path d="M262.309 81.3405L268.923 80.144L266.778 68.3026L260.164 69.499L262.309 81.3405Z" fill="#2F2E41"/>
<path d="M249.081 83.7348L255.695 82.5383L253.55 70.6969L246.936 71.8933L249.081 83.7348Z" fill="#2F2E41"/>
<path d="M252.592 86.2268C254.953 84.229 256.259 81.8924 255.509 81.0078C254.759 80.1232 252.238 81.0256 249.877 83.0233C247.516 85.0211 246.21 87.3577 246.96 88.2423C247.71 89.1269 250.231 88.2245 252.592 86.2268Z" fill="#2F2E41"/>
<path d="M265.545 83.8835C267.906 81.8857 269.212 79.5491 268.462 78.6645C267.713 77.7799 265.191 78.6823 262.83 80.6801C260.469 82.6779 259.163 85.0145 259.913 85.8991C260.663 86.7837 263.185 85.8813 265.545 83.8835Z" fill="#2F2E41"/>
<path d="M252.215 55.1731C256.391 55.1731 259.777 51.7901 259.777 47.617C259.777 43.4438 256.391 40.0608 252.215 40.0608C248.038 40.0608 244.653 43.4438 244.653 47.617C244.653 51.7901 248.038 55.1731 252.215 55.1731Z" fill="white"/>
<path d="M249.107 47.4271C250.499 47.4271 251.628 46.2994 251.628 44.9084C251.628 43.5173 250.499 42.3896 249.107 42.3896C247.715 42.3896 246.586 43.5173 246.586 44.9084C246.586 46.2994 247.715 47.4271 249.107 47.4271Z" fill="#3F3D56"/>
<path d="M271.218 28.9728C271.551 20.7878 264.491 13.855 255.45 13.4881C246.408 13.1211 238.809 19.4588 238.476 27.6439C238.144 35.8289 244.429 37.6886 253.47 38.0556C262.511 38.4225 270.886 37.1578 271.218 28.9728Z" fill="#6C63FF"/>
<path d="M244.117 51.4667C244.546 49.5985 240.065 46.9783 234.11 45.6143C228.154 44.2502 222.979 44.6589 222.55 46.5271C222.122 48.3952 226.602 51.0154 232.558 52.3795C238.513 53.7435 243.688 53.3348 244.117 51.4667Z" fill="#2F2E41"/>
<path d="M287.55 58.684C287.978 56.8158 283.498 54.1956 277.542 52.8316C271.587 51.4675 266.411 51.8762 265.983 53.7444C265.554 55.6125 270.035 58.2327 275.99 59.5967C281.946 60.9608 287.121 60.5521 287.55 58.684Z" fill="#2F2E41"/>
<path d="M259.841 61.7379C259.959 62.3888 259.947 63.0566 259.807 63.7031C259.667 64.3496 259.4 64.9621 259.023 65.5057C258.646 66.0493 258.165 66.5134 257.608 66.8714C257.051 67.2293 256.43 67.4743 255.778 67.5921C255.127 67.7099 254.458 67.6984 253.811 67.5582C253.164 67.4179 252.551 67.1517 252.007 66.7748C251.463 66.3978 250.999 65.9175 250.641 65.3611C250.282 64.8048 250.037 64.1835 249.919 63.5325C249.423 60.7949 251.542 59.8262 254.281 59.3306C257.021 58.835 259.345 59.0002 259.841 61.7379Z" fill="white"/>
<path d="M199.583 27.7061L225.07 47.2961" stroke="#3F3D56" stroke-width="1.6069" stroke-miterlimit="10"/>
<path d="M187.54 38.0607C198.058 38.0607 206.585 29.5406 206.585 19.0304C206.585 8.52019 198.058 0 187.54 0C177.022 0 168.495 8.52019 168.495 19.0304C168.495 29.5406 177.022 38.0607 187.54 38.0607Z" fill="#FF6584"/>
<path d="M253.737 188.845C254.557 182.795 253.682 177.682 251.781 177.425C249.88 177.167 247.674 181.863 246.853 187.913C246.033 193.963 246.908 199.076 248.809 199.333C250.71 199.59 252.916 194.895 253.737 188.845Z" fill="#2F2E41"/>
<path d="M19.2724 223.806C21.3893 223.806 23.1053 222.091 23.1053 219.976C23.1053 217.861 21.3893 216.146 19.2724 216.146C17.1555 216.146 15.4395 217.861 15.4395 219.976C15.4395 222.091 17.1555 223.806 19.2724 223.806Z" fill="#6C63FF"/>
<path d="M81.9514 215.491H71.8687V225.566H81.9514V215.491Z" fill="#FF6584"/>
<path d="M71.9267 226.045C74.0436 226.045 75.7596 224.33 75.7596 222.215C75.7596 220.099 74.0436 218.385 71.9267 218.385C69.8098 218.385 68.0938 220.099 68.0938 222.215C68.0938 224.33 69.8098 226.045 71.9267 226.045Z" fill="#6C63FF"/>
<path d="M129.383 75.201C131.5 75.201 133.216 73.4862 133.216 71.371C133.216 69.2557 131.5 67.541 129.383 67.541C127.266 67.541 125.55 69.2557 125.55 71.371C125.55 73.4862 127.266 75.201 129.383 75.201Z" fill="#6C63FF"/>
<path d="M203.817 191.923C204.828 191.923 205.648 191.104 205.648 190.094C205.648 189.084 204.828 188.265 203.817 188.265C202.807 188.265 201.987 189.084 201.987 190.094C201.987 191.104 202.807 191.923 203.817 191.923Z" fill="#FF6584"/>
<path d="M212.785 220.452V199.627" stroke="#3F3D56" stroke-width="1.6069" stroke-miterlimit="10"/>
<path d="M212.785 202.572C214.413 202.572 215.732 201.253 215.732 199.627C215.732 198 214.413 196.682 212.785 196.682C211.157 196.682 209.838 198 209.838 199.627C209.838 201.253 211.157 202.572 212.785 202.572Z" fill="#3F3D56"/>
<path d="M212.785 212.461C212.785 212.461 212.364 203.413 203.733 204.465L212.785 212.461Z" fill="#3F3D56"/>
</svg>
